<svg xmlns="http://www.w3.org/2000/svg" xmlns:xlink="http://www.w3.org/1999/xlink" width="1024" height="1024" viewBox="0 0 1024 1024"><defs><clipPath id="b"><rect width="1024" height="1024"/></clipPath></defs><g id="a" clip-path="url(#b)"><path d="M819.179,117.49H480.209L367.218,4.5H84.743A84.742,84.742,0,0,0,0,89.243V597.7a84.742,84.742,0,0,0,84.743,84.743H819.179A84.742,84.742,0,0,0,903.922,597.7V202.233A84.742,84.742,0,0,0,819.179,117.49ZM649.694,414.09a28.24,28.24,0,0,1-28.248,28.248H494.332V569.451A28.24,28.24,0,0,1,466.085,597.7H437.837a28.24,28.24,0,0,1-28.248-28.248V442.337H282.476a28.24,28.24,0,0,1-28.248-28.248V385.842a28.24,28.24,0,0,1,28.248-28.248H409.59V230.48a28.24,28.24,0,0,1,28.248-28.248h28.248a28.24,28.24,0,0,1,28.248,28.248V357.595H621.446a28.24,28.24,0,0,1,28.248,28.248Z" transform="translate(60.039 168.529)" fill="#00c4f5"/></g></svg>