<?xml version="1.0" encoding="UTF-8" standalone="no"?>
<svg
   width="1025"
   height="1025"
   viewBox="0 0 1025 1025"
   version="1.1"
   id="svg4"
   sodipodi:docname="AppIconLight.svg"
   inkscape:version="1.4 (86a8ad7, 2024-10-11)"
   xmlns:inkscape="http://www.inkscape.org/namespaces/inkscape"
   xmlns:sodipodi="http://sodipodi.sourceforge.net/DTD/sodipodi-0.dtd"
   xmlns="http://www.w3.org/2000/svg"
   xmlns:svg="http://www.w3.org/2000/svg">
  <sodipodi:namedview
     id="namedview4"
     pagecolor="#ffffff"
     bordercolor="#000000"
     borderopacity="0.25"
     inkscape:showpageshadow="2"
     inkscape:pageopacity="0.0"
     inkscape:pagecheckerboard="0"
     inkscape:deskcolor="#d1d1d1"
     inkscape:zoom="1.7307317"
     inkscape:cx="512.2111"
     inkscape:cy="512.5"
     inkscape:window-width="3840"
     inkscape:window-height="2036"
     inkscape:window-x="3828"
     inkscape:window-y="-12"
     inkscape:window-maximized="1"
     inkscape:current-layer="b" />
  <defs
     id="defs2">
    <linearGradient
       id="a"
       x1="0.074"
       y1="0.055"
       x2="0.919"
       y2="0.944"
       gradientUnits="objectBoundingBox">
      <stop
         offset="0"
         stop-color="#00c4f5"
         id="stop1" />
      <stop
         offset="1"
         stop-color="#88c224"
         id="stop2" />
    </linearGradient>
    <clipPath
       id="c">
      <rect
         width="1025"
         height="1025"
         id="rect2" />
    </clipPath>
  </defs>
  <g
     id="b"
     clip-path="url(#c)">
    <path
       d="M259.882,658.43c-8.123-5.551-34.719-24.123-40.282-56.913-6.058-35.708-1.774-57.174,36.416-111.5s57.36-91.035,69.414-132.216-2.278-87-2.278-87,79.555-4.129,79.555-4.1c0,.086,10.513,43.679,3.16,96.216S369,468.049,352.53,494.178s-60.857,76.951-27.1,98.341c11.943,6.85,55.321-2.643,88.677-8.684s64.225-15.295,64.225-15.295l22.9,71.29s-46.89,12.967-94.212,21.08-79.981,11.371-95.077,11.371C289.4,672.282,272.368,666.963,259.882,658.43ZM80.122,422.475s-24.17-5.632-44.2-15.826S0,381.7,0,381.7l30.538-67.064s21.153,16,39.21,23.606a285.16,285.16,0,0,0,37.631,12.371s26.015,6.738,45.627,4.314,31.95-4.245,41.154-14.015a25.219,25.219,0,0,0,5.743-10.1,42.192,42.192,0,0,0,1.423-14.657c-1.92-32.742-19.387-40.735-48.32-53.984a394.876,394.876,0,0,1-40.342-20.57C60.215,210.316,39.3,195.875,27.712,168.145a100.686,100.686,0,0,1-8.222-43.408A96.169,96.169,0,0,1,30.63,84.375,138.5,138.5,0,0,1,58.875,48.062a225.852,225.852,0,0,1,43.084-31.246C121.522,5.659,148.117,0,180.992,0a350.212,350.212,0,0,1,41.4,2.63c11.668,1.4,23.733,3.34,35.872,5.779,19.62,3.94,33.294,7.957,34.785,8.4h.016l-41.512,88.926h-.026c-1.123-.32-11.4-3.219-25.539-6.41A414.9,414.9,0,0,0,173,90.573c-3.711-.316-7.322-.481-10.762-.481a78.3,78.3,0,0,0-23.505,3.2,39.54,39.54,0,0,0-16.759,9.863c-6.556,6.777-9.691,16.05-9.318,27.565a20.806,20.806,0,0,0,5.816,12.871,69.591,69.591,0,0,0,14.869,12.224c12.361,8.035,29.006,15.9,46.629,24.235h.01l.016.011.051.026c13.3,6.29,27.051,12.788,39.867,19.793a192.237,192.237,0,0,1,34.174,22.76,113.088,113.088,0,0,1,37.569,64.288,135.76,135.76,0,0,1,2.308,33.265,163.787,163.787,0,0,1-4.476,30.427,64.145,64.145,0,0,1-12.7,25.1,102.116,102.116,0,0,1-21.56,19.539c-13.519,9.376-30.655,17.671-52.387,25.369-14.9,5.276-36.586,8.181-61.06,8.181C116.824,428.805,80.122,422.475,80.122,422.475Z"
       transform="translate(267.269 175.871)"
       fill="#db0056"
       id="path3"
       style="fill:#ffffff;fill-opacity:1;opacity:0.8" />
    <path
       d="m 659,-2026 c -15.386,0 -30.9,-0.757 -46.112,-2.251 -15,-1.472 -30.063,-3.7 -44.781,-6.607 -28.96784,-5.7313 -57.31686,-14.2371 -84.655,-25.4 -26.75301,-10.9424 -52.40537,-24.4029 -76.611,-40.2 -23.88083,-15.5976 -46.22945,-33.4236 -66.746,-53.239 -20.38072,-19.6967 -38.82271,-41.3053 -55.072,-64.528 -16.26153,-23.2595 -30.18928,-48.0663 -41.581,-74.06 -11.51447,-26.3181 -20.31954,-53.7402 -26.279,-81.842 -3.02464,-14.3026 -5.30603,-28.7523 -6.835,-43.291 -1.55098,-14.8101 -2.32804,-29.691 -2.328,-44.582 1.1e-4,-14.8904 0.77717,-29.7706 2.328,-44.58 1.52952,-14.5383 3.81091,-28.9877 6.835,-43.29 5.95909,-28.1016 14.76417,-55.5233 26.279,-81.841 11.39168,-25.9944 25.31943,-50.8018 41.581,-74.062 16.24962,-23.2225 34.69159,-44.831 55.072,-64.528 20.5168,-19.8154 42.86538,-37.6418 66.746,-53.24 24.20555,-15.7972 49.85792,-29.2577 76.611,-40.2 27.3375,-11.1659 55.68665,-19.6735 84.655,-25.405 14.7,-2.909 29.769,-5.133 44.781,-6.609 15.212,-1.488 30.727,-2.245 46.112,-2.245 15.385,0 30.9,0.757 46.112,2.249 15.006,1.475 30.072,3.7 44.779,6.609 28.96907,5.7313 57.31891,14.2389 84.657,25.405 26.75231,10.9425 52.40399,24.4031 76.609,40.2 23.87947,15.5974 46.22704,33.4228 66.743,53.237 20.38105,19.6961 38.8228,41.3047 55.071,64.528 16.2627,23.2599 30.1911,48.0673 41.583,74.062 11.5148,26.3177 20.3198,53.7394 26.279,81.841 3.0238,14.3024 5.3048,28.7517 6.834,43.29 1.5522,14.809 2.3309,29.6889 2.333,44.579 -8e-4,14.8897 -0.7782,29.7693 -2.329,44.578 -1.5297,14.5386 -3.8107,28.9882 -6.834,43.291 -5.9596,28.1015 -14.7646,55.5232 -26.279,81.841 -11.3925,25.994 -25.3209,50.8011 -41.583,74.061 -16.2506,23.2229 -34.69354,44.8318 -55.075,64.529 -20.51703,19.8152 -42.86596,37.6413 -66.747,53.239 -24.20508,15.7968 -49.85675,29.2573 -76.609,40.2 -27.33867,11.1633 -55.68839,19.6692 -84.657,25.4 -14.72,2.912 -29.785,5.135 -44.779,6.607 -15.208,1.497 -30.722,2.254 -46.108,2.254 z m 0.645,-822.1 c -220.576,0 -400.028,173.484 -400.028,386.724 0,213.24 179.452,386.724 400.028,386.724 44.81186,0.056 89.33043,-7.2271 131.788,-21.561 9.674,-3.272 19.371,-6.97 28.819,-10.99 1.741,-0.293 3.494,-0.591 5.211,-0.886 48.193,-8.283 95.013,-21.208 96.982,-21.754 3.86435,-1.0676 7.47091,-2.9107 10.6,-5.417 3.1386,-2.5021 5.73614,-5.6157 7.635,-9.152 1.90907,-3.5351 3.08104,-7.4208 3.445,-11.422 0.37284,-4.0006 -0.0694,-8.0352 -1.3,-11.86 l -5.106,-15.934 c 12.87879,-12.0559 24.9389,-24.9575 36.1,-38.619 17.94791,-21.9746 33.4218,-45.8585 46.142,-71.22 12.8297,-25.6127 22.691,-52.6074 29.392,-80.459 6.8597,-28.6436 10.3219,-57.9955 10.315,-87.449 0.01,-213.242 -179.447,-386.725 -400.024,-386.725 z m -3.632,732.27 v 0 c -11.22,-0.09 -22.532,-0.688 -33.622,-1.776 -11.909,-1.169 -23.872,-2.933 -35.555,-5.245 -23.00094,-4.5515 -45.51039,-11.3063 -67.217,-20.171 -21.24085,-8.6887 -41.60805,-19.3761 -60.827,-31.918 -18.96284,-12.3841 -36.7089,-26.5381 -53,-42.272 -16.18181,-15.6392 -30.82466,-32.7959 -43.727,-51.234 -12.91147,-18.467 -23.97031,-38.1623 -33.016,-58.8 -9.14172,-20.8967 -16.13307,-42.6696 -20.866,-64.982 -2.40003,-11.3557 -4.21078,-22.8281 -5.425,-34.371 -1.23131,-11.7598 -1.84848,-23.5759 -1.849,-35.4 4.9e-4,-11.8241 0.61766,-23.6402 1.849,-35.4 1.21398,-11.5433 3.02474,-23.016 5.425,-34.372 4.73328,-22.3123 11.72462,-44.0851 20.866,-64.982 9.04619,-20.6374 20.10501,-40.3327 33.016,-58.8 12.90206,-18.4383 27.54493,-35.5951 43.727,-51.234 1.648,-1.594 3.338,-3.2 5.022,-4.76 -4.09904,11.6832 -6.48839,23.8974 -7.094,36.264 -0.3182,9.6167 0.41954,19.2392 2.2,28.695 -3.676,4.695 -7.252,9.543 -10.627,14.411 -11.32627,16.3263 -21.02751,33.7219 -28.965,51.938 -8.01686,18.4339 -14.14808,37.6317 -18.3,57.3 -4.24578,20.2029 -6.38456,40.7918 -6.382,61.436 -0.003,20.6568 2.13789,41.2581 6.388,61.473 4.15738,19.6783 10.29601,38.8852 18.322,57.327 7.94563,18.2243 17.65627,35.6269 28.993,51.959 11.33027,16.3081 24.18835,31.4997 38.4,45.369 14.3033,13.9514 29.88691,26.5267 46.545,37.56 16.87228,11.1671 34.76015,20.7181 53.426,28.526 19.05369,7.9594 38.82507,14.0779 59.044,18.272 7.88,1.634 15.952,2.994 23.992,4.042 9.069,15.542 22.276,29.385 39.254,41.147 z m -53.787,-88.555 v 0 c -17.22165,-3.4081 -34.07558,-8.4647 -50.329,-15.1 -15.90788,-6.5061 -31.16174,-14.5087 -45.556,-23.9 -14.20128,-9.2751 -27.49109,-19.8759 -39.691,-31.66 -12.11933,-11.7127 -23.08568,-24.5624 -32.748,-38.372 -9.67009,-13.8316 -17.95219,-28.5833 -24.726,-44.041 -4.94811,-11.3168 -9.05915,-22.9815 -12.3,-34.9 3.233,2.8 8.5,7.166 15.27,12.017 7.69052,5.5573 15.78575,10.5318 24.218,14.882 5.051,2.577 10.7,5.1 16.777,7.492 3.311,6.235 6.98,12.4 10.9,18.315 12.27419,18.4792 27.2192,35.0374 44.348,49.135 17.35824,14.3081 36.72305,25.9904 57.475,34.673 12.26013,5.1297 24.93757,9.1986 37.893,12.162 -2.565,12.419 -3.053,24.906 -1.533,39.3 z m 321.125,-24.1 v 0 l -3.392,-10.585 c -1.59204,-4.9778 -4.46471,-9.4496 -8.33,-12.967 -3.74996,-3.4009 -8.30227,-5.7937 -13.23,-6.954 2.813,-3.1 5.6,-6.3 8.3,-9.512 14.75493,-17.6111 27.48974,-36.8203 37.966,-57.268 10.56357,-20.6431 18.68986,-42.4449 24.215,-64.966 5.65625,-23.1651 8.512,-46.9253 8.506,-70.771 0.002,-19.2137 -1.85006,-38.3828 -5.529,-57.241 -3.60213,-18.3721 -8.92939,-36.3635 -15.911,-53.735 -6.90702,-17.1537 -15.3686,-33.6398 -25.279,-49.252 -9.89009,-15.564 -21.14547,-30.2171 -33.633,-43.786 -12.542,-13.619 -26.25235,-26.1137 -40.974,-37.341 -14.86565,-11.3303 -30.69245,-21.3407 -47.3,-29.917 -16.87195,-8.7029 -34.47848,-15.9011 -52.615,-21.511 -8.665,-2.679 -17.584,-5.025 -26.508,-6.975 l 3.933,-8.451 c 3.657,-7.8534 3.72341,-16.9078 0.182,-24.814 -1.12419,-2.512 -2.59078,-4.8563 -4.358,-6.966 l 0.43,0.082 1.349,0.265 c 23.00109,4.5509 45.5106,11.3057 67.217,20.171 21.24074,8.6879 41.60766,19.3749 60.826,31.917 18.96281,12.3841 36.70887,26.5381 53,42.272 16.18218,15.6388 30.82506,32.7956 43.727,51.234 12.91111,18.4673 23.96994,38.1625 33.016,58.8 9.14118,20.8969 16.1322,42.6697 20.865,64.982 2.4002,11.3561 4.2113,22.8288 5.426,34.372 1.2309,11.7599 1.8481,23.5759 1.849,35.4 0,11.8241 -0.6181,23.6401 -1.849,35.4 -1.2147,11.5429 -3.0257,23.0153 -5.426,34.371 -4.7321,22.3125 -11.72313,44.0854 -20.865,64.982 -9.04634,20.6373 -20.10515,40.3326 -33.016,58.8 -9.86682,14.102 -20.75682,27.4596 -32.582,39.965 z m -165.937,-5.038 v 0 c 3.868,-11.424 17.2,-30.652 23.6,-39.893 l 0.013,-0.019 0.383,-0.552 c 4.072,-2.592 8.117,-5.35 12.021,-8.2 18.35535,-13.3595 34.59179,-29.4099 48.162,-47.61 13.58446,-18.1947 24.2321,-38.4068 31.555,-59.9 7.51423,-22.1215 11.3396,-45.3281 11.323,-68.691 0,-53.161 -19.917,-104.55 -56.081,-144.7 -36.17646,-39.9497 -85.2052,-65.9636 -138.568,-73.522 0.87196,-1.2979 1.64098,-2.6621 2.3,-4.08 l 15.043,-32.31 c 1.074,0.2 2.14,0.4 3.17,0.607 17.22592,3.4103 34.08387,8.4696 50.341,15.108 15.90778,6.5064 31.16161,14.509 45.556,23.9 14.20135,9.2754 27.49146,19.8762 39.692,31.66 12.11901,11.713 23.08533,24.5627 32.748,38.372 9.66917,13.8316 17.95153,28.5826 24.727,44.039 6.84684,15.6502 12.08315,31.9565 15.628,48.667 3.62518,17.1816 5.45103,34.6941 5.448,52.254 0.003,17.5592 -1.82291,35.071 -5.448,52.252 -3.54442,16.7106 -8.78075,33.017 -15.628,48.667 -6.77496,15.4573 -15.05736,30.209 -24.727,44.041 -9.66286,13.8092 -20.62916,26.6588 -32.748,38.372 -12.20079,11.7835 -25.49088,22.3843 -39.692,31.66 -1.75,1.143 -3.543,2.284 -5.328,3.39 -15.991,2.974 -32.328,5.818 -43.49,6.485 z m -368.186,-200.936 v 0 c -0.75,-7.922 -1.131,-15.971 -1.131,-23.923 -0.003,-17.5599 1.82282,-35.0724 5.448,-52.254 3.54416,-16.7106 8.78014,-33.0169 15.627,-48.667 5.38478,-12.2868 11.72523,-24.1321 18.963,-35.427 7.362,9.833 16.648,18.84 29.225,28.345 -6.8337,11.7162 -12.55117,24.0488 -17.077,36.835 -1.989,5.625 -3.76,11.4 -5.264,17.149 -7.8143,2.6399 -14.18832,8.395 -17.61,15.9 l -28.18,62.041 z m 182.352,-228.767 v 0 c -3.366,-1.888 -6.287,-3.641 -8.928,-5.36 -2.23885,-1.3768 -4.33341,-2.9756 -6.252,-4.772 0.0424,-0.4599 0.14664,-0.912 0.31,-1.344 1.17902,-1.1633 2.6331,-2.0096 4.227,-2.46 4.45577,-1.3206 9.07866,-1.9918 13.726,-1.993 l 1.325,0.012 c 2.463,0 5.236,0.119 7.808,0.336 9.482,0.943 19.084,2.266 28.54,3.932 -5.793,1.1 -11.618,2.43 -17.313,3.965 -7.94482,2.1446 -15.77016,4.7096 -23.443,7.684 z"
       fill="#fff"
       opacity="0.6"
       id="path4"
       transform="translate(-147,2975)"
       style="fill:#ffffff;fill-opacity:1;opacity:0.8"
       sodipodi:nodetypes="scccccccccscccccccccscccccccccccccccccscscscccccccccccccccccscccccccccccccccccccccccccccccccccscccccccccccsccccccccccccccccccccccccccccccccccccccccssccccccccccccccccccccccsccccsccccccccccsscccccccccs" />
  </g>
</svg>
