<svg xmlns="http://www.w3.org/2000/svg" xmlns:xlink="http://www.w3.org/1999/xlink" width="1025" height="1025" viewBox="0 0 1025 1025"><defs><linearGradient id="a" x1="0.074" y1="0.055" x2="0.919" y2="0.944" gradientUnits="objectBoundingBox"><stop offset="0" stop-color="#00c4f5"/><stop offset="1" stop-color="#88c224"/></linearGradient><clipPath id="c"><rect width="1025" height="1025"/></clipPath></defs><g id="b" clip-path="url(#c)"><path d="M125,0H900a125,125,0,0,1,125,125V900a125,125,0,0,1-125,125H125A125,125,0,0,1,0,900V125A125,125,0,0,1,125,0Z" fill="url(#a)"/><path d="M336.319,852.089c-10.512-7.183-44.93-31.218-52.13-73.653-7.84-46.211-2.3-73.99,47.127-144.293s74.231-117.811,89.831-171.1S418.2,350.452,418.2,350.452s102.954-5.344,102.954-5.308c0,.111,13.605,56.526,4.09,124.516s-47.708,136.053-69.024,169.868-78.757,99.584-35.071,127.266c15.455,8.864,71.592-3.421,114.758-11.238s83.115-19.793,83.115-19.793l29.64,92.258S587.979,844.8,526.739,855.3,423.233,870.016,403.7,870.016C374.522,870.016,352.478,863.133,336.319,852.089ZM103.688,546.734s-31.279-7.289-57.2-20.481S0,493.97,0,493.97l39.52-86.789s27.374,20.707,50.743,30.549a369.034,369.034,0,0,0,48.7,16.01s33.666,8.72,59.048,5.582,41.347-5.494,53.259-18.137a32.637,32.637,0,0,0,7.432-13.072,54.6,54.6,0,0,0,1.841-18.968c-2.484-42.373-25.09-52.717-62.532-69.863a511.019,511.019,0,0,1-52.208-26.62C77.926,272.174,50.861,253.486,35.863,217.6a130.3,130.3,0,0,1-10.64-56.175,124.454,124.454,0,0,1,14.416-52.234A179.23,179.23,0,0,1,76.192,62.2a292.281,292.281,0,0,1,55.756-40.436C157.264,7.324,191.682,0,234.226,0A453.217,453.217,0,0,1,287.8,3.4c15.1,1.809,30.714,4.322,46.423,7.478,25.39,5.1,43.087,10.3,45.016,10.874h.02L325.538,136.836h-.033c-1.454-.415-14.757-4.166-33.051-8.295a536.938,536.938,0,0,0-68.572-11.329c-4.8-.409-9.475-.623-13.928-.623a101.324,101.324,0,0,0-30.419,4.14,51.17,51.17,0,0,0-21.688,12.764c-8.484,8.77-12.542,20.77-12.059,35.672a26.925,26.925,0,0,0,7.526,16.656,90.059,90.059,0,0,0,19.243,15.819c16,10.4,37.537,20.582,60.344,31.363h.013l.02.014.066.033c17.21,8.14,35.007,16.549,51.592,25.614a248.779,248.779,0,0,1,44.225,29.454,146.35,146.35,0,0,1,48.618,83.2,175.69,175.69,0,0,1,2.987,43.049,211.961,211.961,0,0,1-5.792,39.376A83.012,83.012,0,0,1,358.2,486.223a132.151,132.151,0,0,1-27.9,25.286c-17.5,12.134-39.672,22.868-67.795,32.831-19.285,6.828-47.347,10.587-79.019,10.587C151.185,554.927,103.688,546.734,103.688,546.734Z" transform="translate(188.17 77.492)" fill="#db0056"/></g></svg>