<svg xmlns="http://www.w3.org/2000/svg" xmlns:xlink="http://www.w3.org/1999/xlink" width="1024" height="1024" viewBox="0 0 1024 1024"><defs><clipPath id="b"><rect width="1024" height="1024"/></clipPath></defs><g id="a" clip-path="url(#b)"><path d="M-11456.158-2137.14h-98.089l129.972-447.715a12.579,12.579,0,0,1,4.7-6.793,13.154,13.154,0,0,1,7.734-2.527,13.265,13.265,0,0,1,3.592.5l53.8,15.609v90.578l-101.709,350.35Zm-225.749,0h-283.411a40.634,40.634,0,0,1-15.867-3.186,40.384,40.384,0,0,1-12.929-8.7,40.393,40.393,0,0,1-8.7-12.927,40.634,40.634,0,0,1-3.187-15.867v-751.5a40.634,40.634,0,0,1,3.187-15.867,40.39,40.39,0,0,1,8.7-12.927,40.371,40.371,0,0,1,12.929-8.7,40.633,40.633,0,0,1,15.867-3.186h339.662v230.527a40.726,40.726,0,0,0,40.68,40.68h230.527v68.665l-40.261-11.681a63.235,63.235,0,0,0-17.13-2.365c-28.08,0-52.938,18.66-60.452,45.377l-48.843,168.249a61.637,61.637,0,0,0-14.9-26.715l-46.794-49.912a63.114,63.114,0,0,0-45.883-19.872,62.691,62.691,0,0,0-43.066,17.039l-154.715,144.946a62.976,62.976,0,0,0-20.232,46.182,62.974,62.974,0,0,0,1.349,12.928,63.449,63.449,0,0,0,3.907,12.245,62.673,62.673,0,0,0,6.26,11.131,60.528,60.528,0,0,0,8.4,9.585l144.9,135.849h0Zm286.775,0h-8.963l20.31-69.961a61.637,61.637,0,0,0,14.9,26.714l12.89,13.748a40.348,40.348,0,0,1-5.53,11.81,40.581,40.581,0,0,1-8.854,9.34,40.413,40.413,0,0,1-11.447,6.14A40.853,40.853,0,0,1-11395.132-2137.141Zm-233.522-23.424a13.025,13.025,0,0,1-8.939-3.571l-155.016-145.331a12.657,12.657,0,0,1-3.085-4.364,12.787,12.787,0,0,1-1.028-5.05,12.789,12.789,0,0,1,1.028-5.049,12.662,12.662,0,0,1,3.085-4.363l155.016-145.226a12.933,12.933,0,0,1,8.883-3.529,12.852,12.852,0,0,1,5.05,1.025,12.755,12.755,0,0,1,4.354,3.043l46.8,49.915a12.6,12.6,0,0,1,3.526,9.331,12.858,12.858,0,0,1-1.21,4.941,12.934,12.934,0,0,1-3.179,4.228l-97.462,85.738,97.462,85.735a12.779,12.779,0,0,1,4.343,9.053,12.9,12.9,0,0,1-.75,5,12.8,12.8,0,0,1-2.73,4.452l-46.8,49.915a12.6,12.6,0,0,1-4.328,3.078A12.638,12.638,0,0,1-11628.654-2160.565Zm263.038-109.126v0l11.166-38.46v28.619l-10.179,8.953c-.367.328-.689.619-.985.889Zm-196.406-20.007h0l-33.109-29.126,54.842-48.246c.347-.305.679-.605.988-.892Zm207.573-463.338h-216.965V-2970h10.338a40.851,40.851,0,0,1,15.615,3.073,40.215,40.215,0,0,1,13.2,8.793l165.944,166.113a40.324,40.324,0,0,1,8.793,13.18,40.327,40.327,0,0,1,3.072,15.469v10.337Z" transform="translate(12081.724 3034.176)" fill="#00c4f5"/><path d="M300.05,550.205l-65.62-19.041a12.928,12.928,0,0,1-8.821-16.029L372.447,9.322A12.928,12.928,0,0,1,388.476.5L454.1,19.541a12.928,12.928,0,0,1,8.821,16.029L316.078,541.384a12.89,12.89,0,0,1-16.029,8.821Zm-122.635-120.7,46.795-49.914a12.909,12.909,0,0,0-.861-18.5l-97.462-85.737,97.462-85.737a12.818,12.818,0,0,0,.861-18.5L177.415,121.2a12.922,12.922,0,0,0-18.288-.538L4.113,265.886a12.824,12.824,0,0,0,0,18.826L159.127,430.045a12.827,12.827,0,0,0,18.288-.538Zm351.983.645L684.413,284.819a12.824,12.824,0,0,0,0-18.826L529.4,120.553a13.026,13.026,0,0,0-18.288.538l-46.795,49.914a12.909,12.909,0,0,0,.861,18.5l97.462,85.844-97.462,85.737a12.818,12.818,0,0,0-.861,18.5l46.795,49.914a12.926,12.926,0,0,0,18.288.645Z" transform="translate(285.002 439.997)" fill="#afafaf"/></g></svg>