<svg xmlns="http://www.w3.org/2000/svg" xmlns:xlink="http://www.w3.org/1999/xlink" width="1024" height="1024" viewBox="0 0 1024 1024"><defs><clipPath id="b"><rect width="1024" height="1024"/></clipPath></defs><g id="a" clip-path="url(#b)"><path d="M303.787,14.454,178.093,140.12H33.906A33.9,33.9,0,0,0,0,174.026V377.465a33.906,33.906,0,0,0,33.906,33.906H178.093L303.787,537.037c21.234,21.234,57.881,6.315,57.881-23.975V38.429C361.668,8.111,324.993-6.751,303.787,14.454Zm348.4,261.291,64.479-64.479a22.8,22.8,0,0,0,0-32.239l-32.239-32.239a22.8,22.8,0,0,0-32.239,0l-64.479,64.479-64.479-64.479a22.8,22.8,0,0,0-32.239,0l-32.239,32.239a22.8,22.8,0,0,0,0,32.239l64.479,64.479L458.768,340.21a22.8,22.8,0,0,0,0,32.239l32.239,32.239a22.8,22.8,0,0,0,32.239,0l64.465-64.465L652.19,404.7a22.8,22.8,0,0,0,32.239,0l32.239-32.239a22.8,22.8,0,0,0,0-32.239Z" transform="translate(91.632 236.251)"/></g></svg>