<svg xmlns="http://www.w3.org/2000/svg" xmlns:xlink="http://www.w3.org/1999/xlink" width="1024" height="1024" viewBox="0 0 1024 1024"><defs><clipPath id="b"><rect width="1024" height="1024"/></clipPath></defs><g id="a" clip-path="url(#b)"><path d="M313.86,81.483,184,211.316H35.031A35.021,35.021,0,0,0,0,246.346V456.53a35.03,35.03,0,0,0,35.031,35.031H184L313.86,621.393c21.938,21.938,59.8,6.524,59.8-24.77V106.253C373.661,74.929,335.769,59.574,313.86,81.483ZM654.417,6.926A35.322,35.322,0,0,0,615.65,65.982c96.729,63.479,154.456,170.191,154.456,285.471S712.378,573.445,615.65,636.924a35.316,35.316,0,1,0,38.767,59.041c116.652-76.571,186.319-205.382,186.319-344.527S771.069,83.5,654.417,6.926Zm46.2,344.512c0-92.729-46.8-177.985-125.191-228.05a34.881,34.881,0,0,0-48.342,10.889A35.447,35.447,0,0,0,537.9,182.97c58.02,37.06,92.656,100.027,92.656,168.468S595.916,482.847,537.9,519.907A35.441,35.441,0,0,0,527.08,568.6c9.5,15.122,30.827,22.1,48.342,10.889C653.818,529.423,700.614,444.182,700.614,351.438Zm-206.929-112.2a35.042,35.042,0,0,0-33.8,61.391,57.533,57.533,0,0,1,.015,101.618,35.042,35.042,0,1,0,33.8,61.391,127.616,127.616,0,0,0-.015-224.4Z" transform="translate(91.632 160.552)"/></g></svg>