<svg xmlns="http://www.w3.org/2000/svg" xmlns:xlink="http://www.w3.org/1999/xlink" width="32" height="32" viewBox="0 0 32 32"><defs><linearGradient id="a" x1="0.5" x2="0.5" y2="1" gradientUnits="objectBoundingBox"><stop offset="0" stop-color="#25ba00"/><stop offset="1" stop-color="#296800"/></linearGradient><clipPath id="c"><rect width="32" height="32"/></clipPath></defs><g id="b" clip-path="url(#c)"><rect width="21" height="15" transform="translate(6 16)" fill="#fff"/><path d="M24,16.621V17H16V9h.379a1.5,1.5,0,0,1,1.061.439l6.121,6.121A1.5,1.5,0,0,1,24,16.621ZM15.5,19A1.5,1.5,0,0,1,14,17.5V9H1.5A1.5,1.5,0,0,0,0,10.5v29A1.5,1.5,0,0,0,1.5,41h21A1.5,1.5,0,0,0,24,39.5V19Zm5.534,19L2.6,38.03,2.634,35l3.9-2.5a2.456,2.456,0,0,1,2.03.03L12.034,35l6.47-7.47a.75.75,0,0,1,1.061,0L21.034,30Z" transform="translate(4.357 -9)" fill="url(#a)"/><path d="M1.5,9.65a.851.851,0,0,0-.85.85v29a.851.851,0,0,0,.85.85h21a.851.851,0,0,0,.85-.85V19.65H15.5a2.152,2.152,0,0,1-2.15-2.15V9.65H1.5M2.6,38.68a.65.65,0,0,1-.65-.657l.03-3.03a.65.65,0,0,1,.3-.541l3.86-2.474a2.138,2.138,0,0,1,1.339-.334,2.519,2.519,0,0,1,1.488.377l2.959,2.106L18.012,27.1l.032-.034a1.4,1.4,0,0,1,1.98,0,.65.65,0,0,1,.1.127l1.47,2.47a.65.65,0,0,1,.091.332v8a.65.65,0,0,1-.649.65L2.6,38.68h0M16.65,9.694V16.35h6.656a.847.847,0,0,0-.2-.33L16.98,9.9a.847.847,0,0,0-.33-.2M1.5,9H14v8.5A1.5,1.5,0,0,0,15.5,19H24V39.5A1.5,1.5,0,0,1,22.5,41H1.5A1.5,1.5,0,0,1,0,39.5v-29A1.5,1.5,0,0,1,1.5,9ZM2.6,38.03,21.034,38V30l-1.47-2.47a.75.75,0,0,0-1.061,0L12.034,35l-3.47-2.47a2.456,2.456,0,0,0-2.03-.03L2.634,35ZM16,9h.379a1.5,1.5,0,0,1,1.061.439l6.121,6.121A1.5,1.5,0,0,1,24,16.621V17H16Z" transform="translate(4.357 -9)" fill="#1f5300"/></g></svg>