<svg xmlns="http://www.w3.org/2000/svg" xmlns:xlink="http://www.w3.org/1999/xlink" width="32" height="32" viewBox="0 0 32 32"><defs><linearGradient id="a" x1="0.5" x2="0.5" y2="1" gradientUnits="objectBoundingBox"><stop offset="0" stop-color="#b400e1"/><stop offset="1" stop-color="#8000a0"/></linearGradient><clipPath id="c"><rect width="32" height="32"/></clipPath></defs><g id="b" clip-path="url(#c)"><rect width="21" height="20" transform="translate(6 11)" fill="#fff"/><path d="M22.5,41H1.5A1.5,1.5,0,0,1,0,39.5v-29A1.5,1.5,0,0,1,1.5,9H14v8.5A1.5,1.5,0,0,0,15.5,19H24V39.5A1.5,1.5,0,0,1,22.5,41ZM18.387,21h0a.466.466,0,0,0-.092.01l-5.182,1-.1.02-.147.029-4.4.852a.424.424,0,0,0-.386.382v9.7a1.29,1.29,0,0,1-.114.557,1.268,1.268,0,0,1-.767.6c-.142.048-.333.091-.553.141l-.072.016C5.431,34.57,3.51,35,3.51,36.78A2.178,2.178,0,0,0,5.5,39.044l.031,0a2.1,2.1,0,0,0,.308.029,5.9,5.9,0,0,0,2.44-.629,2.563,2.563,0,0,0,1.148-2.277V28.059c0-.195.132-.608.305-.641l7.242-1.463a.392.392,0,0,1,.077-.008.38.38,0,0,1,.38.379V30.82a1.365,1.365,0,0,1-.119.639,1.266,1.266,0,0,1-.772.6c-.108.036-.268.07-.437.106l-.234.051c-1.148.257-3.069.688-3.069,2.463a2.184,2.184,0,0,0,1.992,2.3c.112.007.2.01.29.01a4.193,4.193,0,0,0,.634-.053,5.5,5.5,0,0,0,1.74-.619,2.518,2.518,0,0,0,1.31-2.3V21.376A.375.375,0,0,0,18.387,21ZM24,17H16V9h.379a1.493,1.493,0,0,1,1.06.439l6.121,6.122a1.507,1.507,0,0,1,.44,1.06V17Z" transform="translate(4.357 -9)" fill="url(#a)"/><path d="M22.5,40.35a.851.851,0,0,0,.85-.85V19.65H15.5A2.152,2.152,0,0,1,13.35,17.5V9.65H1.5a.851.851,0,0,0-.85.85v29a.851.851,0,0,0,.85.85h21M5.409,39.688A2.829,2.829,0,0,1,2.86,36.78c0-2.3,2.415-2.842,3.574-3.1l.072-.016c.2-.046.378-.086.489-.123l0,0a.609.609,0,0,0,.392-.286.677.677,0,0,0,.042-.259V23.3a1.054,1.054,0,0,1,.915-1.02l4.392-.852.248-.048,5.182-1a1.125,1.125,0,0,1,.175-.021.653.653,0,0,1,.084,0,1.025,1.025,0,0,1,.982,1.008q0,.008,0,.017v12.65a3.176,3.176,0,0,1-1.636,2.86,6.126,6.126,0,0,1-1.969.7,4.8,4.8,0,0,1-.729.06c-.1,0-.2,0-.334-.011a2.822,2.822,0,0,1-2.6-2.95c0-2.3,2.416-2.837,3.574-3.1l.243-.053c.138-.029.294-.063.367-.087l.005,0a.607.607,0,0,0,.395-.285.833.833,0,0,0,.046-.341V26.657L10.084,28.01a.381.381,0,0,0-.011.056v8.106A3.242,3.242,0,0,1,8.63,38.992a6.559,6.559,0,0,1-2.795.735,2.7,2.7,0,0,1-.4-.036l-.024,0m17.9-23.338a.853.853,0,0,0-.2-.33L16.98,9.9a.853.853,0,0,0-.33-.205V16.35h6.655M22.5,41H1.5A1.5,1.5,0,0,1,0,39.5v-29A1.5,1.5,0,0,1,1.5,9H14v8.5A1.5,1.5,0,0,0,15.5,19H24V39.5A1.5,1.5,0,0,1,22.5,41ZM18.387,21h0a.466.466,0,0,0-.092.01l-5.182,1-.248.048-4.4.852a.424.424,0,0,0-.386.382v9.7a1.29,1.29,0,0,1-.114.557,1.268,1.268,0,0,1-.767.6c-.142.048-.333.091-.553.141l-.072.016C5.431,34.57,3.51,35,3.51,36.78A2.178,2.178,0,0,0,5.5,39.044l.031,0a2.1,2.1,0,0,0,.308.029,5.9,5.9,0,0,0,2.44-.629,2.563,2.563,0,0,0,1.148-2.277V28.059c0-.195.132-.608.305-.641l7.242-1.463a.392.392,0,0,1,.077-.008.38.38,0,0,1,.38.379V30.82a1.365,1.365,0,0,1-.119.639,1.266,1.266,0,0,1-.772.6c-.108.036-.268.07-.437.106l-.234.051c-1.148.257-3.069.688-3.069,2.463a2.184,2.184,0,0,0,1.992,2.3c.112.007.2.01.29.01a4.193,4.193,0,0,0,.634-.053,5.5,5.5,0,0,0,1.74-.619,2.518,2.518,0,0,0,1.31-2.3V21.376A.375.375,0,0,0,18.387,21ZM24,17H16V9h.379a1.493,1.493,0,0,1,1.06.439l6.121,6.122a1.507,1.507,0,0,1,.44,1.06Z" transform="translate(4.357 -9)" fill="#470059"/></g></svg>