<svg xmlns="http://www.w3.org/2000/svg" xmlns:xlink="http://www.w3.org/1999/xlink" width="1024" height="1024" viewBox="0 0 1024 1024"><defs><clipPath id="b"><rect width="1024" height="1024"/></clipPath></defs><g id="a" clip-path="url(#b)"><path d="M1024,527.007v329.4q0,26.759-18.991,46.308t-44.987,19.549H64.01q-26,0-44.987-19.549T.031,856.411v-329.4q0-26.759,18.991-46.308T64.01,461.15q-26,0-44.987-19.051T.031,395.263V65.858Q.031,39.1,19.022,19.55T64.01,0H960.024q26,0,44.987,19.549T1024,65.858v329.4q0,27.785-18.991,46.836T960.024,461.15q26.992,0,45.5,19.051t18.507,46.836ZM863.985,790.525q13.012,0,22.494-9.789a32.942,32.942,0,0,0,0-46.308q-9.538-9.789-22.494-9.789t-22.494,9.789a32.942,32.942,0,0,0,0,46.308Q850.973,790.525,863.985,790.525Zm-608.011-115.3a16.289,16.289,0,0,0-4.5-11.841,15.342,15.342,0,0,0-11.5-4.631H191.967V609.336a16.289,16.289,0,0,0-4.5-11.841,15.343,15.343,0,0,0-11.5-4.631h-32a15.342,15.342,0,0,0-11.5,4.631,16.289,16.289,0,0,0-4.5,11.841v49.415H79.955a15.342,15.342,0,0,0-11.5,4.631,16.289,16.289,0,0,0-4.5,11.841v32.943a16.289,16.289,0,0,0,4.5,11.841,15.342,15.342,0,0,0,11.5,4.631H127.96v49.415a16.29,16.29,0,0,0,4.5,11.841,15.343,15.343,0,0,0,11.5,4.631h32a15.343,15.343,0,0,0,11.5-4.631,16.29,16.29,0,0,0,4.5-11.841V724.638h48.005a15.342,15.342,0,0,0,11.5-4.631,16.289,16.289,0,0,0,4.5-11.841ZM704,98.773a32.052,32.052,0,0,0-9.51-23.154q-9.51-9.76-22.494-9.789H351.985q-13.012,0-22.494,9.789a32.271,32.271,0,0,0-9.51,23.154V362.29a32.052,32.052,0,0,0,9.51,23.154q9.51,9.76,22.494,9.789H671.992q13.012,0,22.494-9.789A32.271,32.271,0,0,0,704,362.29V98.8Zm0,461.178a32.053,32.053,0,0,0-9.51-23.154q-9.51-9.76-22.494-9.789H351.985q-13.012,0-22.494,9.789a32.271,32.271,0,0,0-9.51,23.154V823.468a32.052,32.052,0,0,0,9.51,23.154q9.51,9.76,22.494,9.789H671.992q13.012,0,22.494-9.789A32.271,32.271,0,0,0,704,823.468V559.951Zm96.011,98.83q-13.012,0-22.494,9.789a32.942,32.942,0,0,0,0,46.308q9.538,9.789,22.494,9.789t22.494-9.789a32.942,32.942,0,0,0,0-46.308Q813.018,658.781,800.006,658.781Zm64.007-65.887q-13.012,0-22.494,9.789a32.942,32.942,0,0,0,0,46.308q9.538,9.789,22.494,9.789t22.494-9.789a32.942,32.942,0,0,0,0-46.308Q877.025,592.894,864.013,592.894Zm64.007,65.887q-13.012,0-22.494,9.789a32.942,32.942,0,0,0,0,46.308q9.539,9.789,22.494,9.789t22.494-9.789a32.942,32.942,0,0,0,0-46.308Q941.032,658.781,928.02,658.781Z" transform="translate(-0.031 50.865)" fill="#88c224"/></g></svg>