<svg xmlns="http://www.w3.org/2000/svg" xmlns:xlink="http://www.w3.org/1999/xlink" width="1024" height="1024" viewBox="0 0 1024 1024"><defs><clipPath id="b"><rect width="1024" height="1024"/></clipPath></defs><g id="a" clip-path="url(#b)"><path d="M1015.666,344.784l-40.231-40.231a28.445,28.445,0,0,0-40.231,0L915.1,324.66l-51.378-51.378c10.009-37.885.64-79.823-29.067-109.53L754.206,83.307c-111.076-111.076-291.184-111.076-402.278,0l160.908,80.445v33.334a113.714,113.714,0,0,0,33.333,80.445l87.361,87.361c29.707,29.707,71.645,39.076,109.529,29.067l51.378,51.378-20.107,20.107a28.445,28.445,0,0,0,0,40.231l40.231,40.231a28.445,28.445,0,0,0,40.231,0L1015.7,385a28.456,28.456,0,0,0-.036-40.214ZM505.938,317.762a172.533,172.533,0,0,1-17.511-21.245L34.913,719.933A109.934,109.934,0,1,0,190.292,875.312l423.345-453.46c-7.04-5.173-14.044-10.436-20.338-16.729l-87.36-87.361Z" transform="translate(-0.003 56.883)" fill="#88c224"/><path d="M312.325,210.749A27.6,27.6,0,0,1,325.93,228.46a28.821,28.821,0,0,1-2.858,22.3L308.443,275.9A27.6,27.6,0,0,1,290.732,289.5a28.821,28.821,0,0,1-22.3-2.858l-60.8-34.974v70.172A29.679,29.679,0,0,1,178.379,351.1H149.121a29.679,29.679,0,0,1-29.259-29.259V251.672l-60.8,34.974A28.85,28.85,0,0,1,36.778,289.5,27.6,27.6,0,0,1,19.057,275.9L4.427,250.755A28.85,28.85,0,0,1,1.57,228.47a27.6,27.6,0,0,1,13.605-17.721l60.8-35.2-60.8-35.2A27.6,27.6,0,0,1,1.57,122.642a28.821,28.821,0,0,1,2.858-22.3L19.057,75.2A27.6,27.6,0,0,1,36.768,61.6a28.821,28.821,0,0,1,22.3,2.858l60.8,34.974V29.259a28.1,28.1,0,0,1,8.69-20.569A28.166,28.166,0,0,1,149.121,0h29.259a28.1,28.1,0,0,1,20.569,8.69,28.166,28.166,0,0,1,8.69,20.569V99.43l60.8-34.974A28.85,28.85,0,0,1,290.722,61.6,27.6,27.6,0,0,1,308.443,75.2l14.629,25.143a28.85,28.85,0,0,1,2.858,22.285,27.6,27.6,0,0,1-13.605,17.721l-60.8,35.2Z" transform="translate(511.487 589.897)" fill="#88c224"/></g></svg>