<svg xmlns="http://www.w3.org/2000/svg" xmlns:xlink="http://www.w3.org/1999/xlink" width="1024" height="1024" viewBox="0 0 1024 1024"><defs><clipPath id="b"><rect width="1024" height="1024"/></clipPath></defs><g id="a" clip-path="url(#b)"><path d="M1015.666,344.784l-40.231-40.231a28.445,28.445,0,0,0-40.231,0L915.1,324.66l-51.378-51.378c10.009-37.885.64-79.823-29.067-109.53L754.206,83.307c-111.076-111.076-291.184-111.076-402.278,0l160.908,80.445v33.334a113.714,113.714,0,0,0,33.333,80.445l87.361,87.361c29.707,29.707,71.645,39.076,109.529,29.067l51.378,51.378-20.107,20.107a28.445,28.445,0,0,0,0,40.231l40.231,40.231a28.445,28.445,0,0,0,40.231,0L1015.7,385a28.456,28.456,0,0,0-.036-40.214ZM505.938,317.762a172.533,172.533,0,0,1-17.511-21.245L34.913,719.933A109.934,109.934,0,1,0,190.292,875.312l423.345-453.46c-7.04-5.173-14.044-10.436-20.338-16.729l-87.36-87.361Z" transform="translate(-0.003 56.883)" fill="#88c224"/></g></svg>