<svg xmlns="http://www.w3.org/2000/svg" xmlns:xlink="http://www.w3.org/1999/xlink" width="1024" height="1024" viewBox="0 0 1024 1024"><defs><clipPath id="b"><rect width="1024" height="1024"/></clipPath></defs><g id="a" clip-path="url(#b)"><path d="M386.571,165.784a160,160,0,1,1,160,160,160,160,0,0,1-160-160Zm-384,0a160,160,0,1,1,160,160A160,160,0,0,1,2.571,165.784Zm768,320v-96a64.188,64.188,0,0,0-64-64h-640a64.188,64.188,0,0,0-64,64v320a64.188,64.188,0,0,0,64,64h640a64.188,64.188,0,0,0,64-64v-96l256,160v-448l-256,160Z" transform="translate(-2.571 122.216)" fill="#88c224"/></g></svg>