<svg xmlns="http://www.w3.org/2000/svg" xmlns:xlink="http://www.w3.org/1999/xlink" width="32" height="32" viewBox="0 0 32 32"><defs><linearGradient id="a" x1="0.5" x2="0.5" y2="1" gradientUnits="objectBoundingBox"><stop offset="0" stop-color="#25ba00"/><stop offset="1" stop-color="#296800"/></linearGradient><clipPath id="c"><rect width="32" height="32"/></clipPath></defs><g id="b" clip-path="url(#c)"><rect width="21" height="19" transform="translate(6 12)" fill="#fff"/><path d="M-72.14,31.351A.868.868,0,0,1-73,30.476V.875A.868.868,0,0,1-72.14,0H-60.2V8.02a2.179,2.179,0,0,0,2.165,2.188h7.914V30.476a.869.869,0,0,1-.86.875ZM-61.578,25.8l.869,2.2a1.209,1.209,0,0,0,1.2.833,1.217,1.217,0,0,0,1.184-.833l1.632-3.952a1.193,1.193,0,0,0,.048-.96.777.777,0,0,0-.8-.418,1.044,1.044,0,0,0-.568.169,1.214,1.214,0,0,0-.435.617l-1.064,2.828-1.111-2.984a1.058,1.058,0,0,0-.327-.472.9.9,0,0,0-.556-.157.877.877,0,0,0-.869.629l-1.1,2.924L-64.5,23.522a1.6,1.6,0,0,0-.441-.683,1,1,0,0,0-.61-.175.927.927,0,0,0-.882.4,1.04,1.04,0,0,0,.012.961l1.643,3.975a1.224,1.224,0,0,0,1.2.822,1.2,1.2,0,0,0,1.172-.858l.833-2.173v0Zm1.1-9.122c0,2.384,1.491,4.325,3.325,4.325s3.326-1.94,3.326-4.325-1.492-4.325-3.326-4.325S-60.475,14.29-60.475,16.675Zm-9,0c0,2.384,1.491,4.325,3.325,4.325s3.326-1.94,3.326-4.325-1.492-4.325-3.326-4.325S-69.475,14.29-69.475,16.675Zm12.325.5c0-.828.448-1.5,1-1.5s1,.671,1,1.5-.447,1.5-1,1.5S-57.15,18-57.15,17.175Zm-9,0c0-.828.448-1.5,1-1.5s1,.671,1,1.5-.447,1.5-1,1.5S-66.15,18-66.15,17.175ZM-50.162,6.853h-6.714V.044a.863.863,0,0,1,.337.211L-50.371,6.5a.872.872,0,0,1,.211.348h0Z" transform="translate(78.15 0.325)" fill="url(#a)"/><path d="M-50.977,31.676H-72.14a1.194,1.194,0,0,1-1.184-1.2V.875a1.194,1.194,0,0,1,1.184-1.2H-60.2A.325.325,0,0,1-59.871,0V8.02a1.853,1.853,0,0,0,1.84,1.863h7.914a.325.325,0,0,1,.325.325V30.476A1.194,1.194,0,0,1-50.977,31.676ZM-72.14.325a.543.543,0,0,0-.535.55v29.6a.543.543,0,0,0,.535.55h21.164a.543.543,0,0,0,.535-.55V10.533h-7.589A2.5,2.5,0,0,1-60.521,8.02V.325Zm12.628,28.827a1.527,1.527,0,0,1-1.5-1.037l-.564-1.426-.536,1.4a1.515,1.515,0,0,1-1.475,1.066,1.544,1.544,0,0,1-1.5-1.019l-1.644-3.976a1.345,1.345,0,0,1,.005-1.249,1.221,1.221,0,0,1,1.165-.569,1.314,1.314,0,0,1,.8.24,1.869,1.869,0,0,1,.548.822l0,.006.722,1.893.8-2.121a1.205,1.205,0,0,1,1.174-.84,1.212,1.212,0,0,1,.753.224,1.374,1.374,0,0,1,.433.612l.81,2.175.758-2.015a1.524,1.524,0,0,1,.563-.775,1.363,1.363,0,0,1,.744-.221,1.072,1.072,0,0,1,1.1.613,1.5,1.5,0,0,1-.046,1.216l-1.631,3.95A1.538,1.538,0,0,1-59.513,29.152Zm-1.761-3.468.867,2.19a.887.887,0,0,0,.894.628.9.9,0,0,0,.885-.635L-57,23.918a.889.889,0,0,0,.05-.706c-.027-.062-.1-.223-.5-.223a.722.722,0,0,0-.393.118.926.926,0,0,0-.305.457l-1.064,2.828a.326.326,0,0,1-.3.211.325.325,0,0,1-.3-.212l-1.111-2.984a.749.749,0,0,0-.219-.326.6.6,0,0,0-.359-.091.558.558,0,0,0-.566.421l-1.1,2.922a.324.324,0,0,1-.3.211.325.325,0,0,1-.3-.209l-1.026-2.691a1.263,1.263,0,0,0-.332-.541.687.687,0,0,0-.417-.112c-.463,0-.566.181-.6.24a.729.729,0,0,0,.027.672l0,.005,1.643,3.975a.9.9,0,0,0,.9.621.877.877,0,0,0,.869-.652l.832-2.17a.327.327,0,0,1,.3-.21A.324.324,0,0,1-61.273,25.684Zm4.123-4.359c-2.012,0-3.65-2.086-3.65-4.649s1.637-4.65,3.65-4.65,3.651,2.086,3.651,4.65S-55.137,21.325-57.15,21.325Zm0-8.65c-1.654,0-3,1.795-3,4s1.346,4,3,4,3-1.794,3-4S-55.5,12.675-57.15,12.675Zm-9,8.65c-2.012,0-3.65-2.086-3.65-4.649s1.637-4.65,3.65-4.65,3.651,2.086,3.651,4.65S-64.137,21.325-66.15,21.325Zm0-8.65c-1.654,0-3,1.795-3,4s1.346,4,3,4,3-1.794,3-4S-64.5,12.675-66.15,12.675Zm10,6.325c-.743,0-1.325-.8-1.325-1.825s.582-1.824,1.325-1.824,1.325.8,1.325,1.824S-55.407,19-56.15,19Zm0-3c-.319,0-.675.482-.675,1.174s.356,1.175.675,1.175.675-.483.675-1.175S-55.831,16-56.15,16Zm-9,3c-.743,0-1.325-.8-1.325-1.825s.582-1.824,1.325-1.824,1.325.8,1.325,1.824S-64.407,19-65.15,19Zm0-3c-.319,0-.675.482-.675,1.174s.356,1.175.675,1.175.675-.483.675-1.175S-64.831,16-65.15,16Zm14.99-8.823h-6.716a.325.325,0,0,1-.325-.325V.044a.325.325,0,0,1,.136-.264.325.325,0,0,1,.294-.044,1.187,1.187,0,0,1,.462.289l6.169,6.25a1.2,1.2,0,0,1,.286.469.325.325,0,0,1-.006.232A.325.325,0,0,1-50.16,7.178Zm-6.391-.65H-50.8L-56.551.706Z" transform="translate(78.15 0.325)" fill="#1f5300"/></g></svg>