<svg xmlns="http://www.w3.org/2000/svg" xmlns:xlink="http://www.w3.org/1999/xlink" width="32" height="32" viewBox="0 0 32 32"><defs><linearGradient id="a" x1="0.5" x2="0.5" y2="1" gradientUnits="objectBoundingBox"><stop offset="0" stop-color="#f33"/><stop offset="1" stop-color="#890000"/></linearGradient><clipPath id="c"><rect width="32" height="32"/></clipPath></defs><g id="b" clip-path="url(#c)"><rect width="21" height="19" transform="translate(6 11)" fill="#fff"/><path d="M-107.5-81a1.5,1.5,0,0,1-1.5-1.5v-29a1.5,1.5,0,0,1,1.5-1.5H-95v8.5a1.5,1.5,0,0,0,1.5,1.5H-85v20.5A1.5,1.5,0,0,1-86.5-81ZM-95-90v2a2,2,0,0,0,2,2,2,2,0,0,0,2-2v-2a2,2,0,0,0-2-2A2,2,0,0,0-95-90Zm-8,0v2a2,2,0,0,0,2,2,2,2,0,0,0,2-2v-.5a1.5,1.5,0,0,1-1.5,1.5,1.5,1.5,0,0,1-1.5-1.5,1.5,1.5,0,0,1,1.5-1.5A1.5,1.5,0,0,1-99-88.5V-90a2,2,0,0,0-2-2A2,2,0,0,0-103-90Zm12-4a1,1,0,0,1,1,1,2,2,0,0,0,2-2v-1a2,2,0,0,0-2-2h-14a2,2,0,0,0-1.823,1.177L-104.5-95.5l-1.323,1.323A2,2,0,0,0-104-93a1,1,0,0,1,1-1Zm-4,5.5A1.5,1.5,0,0,1-93.5-90,1.5,1.5,0,0,1-92-88.5,1.5,1.5,0,0,1-93.5-87,1.5,1.5,0,0,1-95-88.5ZM-85-105h-8v-8h.379a1.5,1.5,0,0,1,1.06.439l6.121,6.122a1.508,1.508,0,0,1,.44,1.06V-105h0Z" transform="translate(113 113)" fill="url(#a)"/><path d="M-86.5-81.65a.851.851,0,0,0,.85-.85v-19.85H-93.5a2.152,2.152,0,0,1-2.149-2.15v-7.85H-107.5a.851.851,0,0,0-.85.85v29a.851.851,0,0,0,.85.85h21m-6.5-11A2.653,2.653,0,0,1-90.35-90v2A2.653,2.653,0,0,1-93-85.35,2.653,2.653,0,0,1-95.65-88v-2A2.653,2.653,0,0,1-93-92.65m-8,0A2.653,2.653,0,0,1-98.35-90v2A2.653,2.653,0,0,1-101-85.35,2.653,2.653,0,0,1-103.65-88v-2A2.653,2.653,0,0,1-101-92.65m-2-.7a.35.35,0,0,0-.35.35.65.65,0,0,1-.65.65,2.658,2.658,0,0,1-2.415-1.558.65.65,0,0,1,.132-.728l.863-.864-.864-.864a.65.65,0,0,1-.132-.728A2.658,2.658,0,0,1-104-98.65h14A2.653,2.653,0,0,1-87.35-96v1A2.653,2.653,0,0,1-90-92.35a.65.65,0,0,1-.65-.65.35.35,0,0,0-.35-.35h-12m9.5,5.7a.851.851,0,0,0,.85-.849.851.851,0,0,0-.85-.85.851.851,0,0,0-.849.85.85.85,0,0,0,.849.849m-7,0a.85.85,0,0,0,.849-.849.851.851,0,0,0-.849-.85.851.851,0,0,0-.85.85.851.851,0,0,0,.85.849m14.8-18a.853.853,0,0,0-.2-.329l-6.119-6.12a.86.86,0,0,0-.331-.206v6.656h6.655M-86.5-81h-21a1.5,1.5,0,0,1-1.5-1.5v-29a1.5,1.5,0,0,1,1.5-1.5H-95v8.5a1.5,1.5,0,0,0,1.5,1.5H-85v20.5A1.5,1.5,0,0,1-86.5-81ZM-93-92a2,2,0,0,0-2,2v2a2,2,0,0,0,2,2,2,2,0,0,0,2-2v-2A2,2,0,0,0-93-92Zm-8,0a2,2,0,0,0-2,2v2a2,2,0,0,0,2,2,2,2,0,0,0,2-2v-2A2,2,0,0,0-101-92Zm-2-2h12a1,1,0,0,1,1,1,2,2,0,0,0,2-2v-1a2,2,0,0,0-2-2h-14a2,2,0,0,0-1.823,1.177L-104.5-95.5l-1.323,1.323A2,2,0,0,0-104-93,1,1,0,0,1-103-94Zm9.5,7A1.5,1.5,0,0,1-95-88.5,1.5,1.5,0,0,1-93.5-90,1.5,1.5,0,0,1-92-88.5,1.5,1.5,0,0,1-93.5-87Zm-7,0a1.5,1.5,0,0,1-1.5-1.5,1.5,1.5,0,0,1,1.5-1.5A1.5,1.5,0,0,1-99-88.5,1.5,1.5,0,0,1-100.5-87ZM-85-105h-8v-8h.379a1.5,1.5,0,0,1,1.06.439l6.121,6.122a1.508,1.508,0,0,1,.44,1.06Z" transform="translate(113 113)" fill="#3b0b0b"/></g></svg>