<svg xmlns="http://www.w3.org/2000/svg" xmlns:xlink="http://www.w3.org/1999/xlink" width="32" height="32" viewBox="0 0 32 32"><defs><linearGradient id="a" x1="0.5" x2="0.5" y2="1" gradientUnits="objectBoundingBox"><stop offset="0" stop-color="#ba8f00"/><stop offset="1" stop-color="#705600"/></linearGradient><clipPath id="c"><rect width="32" height="32"/></clipPath></defs><g id="b" clip-path="url(#c)"><rect width="21" height="19" transform="translate(6 12)" fill="#fff"/><rect width="10" height="23" transform="translate(6 8)" fill="#fff"/><path d="M22.5,41H1.5A1.5,1.5,0,0,1,0,39.5v-29A1.5,1.5,0,0,1,1.5,9H14v8.5A1.5,1.5,0,0,0,15.5,19H24V39.5A1.5,1.5,0,0,1,22.5,41Zm-7.325-5.812a.636.636,0,0,0-.635.635v.635l-.918.459a.633.633,0,0,0-.352.568v.877a.636.636,0,0,0,.635.635h7.619a.636.636,0,0,0,.635-.635v-.877a.632.632,0,0,0-.351-.568l-.919-.459v-.635a.636.636,0,0,0-.635-.635Zm-11.43,0a.636.636,0,0,0-.635.635v.635l-.919.459a.632.632,0,0,0-.351.568v.877A.636.636,0,0,0,2.475,39h8.89A.636.636,0,0,0,12,38.363v-.877a.632.632,0,0,0-.351-.568l-.919-.459v-.635a.636.636,0,0,0-.634-.635Zm10.4-8.889a.239.239,0,0,0-.238.239v2.326a1.27,1.27,0,0,0,.451.968l.975.825L15.2,33.918h5.029L20.1,30.656l.977-.824a1.268,1.268,0,0,0,.449-.971V26.537a.238.238,0,0,0-.238-.239H20.239a.238.238,0,0,0-.238.239v1.031h-.981V26.537a.238.238,0,0,0-.238-.239H16.647a.239.239,0,0,0-.238.239v1.031h-.98V26.537a.239.239,0,0,0-.238-.239Zm-9.763.635a.636.636,0,0,0-.635.634V28.2a.636.636,0,0,0,.635.635h.633a21.261,21.261,0,0,1-.633,5.08H9.46a21.265,21.265,0,0,1-.633-5.08H9.46A.636.636,0,0,0,10.1,28.2v-.635a.636.636,0,0,0-.635-.634h-.4l1.345-3.587a.635.635,0,0,0-.6-.858H7.556v-1.27h.952a.318.318,0,0,0,.318-.318v-.635a.318.318,0,0,0-.318-.317H7.556V19a.318.318,0,0,0-.318-.317H6.6A.317.317,0,0,0,6.286,19v.953H5.333a.318.318,0,0,0-.318.317V20.9a.318.318,0,0,0,.318.318h.953v1.27H4.027a.635.635,0,0,0-.595.858l1.345,3.587Zm13.97,5.08H17.08v-1.27a.635.635,0,1,1,1.27,0v1.269ZM24,17H16V9h.379a1.493,1.493,0,0,1,1.06.439l6.121,6.122a1.507,1.507,0,0,1,.44,1.06V17Z" transform="translate(4.357 -9)" fill="url(#a)"/><path d="M22.5,40.35a.851.851,0,0,0,.85-.85V19.65H15.5A2.152,2.152,0,0,1,13.35,17.5V9.65H1.5a.851.851,0,0,0-.85.85v29a.851.851,0,0,0,.85.85h21m-9.865-1.79a1.287,1.287,0,0,1-1.269,1.088H2.475a1.286,1.286,0,0,1-1.284-1.285v-.877A1.28,1.28,0,0,1,1.9,36.337l.559-.279v-.234a1.286,1.286,0,0,1,1.285-1.285h.44a.65.65,0,0,1-.435-.777,20.613,20.613,0,0,0,.6-4.272A1.286,1.286,0,0,1,3.095,28.2v-.635a1.287,1.287,0,0,1,.783-1.182l-1.054-2.81a1.285,1.285,0,0,1,1.2-1.737H5.093a.969.969,0,0,1-.728-.938v-.635a.968.968,0,0,1,.968-.967h.3V19A.968.968,0,0,1,6.6,18.03h.635A.968.968,0,0,1,8.206,19v.3h.3a.968.968,0,0,1,.968.967V20.9a.969.969,0,0,1-.728.938H9.813a1.285,1.285,0,0,1,1.2,1.736L9.963,26.387a1.287,1.287,0,0,1,.783,1.182V28.2A1.286,1.286,0,0,1,9.49,29.488a20.616,20.616,0,0,0,.6,4.272.65.65,0,0,1-.435.777h.44a1.286,1.286,0,0,1,1.285,1.285v.234l.561.28a1.278,1.278,0,0,1,.694.951,1.28,1.28,0,0,1,.7-.952l.559-.279v-.234a1.287,1.287,0,0,1,1.142-1.277.65.65,0,0,1-.481-.654l.118-2.945-.732-.62a1.92,1.92,0,0,1-.681-1.465V26.537a.89.89,0,0,1,.888-.889H15.19a.888.888,0,0,1,.729.38.888.888,0,0,1,.729-.38h2.136a.887.887,0,0,1,.728.381.887.887,0,0,1,.728-.381h1.048a.889.889,0,0,1,.888.889v2.321a1.917,1.917,0,0,1-.68,1.469l-.734.619.118,2.945a.65.65,0,0,1-.481.654,1.287,1.287,0,0,1,1.142,1.277v.234l.561.28a1.279,1.279,0,0,1,.709,1.149v.877a1.287,1.287,0,0,1-1.285,1.285H13.905a1.287,1.287,0,0,1-1.27-1.088M23.305,16.35a.853.853,0,0,0-.2-.33L16.98,9.9a.853.853,0,0,0-.33-.205V16.35h6.655M22.5,41H1.5A1.5,1.5,0,0,1,0,39.5v-29A1.5,1.5,0,0,1,1.5,9H14v8.5A1.5,1.5,0,0,0,15.5,19H24V39.5A1.5,1.5,0,0,1,22.5,41Zm-7.325-5.812a.636.636,0,0,0-.635.635v.635l-.918.459a.633.633,0,0,0-.352.568v.877a.636.636,0,0,0,.635.635h7.619a.636.636,0,0,0,.635-.635v-.877a.632.632,0,0,0-.351-.568l-.919-.459v-.635a.636.636,0,0,0-.635-.635Zm-11.43,0a.636.636,0,0,0-.635.635v.635l-.919.459a.632.632,0,0,0-.351.568v.877A.636.636,0,0,0,2.475,39h8.89A.636.636,0,0,0,12,38.363v-.877a.632.632,0,0,0-.351-.568l-.919-.459v-.635a.636.636,0,0,0-.634-.635Zm16.484-1.27-.13-3.263.977-.824a1.268,1.268,0,0,0,.449-.971V26.537a.238.238,0,0,0-.238-.239H20.239a.238.238,0,0,0-.238.239v1.031h-.981V26.537a.238.238,0,0,0-.238-.239H16.647a.239.239,0,0,0-.238.239v1.031h-.98V26.537a.239.239,0,0,0-.238-.239H14.144a.239.239,0,0,0-.238.239v2.326a1.27,1.27,0,0,0,.451.968l.975.825-.13,3.262Zm-10.769,0a21.265,21.265,0,0,1-.633-5.08H9.46A.636.636,0,0,0,10.1,28.2v-.635a.636.636,0,0,0-.635-.635h-.4l1.345-3.587a.635.635,0,0,0-.6-.858H7.556v-1.27h.952a.318.318,0,0,0,.318-.318v-.635a.318.318,0,0,0-.318-.317H7.556V19a.318.318,0,0,0-.318-.317H6.6A.317.317,0,0,0,6.286,19v.953H5.333a.318.318,0,0,0-.318.317V20.9a.318.318,0,0,0,.318.318h.953v1.27H4.027a.635.635,0,0,0-.595.858l1.345,3.587h-.4a.636.636,0,0,0-.635.635V28.2a.636.636,0,0,0,.635.634h.633a21.261,21.261,0,0,1-.633,5.08Zm8.89-1.9H17.08v-1.27a.635.635,0,1,1,1.27,0ZM24,17H16V9h.379a1.493,1.493,0,0,1,1.06.439l6.121,6.122a1.507,1.507,0,0,1,.44,1.06Z" transform="translate(4.357 -9)" fill="#4e3c00"/></g></svg>