<svg xmlns="http://www.w3.org/2000/svg" xmlns:xlink="http://www.w3.org/1999/xlink" width="1024" height="1024" viewBox="0 0 1024 1024"><defs><clipPath id="b"><rect width="1024" height="1024"/></clipPath></defs><g id="a" clip-path="url(#b)"><path d="M8171.977,1400.376a503.521,503.521,0,0,0-21.024,69.38c-8.41,37.844-54.664,12.615-54.664,12.615s5.666-310.134,12.615-327.979-86.2-35.741-124.044-119.839-42.049-285.931,145.068-330.082,218.085,75.339,236.205,111.013c16.987,131.935-32.843,140.429-63.806,244.3-26.793,49.018-58.492,41.089-63.028,58.077s-8.455,38.635,52.516,51.25,6.308,67.278-23.127,54.663,48.356,103.019-10.512,290.135c0,4.2,42.049,16.819,33.639,29.434s-84.1,31.536-81.994,12.615-23.127-159.785-37.844-155.58" transform="translate(-7654.802 -617.386)" fill="#00c4f5"/></g></svg>