<svg xmlns="http://www.w3.org/2000/svg" xmlns:xlink="http://www.w3.org/1999/xlink" width="1024" height="1024" viewBox="0 0 1024 1024"><defs><clipPath id="b"><rect width="1024" height="1024"/></clipPath></defs><g id="a" clip-path="url(#b)"><path d="M8165.155,242c-27.332,94.609-37.844,111.429-48.356,157.682s-25.229,42.049-25.229,42.049-33.639-8.41-27.331-42.049,12.614-199.731,12.614-199.731-10.512-2.1-12.614-27.332-10.513-100.917,27.331-187.116c6.308,0-199.73-128.248-153.478-292.238s172.4-210.243,258.6-182.912,155.58,117.736,168.194,182.912-18.922,168.195-58.868,212.346-71.482,79.892-71.482,79.892,84.1,39.946,63.073,81.995,0,105.122,0,105.122-14.718,12.615-25.229,27.332-14.717,92.507-23.127,113.531S8282.89,328.2,8282.89,328.2s16.82,44.151-18.922,42.049S8196.69,328.2,8196.69,328.2s-14.716-94.609-12.614-103.019S8165.155,242,8165.155,242Z" transform="translate(-7637.511 539.58)" fill="#00c4f5"/></g></svg>