<svg xmlns="http://www.w3.org/2000/svg" xmlns:xlink="http://www.w3.org/1999/xlink" width="1024" height="1024" viewBox="0 0 1024 1024"><defs><clipPath id="b"><rect width="1024" height="1024"/></clipPath></defs><g id="a" clip-path="url(#b)"><path d="M8133.869,242c27.331,94.609,37.844,111.429,48.355,157.682s25.229,42.049,25.229,42.049,33.639-8.41,27.331-42.049-12.614-199.731-12.614-199.731,10.513-2.1,12.614-27.332S8245.3,71.707,8207.453-14.492c-6.308,0,199.73-128.248,153.478-292.238s-172.4-210.243-258.6-182.912S7946.752-371.906,7934.137-306.73s18.922,168.195,58.868,212.346,71.482,79.892,71.482,79.892-84.1,39.946-63.072,81.995,0,105.122,0,105.122,14.717,12.615,25.229,27.332,14.718,92.507,23.127,113.531-33.639,14.717-33.639,14.717-16.819,44.151,18.922,42.049,67.277-42.049,67.277-42.049,14.718-94.609,12.615-103.019S8133.869,242,8133.869,242Z" transform="translate(-7637.512 539.58)" fill="#00c4f5"/></g></svg>