<svg xmlns="http://www.w3.org/2000/svg" xmlns:xlink="http://www.w3.org/1999/xlink" width="32" height="32" viewBox="0 0 32 32"><defs><linearGradient id="a" x1="0.5" x2="0.5" y2="1" gradientUnits="objectBoundingBox"><stop offset="0" stop-color="#50cbff"/><stop offset="1" stop-color="#2c708d"/></linearGradient><clipPath id="c"><rect width="32" height="32"/></clipPath></defs><g id="b" clip-path="url(#c)"><rect width="12" height="23" transform="translate(6 8)" fill="#fff"/><rect width="13" height="20" transform="translate(6 11)" fill="#fff"/><path d="M-122.652,32h-21.163A1.193,1.193,0,0,1-145,30.8V1.2A1.193,1.193,0,0,1-143.816,0h12.27V8.345a1.854,1.854,0,0,0,1.84,1.863h8.239V30.8A1.193,1.193,0,0,1-122.652,32Zm-14.161-5.391c.4,0,1.013,1.061,1.606,2.086l.008.013c.491.845.954,1.644,1.229,1.7a.738.738,0,0,0,.158.018.645.645,0,0,0,.6-.429.28.28,0,0,0-.051-.321c-.246-.19-1.325-2.713-1.091-3.614.244-.942-.444-4.13-.854-4.438a.6.6,0,0,1-.212-.527,1.132,1.132,0,0,1,.449-.845,3.91,3.91,0,0,0,1.471-2.562,10.7,10.7,0,0,1,1.326-3.437c0,.088.161.363.377.363.133,0,.332-.11.527-.632.465-1.248-1.589-2.977-2.23-3.478a5.1,5.1,0,0,0-3.036-1.236c-.088-.007-.174-.01-.255-.01a5.642,5.642,0,0,0-2.384.689l-.053.024c-.19.086-.385.175-.582.258A5.139,5.139,0,0,0-142.7,13.3a3.183,3.183,0,0,0,.1,2.971,3.556,3.556,0,0,1,.234.6,7.18,7.18,0,0,0,1.651,2.232l.069.074c.118.126.229.246.32.348a5.553,5.553,0,0,0,1.537.95l.007,0c.275.133.474.229.465.266,0,.011-.024.016-.065.016-.426,0-.569.228-.759.869-.043.144-.127.486-.233.919a26.848,26.848,0,0,1-1.57,5.12c-.608.858.323,2,.332,2.013a1.076,1.076,0,0,0,.168.012.722.722,0,0,0,.524-.176.494.494,0,0,0,.114-.385c-.047-.665.862-1.08.9-1.1a7.519,7.519,0,0,1,2.041-1.419A.189.189,0,0,1-136.814,26.609Zm-.075-8.638a.648.648,0,0,1-.637-.657.648.648,0,0,1,.637-.657.648.648,0,0,1,.637.657A.648.648,0,0,1-136.888,17.971Zm2.549-.657a.648.648,0,0,1-.637-.657.648.648,0,0,1,.637-.657.648.648,0,0,1,.637.657A.648.648,0,0,1-134.339,17.314ZM-121.468,7.5h-7.408V0h.055a1.175,1.175,0,0,1,.837.351l6.169,6.249a1.2,1.2,0,0,1,.347.848V7.5Z" transform="translate(149.825 0)" fill="url(#a)"/><path d="M-122.652,31.35a.543.543,0,0,0,.534-.55V10.858h-7.589a2.5,2.5,0,0,1-2.49-2.513V.65h-11.62a.543.543,0,0,0-.534.55V30.8a.543.543,0,0,0,.534.55h21.163m-14.22-4.039a8.832,8.832,0,0,0-1.592,1.2.666.666,0,0,1-.174.115c-.255.116-.526.356-.519.462a1.125,1.125,0,0,1-.289.873,1.324,1.324,0,0,1-1,.381,1.469,1.469,0,0,1-.352-.038.65.65,0,0,1-.312-.2,2.4,2.4,0,0,1-.366-2.809,30.1,30.1,0,0,0,1.468-4.9c.112-.458.194-.789.241-.948a3.513,3.513,0,0,1,.227-.614,4.39,4.39,0,0,1-1.276-.875c-.086-.1-.195-.213-.31-.337l-.068-.073A7.059,7.059,0,0,1-143,17.024a3.154,3.154,0,0,0-.193-.481,3.829,3.829,0,0,1-.1-3.5,5.8,5.8,0,0,1,3.239-3.408c.189-.08.38-.166.565-.25l.051-.023a6.23,6.23,0,0,1,2.654-.748c.1,0,.2,0,.3.012A5.753,5.753,0,0,1-133.1,10c1.16.906,3.02,2.659,2.439,4.218-.262.7-.644,1.054-1.136,1.054a.923.923,0,0,1-.187-.019,9.126,9.126,0,0,0-.868,2.493,4.528,4.528,0,0,1-1.778,3.066.56.56,0,0,0-.141.324s0,.008,0,.012c.16.135.512.551.873,2.336a7.939,7.939,0,0,1,.174,2.749,3.7,3.7,0,0,0,.306,1.571,7.95,7.95,0,0,0,.611,1.416.928.928,0,0,1,.21,1,1.3,1.3,0,0,1-1.219.867,1.391,1.391,0,0,1-.3-.033c-.531-.118-.89-.7-1.65-2.013l-.008-.014a13.041,13.041,0,0,0-1.1-1.71m14.393-20.459-5.747-5.821V6.852h5.747M-122.652,32h-21.163A1.193,1.193,0,0,1-145,30.8V1.2A1.193,1.193,0,0,1-143.816,0h12.27V8.345a1.854,1.854,0,0,0,1.84,1.863h8.239V30.8A1.193,1.193,0,0,1-122.652,32Zm-14.161-5.391c.4,0,1.013,1.061,1.606,2.086l.008.013c.491.845.954,1.644,1.229,1.7a.738.738,0,0,0,.158.018.645.645,0,0,0,.6-.429.28.28,0,0,0-.051-.321c-.246-.19-1.325-2.713-1.091-3.614.244-.942-.444-4.13-.854-4.438a.6.6,0,0,1-.212-.527,1.132,1.132,0,0,1,.449-.845,3.91,3.91,0,0,0,1.471-2.562,10.7,10.7,0,0,1,1.326-3.437c0,.088.161.363.377.363.133,0,.332-.11.527-.632.465-1.248-1.589-2.977-2.23-3.478a5.1,5.1,0,0,0-3.036-1.236c-.088-.007-.174-.01-.255-.01a5.642,5.642,0,0,0-2.384.689l-.053.024c-.19.086-.385.175-.582.258A5.139,5.139,0,0,0-142.7,13.3a3.183,3.183,0,0,0,.1,2.971,3.556,3.556,0,0,1,.234.6,7.18,7.18,0,0,0,1.651,2.232l.069.074c.118.126.229.246.32.348a5.553,5.553,0,0,0,1.537.95l.007,0c.275.133.474.229.465.266,0,.011-.024.016-.065.016-.426,0-.569.228-.759.869-.043.145-.127.486-.233.919a26.848,26.848,0,0,1-1.57,5.12c-.608.858.323,2,.332,2.013a1.076,1.076,0,0,0,.168.012.722.722,0,0,0,.524-.176.494.494,0,0,0,.114-.385c-.047-.665.862-1.08.9-1.1a7.519,7.519,0,0,1,2.041-1.419A.189.189,0,0,1-136.814,26.609Zm-.075-8.638a.648.648,0,0,1-.637-.657.648.648,0,0,1,.637-.657.648.648,0,0,1,.637.657A.648.648,0,0,1-136.888,17.971Zm2.549-.657a.648.648,0,0,1-.637-.657.648.648,0,0,1,.637-.657.648.648,0,0,1,.637.657A.648.648,0,0,1-134.339,17.314ZM-121.468,7.5h-7.408V0h.055a1.175,1.175,0,0,1,.837.351l6.169,6.249a1.2,1.2,0,0,1,.347.848Z" transform="translate(149.825 0)" fill="#163e58"/></g></svg>