<svg xmlns="http://www.w3.org/2000/svg" xmlns:xlink="http://www.w3.org/1999/xlink" width="1024" height="1024" viewBox="0 0 1024 1024"><defs><clipPath id="b"><rect width="1024" height="1024"/></clipPath></defs><g id="a" clip-path="url(#b)"><path d="M-10020.945,1496.467h0a41.291,41.291,0,0,1-15.8-3.127,41.245,41.245,0,0,1-13.539-9.032l-126.883-126.9v54.92a54.966,54.966,0,0,1-4.344,21.527,55.354,55.354,0,0,1-5.1,9.395,55.725,55.725,0,0,1-6.751,8.185,55.762,55.762,0,0,1-8.184,6.754,55.319,55.319,0,0,1-9.394,5.1,54.939,54.939,0,0,1-21.523,4.347h-.01l-124.4-.011a54.942,54.942,0,0,1-21.52-4.347,55.319,55.319,0,0,1-9.392-5.1,55.71,55.71,0,0,1-8.183-6.752,55.8,55.8,0,0,1-6.752-8.184,55.413,55.413,0,0,1-5.1-9.393,54.982,54.982,0,0,1-4.348-21.523v-54.92l-126.8,126.813a41.236,41.236,0,0,1-13.54,9.035,41.287,41.287,0,0,1-15.8,3.127,41.521,41.521,0,0,1-9.5-1.1,41.571,41.571,0,0,1-18.454-9.731,41.567,41.567,0,0,1-11.381-17.485l-60.338-181.132a82.909,82.909,0,0,1-2.01-45.22,82.888,82.888,0,0,1,22.025-39.542l127.322-127.338c-4.185-18.712-7.595-37.012-10.135-54.392-2.706-18.51-4.527-36.68-5.414-54a472.3,472.3,0,0,1,.211-53.443,403.966,403.966,0,0,1,6.742-52.711,368.859,368.859,0,0,1,14.177-51.806c3.046-8.587,6.464-17.17,10.159-25.51,3.766-8.5,7.924-16.983,12.358-25.22,4.513-8.383,9.448-16.763,14.669-24.908,5.3-8.273,11.055-16.541,17.093-24.574,6.134-8.158,12.738-16.307,19.631-24.219,6.992-8.027,14.489-16.049,22.281-23.842l.019-.019.018-.017c15.084-15.085,30.682-30.683,48.173-46.068,9.419-8.285,18.615-15.845,28.113-23.111,10.664-8.157,21.427-15.732,32.9-23.16a27.4,27.4,0,0,1,14.907-4.4h0a27.4,27.4,0,0,1,14.907,4.4c11.5,7.421,22.281,14.988,32.946,23.135,9.525,7.276,18.73,14.842,28.141,23.129,17.981,15.835,34.035,32.017,48.2,46.295l.013.013c7.751,7.752,15.211,15.738,22.172,23.738,6.861,7.885,13.434,16.007,19.534,24.139,6.009,8.009,11.732,16.257,17.012,24.515,5.194,8.126,10.106,16.493,14.6,24.867,4.42,8.238,8.56,16.715,12.3,25.2,3.678,8.332,7.081,16.911,10.116,25.5a370.728,370.728,0,0,1,14.129,51.815,407.226,407.226,0,0,1,6.741,52.744,476.189,476.189,0,0,1,.256,53.479c-.865,17.33-2.657,35.506-5.326,54.022-2.5,17.369-5.87,35.663-10.007,54.373l127.579,127.593a82.742,82.742,0,0,1,22.079,39.557,82.742,82.742,0,0,1-2.039,45.255l-60.253,180.974a41.581,41.581,0,0,1-11.384,17.475,41.58,41.58,0,0,1-18.45,9.725A41.48,41.48,0,0,1-10020.945,1496.467Zm-405.533-554.409h0l14.557,232.772a33.011,33.011,0,0,0,32.884,30.9h168.757a33.017,33.017,0,0,0,32.889-30.9l14.555-232.774Zm-10.984-65.92h0a11,11,0,0,0-10.984,10.987V909.1a11,11,0,0,0,10.984,10.984h285.609a11,11,0,0,0,10.984-10.984V887.126a11,11,0,0,0-10.984-10.987h-82.388l-6.453-12.839a16.468,16.468,0,0,0-6.075-6.665,16.457,16.457,0,0,0-8.673-2.468h-78.551a16.263,16.263,0,0,0-8.621,2.47,16.279,16.279,0,0,0-6.009,6.663l-6.452,12.839Z" transform="translate(10806.658 -517.948)" fill="#db0056"/></g></svg>