<svg xmlns="http://www.w3.org/2000/svg" xmlns:xlink="http://www.w3.org/1999/xlink" width="1024" height="1024" viewBox="0 0 1024 1024"><defs><clipPath id="b"><rect width="1024" height="1024"/></clipPath></defs><g id="a" clip-path="url(#b)"><path d="M-11916.567,276.85h-316.051V-221.837a31.707,31.707,0,0,1,2.3-12.139,31.138,31.138,0,0,1,6.894-10.163,31.275,31.275,0,0,1,10.171-6.885,31.8,31.8,0,0,1,12.132-2.307h262.376V-74.9a31.686,31.686,0,0,0,2.3,12.139,31.144,31.144,0,0,0,6.894,10.163,31.275,31.275,0,0,0,10.171,6.885,31.794,31.794,0,0,0,12.129,2.307h75.9V191.646a85.813,85.813,0,0,1-1.731,17.172,84.8,84.8,0,0,1-4.965,15.994,85.148,85.148,0,0,1-7.855,14.473,85.828,85.828,0,0,1-10.4,12.61,85.807,85.807,0,0,1-12.61,10.4,85.181,85.181,0,0,1-14.475,7.856,84.747,84.747,0,0,1-15.994,4.965A85.84,85.84,0,0,1-11916.567,276.85Zm-361.052,0h-150.175a85.84,85.84,0,0,1-17.172-1.731,84.78,84.78,0,0,1-15.994-4.965,85.2,85.2,0,0,1-14.475-7.856,85.858,85.858,0,0,1-12.61-10.4,85.828,85.828,0,0,1-10.4-12.61,85.217,85.217,0,0,1-7.855-14.473,84.788,84.788,0,0,1-4.965-15.994,85.75,85.75,0,0,1-1.731-17.172V-433.189a85.75,85.75,0,0,1,1.731-17.172,84.782,84.782,0,0,1,4.965-15.994,85.17,85.17,0,0,1,7.855-14.473,85.829,85.829,0,0,1,10.4-12.61,85.859,85.859,0,0,1,12.61-10.4,85.2,85.2,0,0,1,14.475-7.856,84.773,84.773,0,0,1,15.994-4.965,85.84,85.84,0,0,1,17.172-1.731h142.006A113.736,113.736,0,0,1-12172.18-632a113.734,113.734,0,0,1,113.605,113.605h142.007a85.84,85.84,0,0,1,17.172,1.731,84.743,84.743,0,0,1,15.994,4.965,85.183,85.183,0,0,1,14.475,7.856,85.808,85.808,0,0,1,12.61,10.4,85.829,85.829,0,0,1,10.4,12.61,85.17,85.17,0,0,1,7.855,14.473,84.792,84.792,0,0,1,4.965,15.994,85.813,85.813,0,0,1,1.731,17.172v196.4c-14.4-14.459-28.142-27.9-39.73-38.857-11.245-10.637-19.973-18.48-25.237-22.68h-304.853a75.092,75.092,0,0,0-54.036,22.344,74.97,74.97,0,0,0-22.4,54.149Zm-54.315-681.613a10.58,10.58,0,0,0-7.534,3.121,10.584,10.584,0,0,0-3.121,7.535v35.5a10.58,10.58,0,0,0,3.121,7.533,10.583,10.583,0,0,0,7.534,3.119h319.511a10.581,10.581,0,0,0,7.532-3.119,10.584,10.584,0,0,0,3.12-7.533v-35.5a10.589,10.589,0,0,0-3.12-7.535,10.582,10.582,0,0,0-7.532-3.121Zm159.755-156.22a42.329,42.329,0,0,0-16.585,3.349,42.48,42.48,0,0,0-13.547,9.134,42.482,42.482,0,0,0-9.136,13.546,42.332,42.332,0,0,0-3.35,16.585,42.328,42.328,0,0,0,3.35,16.584,42.483,42.483,0,0,0,9.136,13.546,42.478,42.478,0,0,0,13.547,9.135,42.326,42.326,0,0,0,16.585,3.35,42.333,42.333,0,0,0,16.585-3.35,42.5,42.5,0,0,0,13.546-9.135,42.5,42.5,0,0,0,9.135-13.546,42.329,42.329,0,0,0,3.35-16.584,42.333,42.333,0,0,0-3.35-16.585,42.5,42.5,0,0,0-9.135-13.546,42.5,42.5,0,0,0-13.546-9.134A42.337,42.337,0,0,0-12172.18-560.983ZM-11831.36-85.4h-65.413v-154.8a69.116,69.116,0,0,1,11.8,9.192l53.608,53.609Z" transform="translate(12609.764 660.787)" fill="#00c4f5"/><path d="M335.845,167.931V13.126a68.628,68.628,0,0,1,11.8,9.192L481.458,156.127a69.719,69.719,0,0,1,9.192,11.8h-154.8Zm-41.974,10.5a31.383,31.383,0,0,0,31.493,31.493H503.792V556.264A31.383,31.383,0,0,1,472.3,587.757H31.493a30.332,30.332,0,0,1-22.3-9.192A30.45,30.45,0,0,1,0,556.264V31.493a30.332,30.332,0,0,1,9.192-22.3A30.451,30.451,0,0,1,31.493,0H293.87Z" transform="translate(377.146 407.456)" fill="#afafaf"/></g></svg>