<svg xmlns="http://www.w3.org/2000/svg" xmlns:xlink="http://www.w3.org/1999/xlink" width="1024" height="1024" viewBox="0 0 1024 1024"><defs><clipPath id="b"><rect width="1024" height="1024"/></clipPath></defs><g id="a" clip-path="url(#b)"><path d="M-11404.566,1445.853h-85.844a166.242,166.242,0,0,0,9.65-31.213,167.867,167.867,0,0,0,3.364-33.472c0-2.454-.064-4.956-.19-7.439l44.958-31.477,95.283,70.76a85.847,85.847,0,0,1-13.24,13.564,85.439,85.439,0,0,1-15.976,10.353,84.724,84.724,0,0,1-18.172,6.605A85.617,85.617,0,0,1-11404.566,1445.853Zm-394.335,0H-11915.8a85.816,85.816,0,0,1-17.171-1.731,84.784,84.784,0,0,1-15.994-4.965,85.184,85.184,0,0,1-14.474-7.856,85.864,85.864,0,0,1-12.61-10.4,85.824,85.824,0,0,1-10.4-12.61,85.209,85.209,0,0,1-7.855-14.473,84.727,84.727,0,0,1-4.965-15.994,85.812,85.812,0,0,1-1.731-17.172V735.811a85.811,85.811,0,0,1,1.731-17.172,84.723,84.723,0,0,1,4.965-15.994,85.144,85.144,0,0,1,7.855-14.473,85.844,85.844,0,0,1,10.4-12.61,85.839,85.839,0,0,1,12.61-10.4,85.2,85.2,0,0,1,14.474-7.856,84.792,84.792,0,0,1,15.994-4.965,85.81,85.81,0,0,1,17.171-1.731h142.01A113.736,113.736,0,0,1-11660.18,537a113.735,113.735,0,0,1,113.6,113.607h142.009a85.827,85.827,0,0,1,17.172,1.731,84.792,84.792,0,0,1,15.994,4.965,85.235,85.235,0,0,1,14.474,7.856,85.857,85.857,0,0,1,12.609,10.4,85.773,85.773,0,0,1,10.4,12.61,85.266,85.266,0,0,1,7.856,14.473,84.713,84.713,0,0,1,4.964,15.994,85.811,85.811,0,0,1,1.731,17.172v308.081c-.51.35-1.009.7-1.484,1.029l-115.369,80.45-41.374-28.974c.128-2.533.193-5.037.193-7.442,0-92.226-75.033-167.257-167.261-167.257s-167.261,75.031-167.261,167.257a167.019,167.019,0,0,0,6.221,45.257,166.372,166.372,0,0,0,17.527,40.571A168.513,168.513,0,0,0-11726,1235.05a168.519,168.519,0,0,0-62.166,60.27,166.469,166.469,0,0,0-17.531,40.579,167.077,167.077,0,0,0-6.223,45.268,167.875,167.875,0,0,0,3.364,33.472,166.293,166.293,0,0,0,9.65,31.212Zm-21.036-681.616a10.666,10.666,0,0,0-10.652,10.656v35.495a10.582,10.582,0,0,0,3.121,7.533,10.581,10.581,0,0,0,7.531,3.12h319.513a10.582,10.582,0,0,0,7.532-3.12,10.582,10.582,0,0,0,3.121-7.533V774.893a10.667,10.667,0,0,0-10.653-10.656Zm159.758-156.219a42.35,42.35,0,0,0-16.587,3.349,42.5,42.5,0,0,0-13.546,9.134,42.5,42.5,0,0,0-9.135,13.546,42.334,42.334,0,0,0-3.35,16.586,42.33,42.33,0,0,0,3.35,16.585,42.5,42.5,0,0,0,9.135,13.546,42.5,42.5,0,0,0,13.546,9.134,42.348,42.348,0,0,0,16.587,3.35,42.336,42.336,0,0,0,16.586-3.35,42.486,42.486,0,0,0,13.545-9.134,42.5,42.5,0,0,0,9.135-13.546,42.329,42.329,0,0,0,3.35-16.585,42.333,42.333,0,0,0-3.35-16.586,42.494,42.494,0,0,0-9.135-13.546,42.484,42.484,0,0,0-13.545-9.134A42.338,42.338,0,0,0-11660.18,608.018Zm15.523,787.8a14.654,14.654,0,0,1-14.638-14.638,14.656,14.656,0,0,1,14.638-14.641,14.656,14.656,0,0,1,14.638,14.641A14.654,14.654,0,0,1-11644.656,1395.823Zm0-292.228a14.656,14.656,0,0,1-14.638-14.641,14.654,14.654,0,0,1,14.638-14.638,14.654,14.654,0,0,1,14.638,14.638A14.656,14.656,0,0,1-11644.656,1103.595Z" transform="translate(12097.764 -508.213)" fill="#00c4f5"/><path d="M246.319,125.679a123.217,123.217,0,1,0-40,89.918l60.541,55.9.4.294-.129.092L206.3,327.973a121.882,121.882,0,1,0,40.017,89.918,119.391,119.391,0,0,0-3.681-28.42L336.863,323.5,473.609,425.051c73.3,51.319,124.579-21.96,124.579-21.96L242.638,154.1A121.554,121.554,0,0,0,246.319,125.679ZM124.059,185.318A59.639,59.639,0,1,1,183.7,125.679,59.639,59.639,0,0,1,124.059,185.318Zm0,292.23A59.639,59.639,0,1,1,183.7,417.909,59.639,59.639,0,0,1,124.059,477.548ZM598.188,140.516s-51.282-73.3-124.579-21.96l-106.19,74.051,77.991,54.6Z" transform="translate(329.048 455.062)" fill="#afafaf"/></g></svg>