<svg xmlns="http://www.w3.org/2000/svg" xmlns:xlink="http://www.w3.org/1999/xlink" width="1024" height="1024" viewBox="0 0 1024 1024"><defs><clipPath id="b"><rect width="1024" height="1024"/></clipPath></defs><g id="a" clip-path="url(#b)"><path d="M-12835.857-2096.886h-170.6a92.993,92.993,0,0,1-36.41-7.351,93.588,93.588,0,0,1-15.894-8.627,94.154,94.154,0,0,1-13.845-11.425,94.084,94.084,0,0,1-11.421-13.844,93.477,93.477,0,0,1-8.627-15.889,93,93,0,0,1-7.352-36.411v-686.018a93.009,93.009,0,0,1,7.352-36.414,93.646,93.646,0,0,1,8.627-15.889,94.21,94.21,0,0,1,11.421-13.844,94.054,94.054,0,0,1,13.845-11.425,93.541,93.541,0,0,1,15.894-8.624,92.937,92.937,0,0,1,36.41-7.351h552.328a93.534,93.534,0,0,1,18.335,1.815,93.4,93.4,0,0,1,17.464,5.306,93.418,93.418,0,0,1,16.1,8.6,93.67,93.67,0,0,1,14.245,11.681l133.689,133.69a93.868,93.868,0,0,1,11.685,14.246,94.029,94.029,0,0,1,8.594,16.1,93.371,93.371,0,0,1,5.307,17.464,93.531,93.531,0,0,1,1.814,18.335v148.53a64.088,64.088,0,0,0-20.508,13.838l-70.234,70.238-20.114-3.35-3.351-20.114,70.234-70.234a64.345,64.345,0,0,0,16.479-62.617,64.5,64.5,0,0,0-46.537-45.245,222.207,222.207,0,0,0-47.464-6.431v-52.441a24.561,24.561,0,0,0-24.533-24.532h-8.176v-16.353a49.121,49.121,0,0,0-49.065-49.065h-523.354a49.121,49.121,0,0,0-49.065,49.065v228.966a49.121,49.121,0,0,0,49.065,49.065h381.478a222.709,222.709,0,0,0,.812,75.071l-25.526,25.526a124.173,124.173,0,0,0-66.7-19.368,124.872,124.872,0,0,0-124.731,124.731,124.17,124.17,0,0,0,19.369,66.693l-36.175,36.174a125.8,125.8,0,0,0-30.876,127.729Zm515.422,0h-255.606l182.909-182.909a224.711,224.711,0,0,0,39.735,3.547,218.4,218.4,0,0,0,126.509-39.816v125.631a92.925,92.925,0,0,1-7.351,36.411,93.451,93.451,0,0,1-8.624,15.889,94.4,94.4,0,0,1-11.421,13.844,94.3,94.3,0,0,1-13.848,11.425,93.681,93.681,0,0,1-15.89,8.627A93.012,93.012,0,0,1-12320.436-2096.887Zm-326.317,0h-134.689a75.593,75.593,0,0,1-8.917-23.218,76.368,76.368,0,0,1-1-24.517,75.828,75.828,0,0,1,6.911-23.744,75.931,75.931,0,0,1,14.825-20.9l35.5-35.5a123.869,123.869,0,0,0,70.682,22.01,124.872,124.872,0,0,0,124.73-124.731,123.89,123.89,0,0,0-22.008-70.682l44.864-44.864a175.1,175.1,0,0,1-5.172-90.414h90.871a48.6,48.6,0,0,0,19.838-4.19,49.151,49.151,0,0,0,8.581-4.9,49.547,49.547,0,0,0,7.392-6.468l13.156,78.944,80.722,13.45,73.581-73.584v147.656c-2.024,2.251-4.147,4.488-6.309,6.65a170.521,170.521,0,0,1-26.685,21.781,168.286,168.286,0,0,1-29.561,15.5,170,170,0,0,1-31.486,9.271,172.644,172.644,0,0,1-32.467,3.081,173.764,173.764,0,0,1-55.055-8.941l-238.3,238.3ZM-12715.8-2164a28.574,28.574,0,0,0-28.54,28.543,28.572,28.572,0,0,0,28.54,28.54,28.572,28.572,0,0,0,28.54-28.54A28.574,28.574,0,0,0-12715.8-2164Zm327.8-393.425h0a48.915,48.915,0,0,0,6.906-25.077v-16.356h8.176a24.561,24.561,0,0,0,24.533-24.532v-44.726a172.145,172.145,0,0,1,35.438,4.938,14.2,14.2,0,0,1,10.386,10.088,14.084,14.084,0,0,1-3.652,13.886Zm-58.514-41.434h-45.381a168.853,168.853,0,0,1,16.524-19.213,172.353,172.353,0,0,1,28.856-23.234v42.447Zm-104.071,0h-386.574v-196.257h490.646v65.421h32.709v19.528a218.706,218.706,0,0,0-51.808,21.887,222.93,222.93,0,0,0-45.113,34.852,218.566,218.566,0,0,0-39.859,54.569Z" transform="translate(13175.442 3045.445)" fill="#00c4f5"/><path d="M603.8,129.741a14.26,14.26,0,0,0-23.927-6.553l-88.429,88.429-80.723-13.45-13.45-80.723L485.7,29.015a14.3,14.3,0,0,0-6.731-23.974A171.149,171.149,0,0,0,316.546,50.147c-47.14,47.14-60.114,115.472-40.492,175.051L22.289,478.964A76.1,76.1,0,0,0,129.912,586.587L383.463,333.036c59.6,19.872,127.8,6.755,175.253-40.695a171.179,171.179,0,0,0,45.083-162.6ZM76.112,561.3a28.541,28.541,0,1,1,28.541-28.541A28.548,28.548,0,0,1,76.112,561.3Z" transform="translate(383.529 377.219)" fill="#afafaf"/></g></svg>