<svg xmlns="http://www.w3.org/2000/svg" xmlns:xlink="http://www.w3.org/1999/xlink" width="1024" height="1024" viewBox="0 0 1024 1024"><defs><clipPath id="b"><rect width="1024" height="1024"/></clipPath></defs><g id="a" clip-path="url(#b)"><path d="M-10463.451-2137.14h-407.866a40.688,40.688,0,0,1-15.869-3.185,40.36,40.36,0,0,1-12.927-8.7,40.344,40.344,0,0,1-8.7-12.926,40.63,40.63,0,0,1-3.187-15.867v-751.5a40.627,40.627,0,0,1,3.188-15.867,40.369,40.369,0,0,1,8.7-12.929,40.4,40.4,0,0,1,12.927-8.7,40.653,40.653,0,0,1,15.869-3.185h339.66v230.526a40.729,40.729,0,0,0,40.684,40.681h33.446a63.782,63.782,0,0,0-4.39,12.931,64.255,64.255,0,0,0-1.537,13.978v47.391a63.6,63.6,0,0,0,18.962,45.471,65.067,65.067,0,0,0,46.145,18.866h.006l2.588-.014h.021c12.494,0,23.447,1.032,32.554,3.067,8.928,2,13.1,4.3,14.479,5.192v83.676a64.255,64.255,0,0,0-40.769,20.871,64.167,64.167,0,0,0-16.609,43.1v47.815a64.167,64.167,0,0,0,16.609,43.1,64.248,64.248,0,0,0,40.769,20.868v83.942c-1.735,1.018-5.817,2.973-13.671,4.636-9.414,1.993-21.391,3-35.6,3l-1.117,0a64.542,64.542,0,0,0-64.364,63.762Zm-117.254-500.534a110.771,110.771,0,0,0-78.823,32.646,109.283,109.283,0,0,0-29.478,53.94,113.873,113.873,0,0,0,3.119,60.016l-165.2,165.2a49.213,49.213,0,0,0-14.511,35.03,49.212,49.212,0,0,0,14.511,35.03,49.219,49.219,0,0,0,35.029,14.509,49.22,49.22,0,0,0,35.031-14.509l165.059-165.058a113.1,113.1,0,0,0,35.838,5.821,109.892,109.892,0,0,0,78.25-32.313,111.729,111.729,0,0,0,17.976-23.485,110.908,110.908,0,0,0,10.883-26.439,112.193,112.193,0,0,0,.49-55.927,9.04,9.04,0,0,0-3.417-5.159,9.472,9.472,0,0,0-5.6-1.84,9.222,9.222,0,0,0-6.558,2.735l-57.566,57.564-52.548-8.755-8.758-52.55,57.567-57.567a9.167,9.167,0,0,0,2.379-9.037,9.247,9.247,0,0,0-6.761-6.57A111.994,111.994,0,0,0-10580.705-2637.673Zm279.573,500.533h-112.308a14.245,14.245,0,0,1,4.387-9.755,14.313,14.313,0,0,1,9.969-4.006h1.131a265.614,265.614,0,0,0,29.714-1.484,138.09,138.09,0,0,0,32.539-7.254c24.55-9.166,37-25.513,37-48.587v-133.88h-43.031a14.245,14.245,0,0,1-10.141-4.2,14.242,14.242,0,0,1-4.2-10.141v-47.815a14.255,14.255,0,0,1,4.2-10.144,14.255,14.255,0,0,1,10.141-4.2h43.031V-2552.27c0-22.6-12.243-38.893-36.39-48.428a134.2,134.2,0,0,0-31.842-7.731,226.529,226.529,0,0,0-28.807-1.742c-1.157,0-2.2.006-3.2.019h-.164a14.274,14.274,0,0,1-10.146-4.2,14.251,14.251,0,0,1-4.206-10.146v-47.391a14.26,14.26,0,0,1,4.165-10.108,14.232,14.232,0,0,1,10.075-4.237c2.69-.019,4.926-.027,7.035-.027,20.55,0,42.66.833,65.1,6.871a154.863,154.863,0,0,1,16.921,5.6,144.966,144.966,0,0,1,16.851,7.988,146.31,146.31,0,0,1,16.626,10.793,159.135,159.135,0,0,1,16.229,14.013v463.168a40.648,40.648,0,0,1-3.185,15.867,40.336,40.336,0,0,1-8.7,12.926,40.394,40.394,0,0,1-12.929,8.7A40.682,40.682,0,0,1-10301.132-2137.141Zm-514.916-135.131a18.455,18.455,0,0,1-13.136-5.444,18.459,18.459,0,0,1-5.442-13.137,18.455,18.455,0,0,1,5.442-13.138,18.461,18.461,0,0,1,13.136-5.44,18.46,18.46,0,0,1,13.138,5.44,18.458,18.458,0,0,1,5.443,13.138,18.462,18.462,0,0,1-5.443,13.137A18.458,18.458,0,0,1-10816.048-2272.272Zm555.6-480.764h-216.965V-2970h10.341a40.818,40.818,0,0,1,15.615,3.073,40.183,40.183,0,0,1,13.2,8.793l165.942,166.112a40.249,40.249,0,0,1,8.8,13.178,40.335,40.335,0,0,1,3.07,15.47v10.337Z" transform="translate(11021.722 3034.176)" fill="#00c4f5"/><path d="M306.006,62.214V14.421A14.336,14.336,0,0,0,291.851.078C252.958-.412,198.986.012,153,45.373,107.9.879,56.156-.137,14.24.136A14.338,14.338,0,0,0,0,14.48V61.869A14.339,14.339,0,0,0,14.517,76.21c31.038-.371,100.235,4.167,100.235,57.884v133.66H71.72A14.345,14.345,0,0,0,57.376,282.1v47.813A14.345,14.345,0,0,0,71.72,344.256h43.032V478.134c0,53.709-67.028,57.413-100.349,57.327A14.347,14.347,0,0,0,0,549.8V597.59a14.336,14.336,0,0,0,14.155,14.343c38.893.489,92.865.065,138.848-45.3,45.1,44.494,96.847,45.51,138.763,45.238a14.338,14.338,0,0,0,14.24-14.344V550.141A14.339,14.339,0,0,0,291.489,535.8c-31.038.372-100.235-3.948-100.235-57.665V344.256h43.032a14.345,14.345,0,0,0,14.344-14.344V282.1a14.345,14.345,0,0,0-14.344-14.344H191.254V134.095c0-53.709,67.029-57.631,100.349-57.546A14.345,14.345,0,0,0,306.006,62.214Z" transform="translate(608.27 347.813)" fill="#afafaf"/></g></svg>