<svg xmlns="http://www.w3.org/2000/svg" xmlns:xlink="http://www.w3.org/1999/xlink" width="1025" height="1025" viewBox="0 0 1025 1025">
  <defs>
    <clipPath id="clip-path">
      <rect id="Rectangle_98" data-name="Rectangle 98" width="653" height="653" transform="translate(-0.176 -0.176)"/>
    </clipPath>
    <clipPath id="clip-exportproj">
      <rect width="1025" height="1025"/>
    </clipPath>
  </defs>
  <g id="exportproj" clip-path="url(#clip-exportproj)">
    <path id="Subtraction_2" data-name="Subtraction 2" d="M4686.219,13540.941H4446.261l-100.832-110.09c-.032-.036-3.175-3.657-3.048-7.012a8.99,8.99,0,0,1,1.813-4.555,14.948,14.948,0,0,1,1.746-2.055l108.335-107.764a77.5,77.5,0,0,0,7.182-14.272,93.413,93.413,0,0,0,4.678-15.981,86.077,86.077,0,0,0,1.581-20.226c-1.026-24.429-13.252-37.181-31.759-56.483-3.7-3.854-7.517-7.84-11.611-12.289-6.4-6.956-11.682-12.56-16.648-17.3a100.047,100.047,0,0,0-14.832-12.017c-10.055-6.482-21.024-9.906-36.68-11.447-1.951-.191-3.944-.289-5.923-.289a69.3,69.3,0,0,0-20.337,3.189,93.9,93.9,0,0,0-31.55,17.226l-65.461,64.75a42.074,42.074,0,0,1-5.9,3.458c-3.248,1.577-8.17,3.458-13.181,3.458l-.335,0c-5.075-.083-10.208-2.134-13.62-3.84a47.822,47.822,0,0,1-6.25-3.72l-58.563-59.457a41.1,41.1,0,0,0-8.808-7.5c-4.839-2.884-29.875-17.268-47.551-17.268a82.26,82.26,0,0,0-15.936,1.458,113.052,113.052,0,0,0-11.782,3.1,91.414,91.414,0,0,1-11.131,2.882c-.6.256-1.433.554-2.392.9a73.36,73.36,0,0,0-13.995,6.426,65.406,65.406,0,0,0-12.657,10.357l-143.769,143.365v-370.2a84.359,84.359,0,0,1,14.475-47.381,85.014,85.014,0,0,1,37.281-30.7,84.254,84.254,0,0,1,32.988-6.66h282.476l112.989,112.992h338.973a84.407,84.407,0,0,1,47.381,14.471,84.979,84.979,0,0,1,30.7,37.285,84.2,84.2,0,0,1,6.661,32.983V13456.2a84.32,84.32,0,0,1-14.475,47.381,84.958,84.958,0,0,1-37.284,30.705A84.194,84.194,0,0,1,4686.219,13540.941Z" transform="translate(-3807 -12688.972)" fill="#88c224"/>
    <g id="a" transform="translate(0.176 1063.824) rotate(-90)" clip-path="url(#clip-path)">
      <path id="Path_104" data-name="Path 104" d="M257.708,293.719,455.671,491.677a34.79,34.79,0,0,1,0,49.345l-32.9,32.9a34.79,34.79,0,0,1-49.345,0L232.965,433.747,92.645,574.066a34.79,34.79,0,0,1-49.345,0l-33.042-32.9a34.79,34.79,0,0,1,0-49.345L208.22,293.865a34.835,34.835,0,0,1,49.488-.145ZM208.22,14.245,10.259,212.206a34.79,34.79,0,0,0,0,49.345l32.9,32.9a34.79,34.79,0,0,0,49.345,0L232.819,154.127,373.138,294.447a34.79,34.79,0,0,0,49.345,0l32.9-32.9a34.79,34.79,0,0,0,0-49.345L257.418,14.245a34.616,34.616,0,0,0-49.2,0Z" transform="translate(93.419 32.229)" fill="#afafaf"/>
    </g>
  </g>
</svg>
