<svg xmlns="http://www.w3.org/2000/svg" xmlns:xlink="http://www.w3.org/1999/xlink" width="32" height="32" viewBox="0 0 32 32"><defs><linearGradient id="a" x1="0.5" x2="0.5" y2="1" gradientUnits="objectBoundingBox"><stop offset="0" stop-color="#c2c2c2"/><stop offset="1" stop-color="#585858"/></linearGradient><clipPath id="c"><rect width="32" height="32"/></clipPath></defs><g id="b" clip-path="url(#c)"><rect width="21" height="19" transform="translate(6 12)" fill="#fff"/><path d="M-13.5-6h-21A1.5,1.5,0,0,1-36-7.5v-29A1.5,1.5,0,0,1-34.5-38H-22v8.5A1.5,1.5,0,0,0-20.5-28H-12V-7.5A1.5,1.5,0,0,1-13.5-6Zm-6.984-8.175c-.228,0-.5.014-.852.044A3.685,3.685,0,0,1-19.6-11.1v2.2h5.274v-2.2C-14.331-13.117-18.337-14.174-20.484-14.174Zm-7.032,0c-2.147,0-6.153,1.057-6.153,3.077v2.2h12.306v-2.2C-21.363-13.117-25.369-14.174-27.516-14.174Zm7.032-7.032a2.64,2.64,0,0,0-2.637,2.637,2.64,2.64,0,0,0,2.637,2.637,2.635,2.635,0,0,0,2.628-2.637A2.635,2.635,0,0,0-20.484-21.206Zm-7.032,0a2.64,2.64,0,0,0-2.637,2.637,2.64,2.64,0,0,0,2.637,2.637,2.635,2.635,0,0,0,2.628-2.637A2.635,2.635,0,0,0-27.516-21.206ZM-12-30h-8v-8h.379a1.493,1.493,0,0,1,1.06.439l6.121,6.122a1.507,1.507,0,0,1,.44,1.06V-30Z" transform="translate(40.357 38)" fill="url(#a)"/><path d="M-13.5-6.65a.851.851,0,0,0,.85-.85V-27.35H-20.5A2.152,2.152,0,0,1-22.65-29.5v-7.85H-34.5a.851.851,0,0,0-.85.85v29a.851.851,0,0,0,.85.85h21m-6.984-8.175c2.3,0,6.8,1.125,6.8,3.727v2.2a.65.65,0,0,1-.65.65H-19.6a.65.65,0,0,1-.65-.65v-2.2A3.033,3.033,0,0,0-21.718-13.6a.65.65,0,0,1-.245-.7.65.65,0,0,1,.571-.474c.372-.032.661-.046.907-.046m-7.032,0c2.3,0,6.8,1.125,6.8,3.727v2.2a.65.65,0,0,1-.65.65H-33.669a.65.65,0,0,1-.65-.65v-2.2c0-2.6,4.505-3.727,6.8-3.727m7.032-7.032a3.286,3.286,0,0,1,3.278,3.287,3.286,3.286,0,0,1-3.278,3.287,3.291,3.291,0,0,1-3.287-3.287,3.291,3.291,0,0,1,3.287-3.287m-7.032,0a3.286,3.286,0,0,1,3.278,3.287,3.286,3.286,0,0,1-3.278,3.287A3.291,3.291,0,0,1-30.8-18.569a3.291,3.291,0,0,1,3.287-3.287m14.821-8.794a.853.853,0,0,0-.2-.33L-19.02-37.1a.853.853,0,0,0-.33-.205v6.656h6.655M-13.5-6h-21A1.5,1.5,0,0,1-36-7.5v-29A1.5,1.5,0,0,1-34.5-38H-22v8.5A1.5,1.5,0,0,0-20.5-28H-12V-7.5A1.5,1.5,0,0,1-13.5-6Zm-6.984-8.175c-.228,0-.5.014-.852.044A3.685,3.685,0,0,1-19.6-11.1v2.2h5.274v-2.2C-14.331-13.117-18.337-14.174-20.484-14.174Zm-7.032,0c-2.147,0-6.153,1.057-6.153,3.077v2.2h12.306v-2.2C-21.363-13.117-25.369-14.174-27.516-14.174Zm7.032-7.032a2.64,2.64,0,0,0-2.637,2.637,2.64,2.64,0,0,0,2.637,2.637,2.635,2.635,0,0,0,2.628-2.637A2.635,2.635,0,0,0-20.484-21.206Zm-7.032,0a2.64,2.64,0,0,0-2.637,2.637,2.64,2.64,0,0,0,2.637,2.637,2.635,2.635,0,0,0,2.628-2.637A2.635,2.635,0,0,0-27.516-21.206ZM-12-30h-8v-8h.379a1.493,1.493,0,0,1,1.06.439l6.121,6.122a1.507,1.507,0,0,1,.44,1.06Z" transform="translate(40.357 38)" fill="#313131"/></g></svg>