<svg xmlns="http://www.w3.org/2000/svg" xmlns:xlink="http://www.w3.org/1999/xlink" width="1024" height="1024" viewBox="0 0 1024 1024"><defs><clipPath id="b"><rect width="1024" height="1024"/></clipPath></defs><g id="a" clip-path="url(#b)"><circle cx="454" cy="454" r="454" transform="translate(58 58)" fill="#afafaf"/><path d="M201.245-217.17q-15.631,0-25.286-11.034T166.3-258.547q0-50.572,18.39-85.513t53.331-76.318q27.585-33.1,40.458-55.17T291.355-525.2q0-30.343-22.528-48.273T207.681-591.4a147.516,147.516,0,0,0-63.445,14.252q-30.343,14.252-70.8,40.918-22.987,12.873-37.7,12.873-15.631,0-27.125-14.252T-2.883-571.176q0-26.665,22.068-43.216,38.619-33.1,91.03-51.951a310.463,310.463,0,0,1,105.742-18.85q56.089,0,99.765,19.309t68.043,53.331q24.367,34.021,24.367,78.157,0,47.814-22.987,83.214t-67.123,79.536q-37.7,38.619-56.549,64.824a130.756,130.756,0,0,0-23.447,59.307q-2.758,14.712-12.413,22.528T201.245-217.17Zm1.839,193.094q-29.424,0-48.733-19.769T135.041-93.038q0-29.424,19.309-49.193T203.084-162q29.424,0,48.733,19.769t19.309,49.193q0,29.424-19.769,49.193T203.084-24.076Z" transform="translate(309.376 866.635)" fill="#fff"/></g></svg>