<svg xmlns="http://www.w3.org/2000/svg" xmlns:xlink="http://www.w3.org/1999/xlink" width="1025" height="1025" viewBox="0 0 1025 1025">
  <defs>
    <clipPath id="clip-path">
      <rect id="Rectangle_98" data-name="Rectangle 98" width="653" height="653" transform="translate(-0.176 -0.176)"/>
    </clipPath>
    <clipPath id="clip-importproj">
      <rect width="1025" height="1025"/>
    </clipPath>
  </defs>
  <g id="importproj" clip-path="url(#clip-importproj)">
    <path id="Subtraction_2" data-name="Subtraction 2" d="M4686.219,13540.943H4387.784l61.714-61.595a99.359,99.359,0,0,0,10.344-15.727,95.136,95.136,0,0,0,7.112-16.812,68.819,68.819,0,0,0,3.232-20.248,79.428,79.428,0,0,0-3.36-21.549,139.368,139.368,0,0,0-7.391-19.672,166.871,166.871,0,0,0-10.75-19.887L4260.6,13175.922a64.656,64.656,0,0,0-12.528-10.25,72.55,72.55,0,0,0-13.837-6.355l-.008,0c-.954-.343-1.775-.639-2.37-.891-6.895-1.213-12.722-2.012-18.9-2.592-7.6-.714-15.6-1.062-24.455-1.062a227.022,227.022,0,0,0-24.907,1.463c-6.524.726-13.088,1.7-19.509,2.882-5.771,1.063-5.97,1.19-8.418,2.737-.619.392-1.3.818-2.185,1.348a41.178,41.178,0,0,0-8.713,7.423l-41.873,37.922a46.635,46.635,0,0,1-6.185,3.682c-3.376,1.688-8.454,3.719-13.477,3.8l-.33,0a31.235,31.235,0,0,1-13.047-3.422,41.233,41.233,0,0,1-5.843-3.422l-47.4-36.578a27.938,27.938,0,0,0-3.214-3.158,30.632,30.632,0,0,0-8.689-5.247,44.213,44.213,0,0,0-11.015-2.372c-3.367-.35-5.959-.359-6.244-.359H3867.038v-213.729a84.364,84.364,0,0,1,14.474-47.382,84.942,84.942,0,0,1,37.282-30.7,84.169,84.169,0,0,1,32.986-6.661h282.476l112.991,112.991h338.971a84.369,84.369,0,0,1,47.378,14.471,84.98,84.98,0,0,1,30.7,37.286,84.2,84.2,0,0,1,6.661,32.982v395.47a84.416,84.416,0,0,1-14.47,47.379,84.993,84.993,0,0,1-37.287,30.7A84.2,84.2,0,0,1,4686.219,13540.943Zm-814.832-57.864v0h0a84.5,84.5,0,0,1-4.349-26.876v-94.125l57.944,55.962c.034.031,3.4,3.192,3.524,6.544.124,3.308-2.986,6.9-3.017,6.937l-54.1,51.561Z" transform="translate(-3807 -12688.972)" fill="#88c224"/>
    <g id="a" transform="translate(652.824 411.176) rotate(90)" clip-path="url(#clip-path)">
      <path id="Path_104" data-name="Path 104" d="M257.708,293.719,455.671,491.677a34.79,34.79,0,0,1,0,49.345l-32.9,32.9a34.79,34.79,0,0,1-49.345,0L232.965,433.747,92.645,574.066a34.79,34.79,0,0,1-49.345,0l-33.042-32.9a34.79,34.79,0,0,1,0-49.345L208.22,293.865a34.835,34.835,0,0,1,49.488-.145ZM208.22,14.245,10.259,212.206a34.79,34.79,0,0,0,0,49.345l32.9,32.9a34.79,34.79,0,0,0,49.345,0L232.819,154.127,373.138,294.447a34.79,34.79,0,0,0,49.345,0l32.9-32.9a34.79,34.79,0,0,0,0-49.345L257.418,14.245a34.616,34.616,0,0,0-49.2,0Z" transform="translate(93.419 32.229)" fill="#afafaf"/>
    </g>
  </g>
</svg>
