<svg xmlns="http://www.w3.org/2000/svg" xmlns:xlink="http://www.w3.org/1999/xlink" width="32" height="32" viewBox="0 0 32 32"><defs><linearGradient id="a" x1="0.5" x2="0.5" y2="1" gradientUnits="objectBoundingBox"><stop offset="0" stop-color="#25ba00"/><stop offset="1" stop-color="#296800"/></linearGradient><clipPath id="c"><rect width="32" height="32"/></clipPath></defs><g id="b" clip-path="url(#c)"><rect width="21" height="19" transform="translate(6 11)" fill="#fff"/><path d="M22.5,41H1.5A1.5,1.5,0,0,1,0,39.5v-29A1.5,1.5,0,0,1,1.5,9H14v8.5A1.5,1.5,0,0,0,15.5,19H24V39.5A1.5,1.5,0,0,1,22.5,41Zm-9.408-7.96v5.71h5.865a1.159,1.159,0,0,0,1.174-1.142V33.041Zm-9.385,0v4.567A1.159,1.159,0,0,0,4.88,38.75h5.866v-5.71Zm0-6.646a1.159,1.159,0,0,0-1.173,1.142v2.855a.579.579,0,0,0,.586.571h17.6a.58.58,0,0,0,.587-.571V27.537A1.159,1.159,0,0,0,20.131,26.4H18.588a3.054,3.054,0,0,0,.37-1.427,3.187,3.187,0,0,0-3.226-3.14c-1.431,0-2.419.638-3.776,2.437-1.357-1.8-2.345-2.437-3.776-2.437a3.187,3.187,0,0,0-3.226,3.14,3.011,3.011,0,0,0,.37,1.427Zm12.025,0H12.575c1.879-2.722,2.4-2.855,3.157-2.855a1.428,1.428,0,1,1,0,2.855Zm-4.4,0H8.176a1.428,1.428,0,1,1,0-2.855c.736,0,1.283.138,3.156,2.853ZM24,17H16V9h.379a1.493,1.493,0,0,1,1.06.439l6.121,6.122a1.507,1.507,0,0,1,.44,1.06V17Z" transform="translate(4.357 -9)" fill="url(#a)"/><path d="M22.5,40.35a.851.851,0,0,0,.85-.85V19.65H15.5A2.152,2.152,0,0,1,13.35,17.5V9.65H1.5a.851.851,0,0,0-.85.85v29a.851.851,0,0,0,.85.85h21m-9.408-7.96h7.039a.65.65,0,0,1,.65.65v4.567A1.81,1.81,0,0,1,18.958,39.4H13.092a.65.65,0,0,1-.65-.65v-5.71a.65.65,0,0,1,.65-.65m-9.385,0h7.039a.65.65,0,0,1,.65.65v5.71a.65.65,0,0,1-.65.65H4.88a1.81,1.81,0,0,1-1.823-1.792V33.041a.65.65,0,0,1,.65-.65m0-6.646h.683a3.518,3.518,0,0,1-.087-.777,3.838,3.838,0,0,1,3.876-3.79,4.631,4.631,0,0,1,3.776,2.043,4.631,4.631,0,0,1,3.776-2.043,3.838,3.838,0,0,1,3.876,3.79,3.49,3.49,0,0,1-.088.777h.612a1.81,1.81,0,0,1,1.823,1.792v2.855a1.23,1.23,0,0,1-1.237,1.221H3.12a1.23,1.23,0,0,1-1.236-1.221V27.537a1.81,1.81,0,0,1,1.823-1.792m12.025,0a.778.778,0,1,0,0-1.555.957.957,0,0,0-.748.261,7.709,7.709,0,0,0-1.144,1.294h1.892m-5.665,0a7.62,7.62,0,0,0-1.148-1.291.953.953,0,0,0-.743-.264.778.778,0,1,0,0,1.555h1.891m13.238-9.4a.853.853,0,0,0-.2-.33L16.98,9.9a.853.853,0,0,0-.33-.205V16.35h6.655M22.5,41H1.5A1.5,1.5,0,0,1,0,39.5v-29A1.5,1.5,0,0,1,1.5,9H14v8.5A1.5,1.5,0,0,0,15.5,19H24V39.5A1.5,1.5,0,0,1,22.5,41Zm-9.408-7.96v5.71h5.865a1.159,1.159,0,0,0,1.174-1.142V33.041Zm-9.385,0v4.567A1.159,1.159,0,0,0,4.88,38.75h5.866v-5.71Zm0-6.646a1.159,1.159,0,0,0-1.173,1.142v2.855a.579.579,0,0,0,.586.571h17.6a.58.58,0,0,0,.587-.571V27.537A1.159,1.159,0,0,0,20.131,26.4H18.588a3.054,3.054,0,0,0,.37-1.427,3.187,3.187,0,0,0-3.226-3.14c-1.431,0-2.419.638-3.776,2.437-1.357-1.8-2.345-2.437-3.776-2.437a3.187,3.187,0,0,0-3.226,3.14,3.011,3.011,0,0,0,.37,1.427Zm12.025,0H12.575c1.879-2.722,2.4-2.855,3.157-2.855a1.428,1.428,0,1,1,0,2.855Zm-4.4,0H8.176a1.428,1.428,0,1,1,0-2.855c.736,0,1.283.138,3.156,2.853ZM24,17H16V9h.379a1.493,1.493,0,0,1,1.06.439l6.121,6.122a1.507,1.507,0,0,1,.44,1.06Z" transform="translate(4.357 -9)" fill="#1f5300"/></g></svg>