<svg xmlns="http://www.w3.org/2000/svg" xmlns:xlink="http://www.w3.org/1999/xlink" width="32" height="32" viewBox="0 0 32 32"><defs><linearGradient id="a" x1="0.5" x2="0.5" y2="1" gradientUnits="objectBoundingBox"><stop offset="0" stop-color="#25ba00"/><stop offset="1" stop-color="#296800"/></linearGradient><clipPath id="c"><rect width="32" height="32"/></clipPath></defs><g id="b" clip-path="url(#c)"><rect width="21" height="18" transform="translate(5 13)" fill="#fff"/><path d="M22.5,41H1.5A1.5,1.5,0,0,1,0,39.5v-29A1.5,1.5,0,0,1,1.5,9H14v8.5A1.5,1.5,0,0,0,15.5,19H24V39.5A1.5,1.5,0,0,1,22.5,41Zm-3.346-4.576v1.617a1.752,1.752,0,0,0,1.616-1.617Zm-3.234,0v1.617h1.616V36.425ZM4.937,35.492h0a4.634,4.634,0,0,0,1.494.863v1.21a.3.3,0,0,0,.231.287,6.181,6.181,0,0,0,2.685,0,.3.3,0,0,0,.231-.287v-1.21a4.778,4.778,0,0,0,1.495-.863l1.047.6a.3.3,0,0,0,.148.039.292.292,0,0,0,.216-.1,6.126,6.126,0,0,0,1.345-2.326.306.306,0,0,0-.138-.347l-1.048-.6a4.688,4.688,0,0,0,0-1.725l1.048-.6a.3.3,0,0,0,.135-.345,6.156,6.156,0,0,0-1.345-2.326.3.3,0,0,0-.219-.1.289.289,0,0,0-.145.039l-1.048.6a4.618,4.618,0,0,0-1.495-.863V26.24a.3.3,0,0,0-.231-.288,6.181,6.181,0,0,0-2.685,0,.3.3,0,0,0-.231.288v1.21a4.778,4.778,0,0,0-1.495.863l-1.045-.6a.3.3,0,0,0-.148-.04.292.292,0,0,0-.216.1,6.115,6.115,0,0,0-1.345,2.326.294.294,0,0,0,.135.344l1.048.6a4.7,4.7,0,0,0,0,1.726l-1.048.6a.3.3,0,0,0-.135.345,6.156,6.156,0,0,0,1.345,2.326.3.3,0,0,0,.219.1.289.289,0,0,0,.145-.039l1.047-.6Zm14.217-2.3v1.617H20.77V33.191Zm0-3.234v1.617H20.77V29.957Zm0-3.233v1.616H20.77V26.725Zm0-3.234v1.616H20.77a1.727,1.727,0,0,0-1.616-1.616Zm-3.234,0v1.616h1.616V23.491Zm-3.234,0v1.616H14.3V23.491ZM8,33.867A1.967,1.967,0,1,1,9.969,31.9,1.969,1.969,0,0,1,8,33.867ZM24,17H16V9h.379a1.493,1.493,0,0,1,1.06.439l6.121,6.122a1.507,1.507,0,0,1,.44,1.06V17Z" transform="translate(4 -9)" fill="url(#a)"/><path d="M22.5,40.35a.851.851,0,0,0,.85-.85V19.65H15.5A2.152,2.152,0,0,1,13.35,17.5V9.65H1.5a.851.851,0,0,0-.85.85v29a.851.851,0,0,0,.85.85h21m-3.346-4.576H20.77a.65.65,0,0,1,.65.65,2.39,2.39,0,0,1-2.266,2.267.65.65,0,0,1-.651-.65V36.425a.65.65,0,0,1,.65-.65m-3.234,0h1.616a.65.65,0,0,1,.65.65v1.617a.65.65,0,0,1-.65.65H15.92a.65.65,0,0,1-.65-.65V36.425a.65.65,0,0,1,.65-.65m-9.4,2.713a.948.948,0,0,1-.743-.922v-.77a5.265,5.265,0,0,1-.9-.52l-.666.384a.939.939,0,0,1-.471.126.953.953,0,0,1-.7-.3A6.81,6.81,0,0,1,1.56,33.908l0-.008a.945.945,0,0,1,.433-1.093l.668-.386a5.332,5.332,0,0,1,0-1.039L2,31a.947.947,0,0,1-.435-1.1,6.769,6.769,0,0,1,1.486-2.572.941.941,0,0,1,1.168-.18l.666.386a5.413,5.413,0,0,1,.9-.519V26.24a.95.95,0,0,1,.74-.922,6.867,6.867,0,0,1,2.966,0,.951.951,0,0,1,.742.923v.767a5.252,5.252,0,0,1,.9.52l.666-.384a.939.939,0,0,1,.471-.126.953.953,0,0,1,.7.3,6.81,6.81,0,0,1,1.487,2.573l0,.008A.945.945,0,0,1,14.017,31l-.668.386a5.322,5.322,0,0,1,0,1.038l.667.385a.956.956,0,0,1,.441,1.081l-.007.023a6.78,6.78,0,0,1-1.487,2.573.944.944,0,0,1-1.164.182l0,0-.668-.386a5.413,5.413,0,0,1-.9.519v.772a.948.948,0,0,1-.742.922,6.863,6.863,0,0,1-2.962,0m12.629-5.946H20.77a.65.65,0,0,1,.65.65v1.617a.65.65,0,0,1-.65.65H19.154a.65.65,0,0,1-.65-.65V33.191a.65.65,0,0,1,.65-.65m0-3.234H20.77a.65.65,0,0,1,.65.65v1.617a.65.65,0,0,1-.65.65H19.154a.65.65,0,0,1-.65-.65V29.957a.65.65,0,0,1,.65-.65m0-3.233H20.77a.65.65,0,0,1,.65.65v1.616a.65.65,0,0,1-.65.65H19.154a.65.65,0,0,1-.65-.65V26.725a.65.65,0,0,1,.65-.65m0-3.234a2.373,2.373,0,0,1,2.266,2.266.65.65,0,0,1-.65.651H19.154a.65.65,0,0,1-.65-.65V23.491a.65.65,0,0,1,.65-.65m-3.234,0h1.616a.65.65,0,0,1,.65.65v1.616a.65.65,0,0,1-.65.65H15.92a.65.65,0,0,1-.65-.65V23.491a.65.65,0,0,1,.65-.65m-3.234,0H14.3a.65.65,0,0,1,.65.65v1.616a.65.65,0,0,1-.65.65H12.686a.65.65,0,0,1-.65-.65V23.491a.65.65,0,0,1,.65-.65M8,33.217A1.317,1.317,0,1,0,6.685,31.9,1.318,1.318,0,0,0,8,33.217m15.3-16.867a.853.853,0,0,0-.2-.33L16.98,9.9a.853.853,0,0,0-.33-.205V16.35h6.655M22.5,41H1.5A1.5,1.5,0,0,1,0,39.5v-29A1.5,1.5,0,0,1,1.5,9H14v8.5A1.5,1.5,0,0,0,15.5,19H24V39.5A1.5,1.5,0,0,1,22.5,41Zm-3.346-4.576v1.617a1.752,1.752,0,0,0,1.616-1.617Zm-3.234,0v1.617h1.616V36.425ZM4.937,35.492h0a4.634,4.634,0,0,0,1.494.863v1.21a.3.3,0,0,0,.231.287,6.21,6.21,0,0,0,2.685,0,.3.3,0,0,0,.231-.287v-1.21a4.778,4.778,0,0,0,1.495-.863l1.047.6a.3.3,0,0,0,.148.039.292.292,0,0,0,.216-.1,6.126,6.126,0,0,0,1.345-2.326.306.306,0,0,0-.138-.347l-1.048-.6a4.688,4.688,0,0,0,0-1.725l1.048-.6a.3.3,0,0,0,.135-.345,6.156,6.156,0,0,0-1.345-2.326.3.3,0,0,0-.219-.1.289.289,0,0,0-.145.039l-1.048.6a4.618,4.618,0,0,0-1.495-.863V26.24a.3.3,0,0,0-.231-.288,6.21,6.21,0,0,0-2.685,0,.3.3,0,0,0-.231.288v1.21a4.778,4.778,0,0,0-1.495.863l-1.045-.6a.3.3,0,0,0-.148-.04.292.292,0,0,0-.216.1,6.115,6.115,0,0,0-1.345,2.326.294.294,0,0,0,.135.344l1.048.6a4.7,4.7,0,0,0,0,1.726l-1.048.6a.3.3,0,0,0-.135.345,6.156,6.156,0,0,0,1.345,2.326.3.3,0,0,0,.219.1.289.289,0,0,0,.145-.039Zm14.217-2.3v1.617H20.77V33.191Zm0-3.234v1.617H20.77V29.957Zm0-3.233v1.616H20.77V26.725Zm0-3.234v1.616H20.77a1.727,1.727,0,0,0-1.616-1.616Zm-3.234,0v1.616h1.616V23.491Zm-3.234,0v1.616H14.3V23.491ZM8,33.867A1.967,1.967,0,1,1,9.969,31.9,1.969,1.969,0,0,1,8,33.867ZM24,17H16V9h.379a1.493,1.493,0,0,1,1.06.439l6.121,6.122a1.507,1.507,0,0,1,.44,1.06Z" transform="translate(4 -9)" fill="#1f5300"/></g></svg>