<svg xmlns="http://www.w3.org/2000/svg" xmlns:xlink="http://www.w3.org/1999/xlink" width="32" height="32" viewBox="0 0 32 32"><defs><linearGradient id="a" x1="0.5" x2="0.5" y2="1" gradientUnits="objectBoundingBox"><stop offset="0" stop-color="#00ff89"/><stop offset="1" stop-color="#007d43"/></linearGradient><clipPath id="c"><rect width="32" height="32"/></clipPath></defs><g id="b" clip-path="url(#c)"><rect width="21" height="19" transform="translate(6 12)" fill="#fff"/><path d="M22.5,41H1.5A1.5,1.5,0,0,1,0,39.5v-29A1.5,1.5,0,0,1,1.5,9H14v8.5A1.5,1.5,0,0,0,15.5,19H24V39.5A1.5,1.5,0,0,1,22.5,41ZM10.964,23.26,2.092,30.777l10.325,8.116,9.056-8.116Zm.818,12.185a4.368,4.368,0,1,1,4.368-4.369A4.374,4.374,0,0,1,11.782,35.446Zm1.907-6.623a.351.351,0,0,0-.146.033L11,30.017a.567.567,0,0,0-.278.278L9.56,32.837a.34.34,0,0,0,.022.331.344.344,0,0,0,.44.131l2.542-1.162a.564.564,0,0,0,.277-.278L14,29.317a.341.341,0,0,0-.023-.332A.353.353,0,0,0,13.689,28.822ZM11.782,31.64a.563.563,0,1,1,.4-.165A.561.561,0,0,1,11.782,31.64ZM24,17H16V9h.379a1.493,1.493,0,0,1,1.06.439l6.121,6.122a1.507,1.507,0,0,1,.44,1.06V17Z" transform="translate(4.357 -9)" fill="url(#a)"/><path d="M22.5,40.35a.851.851,0,0,0,.85-.85V19.65H15.5A2.152,2.152,0,0,1,13.35,17.5V9.65H1.5a.851.851,0,0,0-.85.85v29a.851.851,0,0,0,.85.85h21M10.964,22.611a.649.649,0,0,1,.378.121L21.85,30.249a.65.65,0,0,1,.056,1.013L12.85,39.378a.65.65,0,0,1-.836.027L1.69,31.288a.65.65,0,0,1-.018-1.007l8.872-7.517a.649.649,0,0,1,.42-.154M11.782,34.8a3.718,3.718,0,1,0-3.719-3.719A3.722,3.722,0,0,0,11.782,34.8m1.907-6.623h0a1.009,1.009,0,0,1,.839.461.994.994,0,0,1,.068.954l-1.162,2.54a1.216,1.216,0,0,1-.6.6L10.292,33.89a1,1,0,0,1-.417.092,1.009,1.009,0,0,1-.84-.462.992.992,0,0,1-.066-.953l1.163-2.544a1.218,1.218,0,0,1,.6-.6l2.543-1.162a1,1,0,0,1,.416-.092M23.305,16.35a.853.853,0,0,0-.2-.33L16.98,9.9a.853.853,0,0,0-.33-.205V16.35h6.655M22.5,41H1.5A1.5,1.5,0,0,1,0,39.5v-29A1.5,1.5,0,0,1,1.5,9H14v8.5A1.5,1.5,0,0,0,15.5,19H24V39.5A1.5,1.5,0,0,1,22.5,41ZM10.964,23.26,2.092,30.777l10.325,8.116,9.056-8.116Zm.818,12.185a4.368,4.368,0,1,1,4.368-4.369A4.374,4.374,0,0,1,11.782,35.446Zm1.907-6.623a.351.351,0,0,0-.146.033L11,30.017a.567.567,0,0,0-.278.278L9.56,32.837a.34.34,0,0,0,.022.331.344.344,0,0,0,.44.131l2.543-1.162a.564.564,0,0,0,.277-.278L14,29.317a.341.341,0,0,0-.023-.332A.353.353,0,0,0,13.689,28.822ZM11.782,31.64a.563.563,0,1,1,.4-.165A.561.561,0,0,1,11.782,31.64ZM24,17H16V9h.379a1.493,1.493,0,0,1,1.06.439l6.121,6.122a1.507,1.507,0,0,1,.44,1.06Z" transform="translate(4.357 -9)" fill="#004626"/></g></svg>