<svg xmlns="http://www.w3.org/2000/svg" xmlns:xlink="http://www.w3.org/1999/xlink" width="1024" height="1024" viewBox="0 0 1024 1024"><defs><clipPath id="b"><rect width="1024" height="1024"/></clipPath></defs><g id="a" clip-path="url(#b)"><path d="M-13475,492.645h-639a79.422,79.422,0,0,1-31.138-6.287,79.734,79.734,0,0,1-13.59-7.374,80.743,80.743,0,0,1-11.841-9.768,80.649,80.649,0,0,1-9.768-11.841,80.183,80.183,0,0,1-7.377-13.59,79.5,79.5,0,0,1-6.287-31.141v-712a79.468,79.468,0,0,1,6.287-31.137,80,80,0,0,1,7.377-13.59,80.663,80.663,0,0,1,9.768-11.841,80.716,80.716,0,0,1,11.841-9.768,80,80,0,0,1,13.59-7.377,79.486,79.486,0,0,1,31.138-6.287h375.174a128.914,128.914,0,0,0-9.422,27.146,131.574,131.574,0,0,0-3.217,28.98,129.381,129.381,0,0,0,38.144,92.091,130.013,130.013,0,0,0,38.365,26.624L-13791.669-87.8a129.354,129.354,0,0,0-38.085,92.092,129.354,129.354,0,0,0,38.085,92.092,129.352,129.352,0,0,0,92.09,38.084,129.345,129.345,0,0,0,92.095-38.084l116.77-116.77A130.347,130.347,0,0,0-13395,54.155V412.645a79.52,79.52,0,0,1-6.284,31.141,80.183,80.183,0,0,1-7.377,13.59,80.926,80.926,0,0,1-9.768,11.841,80.562,80.562,0,0,1-11.841,9.768,80,80,0,0,1-13.587,7.374A79.45,79.45,0,0,1-13475,492.645Zm-360.28-195a37.614,37.614,0,0,0-32.9,18.983,37.6,37.6,0,0,0-.036,37.973l40.776,70.835a37.618,37.618,0,0,0,32.934,19.04,37.609,37.609,0,0,0,32.933-19.04l40.776-70.835a37.6,37.6,0,0,0-.032-37.973,37.614,37.614,0,0,0-32.9-18.983Zm135.7-208.156a86.081,86.081,0,0,1-16.289-1.558,85.39,85.39,0,0,1-15.8-4.673,84.486,84.486,0,0,1-28.181-18.693,84.508,84.508,0,0,1-18.7-28.183,85.337,85.337,0,0,1-4.674-15.8,86.071,86.071,0,0,1-1.558-16.29,86.069,86.069,0,0,1,1.558-16.29,85.328,85.328,0,0,1,4.674-15.8,84.494,84.494,0,0,1,18.7-28.181l182.008-182.012h-43.388a84.679,84.679,0,0,1-60.272-24.964,84.682,84.682,0,0,1-24.968-60.273,85.066,85.066,0,0,1,5.428-30.058,84.532,84.532,0,0,1,15.655-26.068H-13475a79.514,79.514,0,0,1,31.141,6.287,79.986,79.986,0,0,1,13.587,7.377,80.535,80.535,0,0,1,11.841,9.768,80.627,80.627,0,0,1,9.768,11.841,80,80,0,0,1,7.377,13.59,79.511,79.511,0,0,1,6.284,31.137V8.044a84.782,84.782,0,0,1-24.877-11.574,85.792,85.792,0,0,1-19.73-18.6,85.007,85.007,0,0,1-13-24.037,84.81,84.81,0,0,1-4.686-27.89v-43.391l-182.012,182.012a84.49,84.49,0,0,1-28.182,18.693,85.346,85.346,0,0,1-15.8,4.673A86.081,86.081,0,0,1-13699.577,89.489Z" transform="translate(14262 466.354)" fill="#88c224"/><path d="M215.929,478.642a84.68,84.68,0,0,1-60.273-24.966L-20.535,277.485a85.237,85.237,0,0,1,0-120.546l176.19-176.19a85.24,85.24,0,0,1,120.543,0,85.337,85.337,0,0,1,0,120.547L245.52,131.975h257.4a85.238,85.238,0,0,1,0,170.476H245.52L276.2,333.132a85.238,85.238,0,0,1-60.272,145.51Z" transform="translate(1071.635 268.619) rotate(135)" fill="#afafaf"/></g></svg>