<svg xmlns="http://www.w3.org/2000/svg" xmlns:xlink="http://www.w3.org/1999/xlink" width="1024" height="1024" viewBox="0 0 1024 1024"><defs><clipPath id="b"><rect width="1024" height="1024"/></clipPath></defs><g id="a" clip-path="url(#b)"><path d="M404.2,458.416,714.692,768.9a54.566,54.566,0,0,1,0,77.394l-51.6,51.6a54.566,54.566,0,0,1-77.394,0L365.392,678.041,145.31,898.122a54.566,54.566,0,0,1-77.394,0l-51.824-51.6a54.566,54.566,0,0,1,0-77.394L326.581,458.644A54.637,54.637,0,0,1,404.2,458.416ZM326.581,20.078,16.092,330.567a54.566,54.566,0,0,0,0,77.394l51.6,51.6a54.566,54.566,0,0,0,77.394,0L365.163,239.475,585.245,459.557a54.566,54.566,0,0,0,77.394,0l51.6-51.6a54.566,54.566,0,0,0,0-77.394L403.746,20.078c-21-21.46-55.705-21.46-77.166,0Z" transform="translate(146.608 52.9)" fill="#afafaf"/></g></svg>