<svg xmlns="http://www.w3.org/2000/svg" xmlns:xlink="http://www.w3.org/1999/xlink" width="1024" height="1024" viewBox="0 0 1024 1024"><defs><clipPath id="b"><rect width="1024" height="1024"/></clipPath></defs><g id="a" clip-path="url(#b)"><path d="M835.722,355.825H546.434V66.536A64.294,64.294,0,0,0,482.147,2.25H417.861a64.294,64.294,0,0,0-64.286,64.286V355.825H64.286A64.294,64.294,0,0,0,0,420.111V484.4a64.294,64.294,0,0,0,64.286,64.286H353.575V837.972a64.294,64.294,0,0,0,64.286,64.286h64.286a64.294,64.294,0,0,0,64.286-64.286V548.684H835.722A64.294,64.294,0,0,0,900.008,484.4V420.111A64.294,64.294,0,0,0,835.722,355.825Z" transform="translate(61.995 59.746)" fill="#88c224"/></g></svg>