<svg xmlns="http://www.w3.org/2000/svg" xmlns:xlink="http://www.w3.org/1999/xlink" width="1024" height="1024" viewBox="0 0 1024 1024"><defs><clipPath id="b"><rect width="1024" height="1024"/></clipPath></defs><g id="a" clip-path="url(#b)"><path d="M937.86,201.522c-4.138-16.68-25.01-22.332-37.165-10.178L763.341,328.7,637.956,307.807,617.065,182.422,754.419,45.068C766.647,32.84,760.755,12,743.964,7.829A265.84,265.84,0,0,0,491.68,77.892c-73.221,73.221-93.374,179.359-62.9,271.9L34.62,743.957A118.205,118.205,0,0,0,201.788,911.125L595.619,517.293c92.579,30.866,198.514,10.492,272.215-63.21A265.886,265.886,0,0,0,937.86,201.522ZM118.222,871.854a44.332,44.332,0,1,1,44.332-44.332A44.343,44.343,0,0,1,118.222,871.854Z" transform="translate(39.128 39.127)" fill="#afafaf"/></g></svg>