<svg xmlns="http://www.w3.org/2000/svg" xmlns:xlink="http://www.w3.org/1999/xlink" width="1024" height="1024" viewBox="0 0 1024 1024"><defs><clipPath id="b"><rect width="1024" height="1024"/></clipPath></defs><g id="a" clip-path="url(#b)"><path d="M-12487.021,239.793h-197.03l48.717-48.717a289.626,289.626,0,0,0,48.356,12.944,287.979,287.979,0,0,0,49.971,4.4,286.364,286.364,0,0,0,90.852-14.705v5.217a40.837,40.837,0,0,1-3.2,15.939,40.572,40.572,0,0,1-8.74,12.986,40.56,40.56,0,0,1-12.986,8.74A40.811,40.811,0,0,1-12487.021,239.793Zm-260.67,0h-128.784a66.532,66.532,0,0,1-5.783-27.383,67.982,67.982,0,0,1,5.422-26.887,65.66,65.66,0,0,1,6.375-11.539,65.157,65.157,0,0,1,8.459-9.916l-.4-.4,117.609-117.587a241.343,241.343,0,0,1-34.78-125.191,244.4,244.4,0,0,1,4.926-48.879,241.329,241.329,0,0,1,14.13-45.527,242.57,242.57,0,0,1,22.357-41.2,244.28,244.28,0,0,1,29.613-35.9,244.219,244.219,0,0,1,35.894-29.618,242.537,242.537,0,0,1,41.2-22.363,241.308,241.308,0,0,1,45.532-14.133,244.413,244.413,0,0,1,48.892-4.928l.022-.023a244.613,244.613,0,0,1,46.953,4.539,241.388,241.388,0,0,1,43.9,13.042v98.121a150.443,150.443,0,0,0-89.4-29.147c-83.588,0-151.591,68-151.591,151.591s68,151.591,151.591,151.591a150.457,150.457,0,0,0,89.4-29.14V145.833a241.407,241.407,0,0,1-43.9,13.042,244.622,244.622,0,0,1-46.953,4.539h-.253a241.714,241.714,0,0,1-55.685-6.509,241.8,241.8,0,0,1-52.684-19.178l-102.062,102.066Zm-176.291,0h-135.152a40.811,40.811,0,0,1-15.938-3.2,40.564,40.564,0,0,1-12.987-8.74,40.547,40.547,0,0,1-8.739-12.986,40.818,40.818,0,0,1-3.2-15.939V-591.136a40.818,40.818,0,0,1,3.2-15.939,40.553,40.553,0,0,1,8.739-12.986,40.563,40.563,0,0,1,12.987-8.74,40.81,40.81,0,0,1,15.938-3.2h340.543v231.57a40.912,40.912,0,0,0,40.865,40.866h77.082a289.1,289.1,0,0,0-159.982,99.838,286.789,286.789,0,0,0-46.966,83.174,285.744,285.744,0,0,0-16.983,97.373,287.011,287.011,0,0,0,6.212,59.759,286.853,286.853,0,0,0,18.462,56.966l-94.32,94.3-31.427,32.222,6.326,6.325a113.173,113.173,0,0,0-7.934,42.017,115.062,115.062,0,0,0,3.274,27.382Zm388.428-216.733a106.714,106.714,0,0,1-106.593-106.593,106.712,106.712,0,0,1,106.593-106.589,106.582,106.582,0,0,1,27.072,3.483,106.028,106.028,0,0,1,24.519,9.855,107.257,107.257,0,0,1,21.072,15.336,107.465,107.465,0,0,1,16.735,19.926V-25.54a107.491,107.491,0,0,1-16.735,19.927,107.266,107.266,0,0,1-21.072,15.336,106,106,0,0,1-24.519,9.855A106.572,106.572,0,0,1-12535.555,23.06Zm89.4-375.032h0c-8.889-2.967-18.022-5.522-27.148-7.593h27.149v7.592Zm0-62.08H-12664.1V-632h10.386a41.028,41.028,0,0,1,15.686,3.087,40.362,40.362,0,0,1,13.26,8.834l166.7,166.866a40.52,40.52,0,0,1,8.832,13.24,40.5,40.5,0,0,1,3.086,15.537v10.385Z" transform="translate(13285.078 708.104)" fill="#88c224"/><path d="M349.27,3.761c-133.99,0-242.546,108.6-242.546,242.546A241.367,241.367,0,0,0,141.506,371.5L23.9,489.085l.4.4A66.366,66.366,0,0,0,4.042,537.826c0,37.245,29.666,66.363,66.869,66.342a66.93,66.93,0,0,0,48.13-19.981l.295.295L240.672,463.146a241.515,241.515,0,0,0,108.619,25.686c134.011,0,242.546-108.6,242.546-242.546S483.3,3.74,349.292,3.74Zm1.474,389.716A151.591,151.591,0,1,1,502.336,241.886,151.563,151.563,0,0,1,350.744,393.477Z" transform="translate(398.778 382.686)" fill="#afafaf"/></g></svg>