<svg xmlns="http://www.w3.org/2000/svg" xmlns:xlink="http://www.w3.org/1999/xlink" width="1024" height="1024" viewBox="0 0 1024 1024"><defs><clipPath id="b"><rect width="1024" height="1024"/></clipPath></defs><g id="a" clip-path="url(#b)"><path d="M-11319.361,735.811v624.835a85.2,85.2,0,0,1-85.205,85.2h-511.229a85.2,85.2,0,0,1-85.205-85.2V735.811a85.2,85.2,0,0,1,85.205-85.2h142.008A113.745,113.745,0,0,1-11660.181,537a113.745,113.745,0,0,1,113.606,113.606h142.008A85.2,85.2,0,0,1-11319.361,735.811Zm-340.819-127.795a42.623,42.623,0,0,0-42.615,42.615,42.623,42.623,0,0,0,42.615,42.615,42.623,42.623,0,0,0,42.615-42.615,42.623,42.623,0,0,0-42.615-42.615m170.409,202.371v-35.5a10.653,10.653,0,0,0-10.653-10.654h-319.512a10.654,10.654,0,0,0-10.654,10.654v35.5a10.653,10.653,0,0,0,10.653,10.654h319.512A10.654,10.654,0,0,0-11489.771,810.388Z" transform="translate(12172.182 -498.426)" fill="#00c4f5"/></g></svg>