<svg xmlns="http://www.w3.org/2000/svg" xmlns:xlink="http://www.w3.org/1999/xlink" width="1024" height="1024" viewBox="0 0 1024 1024"><defs><clipPath id="b"><rect width="1024" height="1024"/></clipPath></defs><g id="a" clip-path="url(#b)"><path d="M264.673,825.607H88.224A88.247,88.247,0,0,1,0,737.383V90.4A88.247,88.247,0,0,1,88.224,2.18H264.673A88.247,88.247,0,0,1,352.9,90.4V737.383A88.247,88.247,0,0,1,264.673,825.607Zm558.755-88.224V90.4A88.247,88.247,0,0,0,735.2,2.18H558.755A88.247,88.247,0,0,0,470.53,90.4V737.383a88.247,88.247,0,0,0,88.224,88.224H735.2A88.247,88.247,0,0,0,823.428,737.383Z" transform="translate(100.286 98.106)"/></g></svg>