<svg xmlns="http://www.w3.org/2000/svg" xmlns:xlink="http://www.w3.org/1999/xlink" width="32" height="32" viewBox="0 0 32 32"><defs><linearGradient id="a" x1="0.5" x2="0.5" y2="1" gradientUnits="objectBoundingBox"><stop offset="0" stop-color="#25ba00"/><stop offset="1" stop-color="#296800"/></linearGradient><clipPath id="c"><rect width="32" height="32"/></clipPath></defs><g id="b" clip-path="url(#c)"><rect width="15" height="19" transform="translate(8 11)" fill="#fff"/><path d="M22.5,41H1.5A1.5,1.5,0,0,1,0,39.5v-29A1.5,1.5,0,0,1,1.5,9H14v8.5A1.5,1.5,0,0,0,15.5,19H24V39.5A1.5,1.5,0,0,1,22.5,41ZM11.643,22.117a6,6,0,0,0-5.926,6.062c0,2.008.56,2.824,3.252,6.746.594.866,1.267,1.846,2.066,3.03a.732.732,0,0,0,1.219,0c.8-1.185,1.472-2.165,2.065-3.029C17.01,31,17.57,30.186,17.57,28.178A6,6,0,0,0,11.643,22.117Zm0,8.587a2.526,2.526,0,1,1,2.47-2.525A2.5,2.5,0,0,1,11.643,30.7ZM24,17H16V9h.379a1.493,1.493,0,0,1,1.06.439l6.121,6.122a1.507,1.507,0,0,1,.44,1.06V17Z" transform="translate(4.357 -9)" fill="url(#a)"/><path d="M22.5,40.35a.851.851,0,0,0,.85-.85V19.65H15.5A2.152,2.152,0,0,1,13.35,17.5V9.65H1.5a.851.851,0,0,0-.85.85v29a.851.851,0,0,0,.85.85h21M11.643,21.467a6.653,6.653,0,0,1,6.576,6.712c0,2.21-.646,3.151-3.366,7.114-.593.863-1.264,1.842-2.063,3.026a1.382,1.382,0,0,1-2.3,0c-.8-1.183-1.47-2.162-2.063-3.026-2.719-3.962-3.366-4.9-3.366-7.113a6.653,6.653,0,0,1,6.577-6.712m0,8.587a1.876,1.876,0,1,0-1.82-1.875,1.85,1.85,0,0,0,1.82,1.875m11.662-13.7a.853.853,0,0,0-.2-.33L16.98,9.9a.853.853,0,0,0-.33-.205V16.35h6.655M22.5,41H1.5A1.5,1.5,0,0,1,0,39.5v-29A1.5,1.5,0,0,1,1.5,9H14v8.5A1.5,1.5,0,0,0,15.5,19H24V39.5A1.5,1.5,0,0,1,22.5,41ZM11.643,22.117a6,6,0,0,0-5.927,6.062c0,2.008.56,2.824,3.252,6.746.594.866,1.267,1.846,2.066,3.03a.732.732,0,0,0,1.219,0c.8-1.185,1.472-2.165,2.065-3.029C17.01,31,17.57,30.186,17.57,28.178A6,6,0,0,0,11.643,22.117Zm0,8.587a2.526,2.526,0,1,1,2.47-2.525A2.5,2.5,0,0,1,11.643,30.7ZM24,17H16V9h.379a1.493,1.493,0,0,1,1.06.439l6.121,6.122a1.507,1.507,0,0,1,.44,1.06Z" transform="translate(4.357 -9)" fill="#1f5300"/></g></svg>