<svg xmlns="http://www.w3.org/2000/svg" xmlns:xlink="http://www.w3.org/1999/xlink" width="1024" height="1024" viewBox="0 0 1024 1024"><defs><clipPath id="b"><rect width="1024" height="1024"/></clipPath></defs><g id="a" clip-path="url(#b)"><path d="M-10095.5-1156.274h-113.77l47.984-47.985a224.371,224.371,0,0,0,39.733,3.549,222.364,222.364,0,0,0,57.246-7.446,217.413,217.413,0,0,0,52.58-21.713,84.357,84.357,0,0,1-27.775,52.364,84.162,84.162,0,0,1-25.533,15.568A84.1,84.1,0,0,1-10095.5-1156.274Zm-184.479,0h-215.248l211.214-211.214a175.78,175.78,0,0,1-8.58-45.858,173.909,173.909,0,0,1,3.791-46.333,168.868,168.868,0,0,1,16.309-44,167.374,167.374,0,0,1,28.973-38.86,172.662,172.662,0,0,1,26.862-21.939,170.46,170.46,0,0,1,29.782-15.672,171.24,171.24,0,0,1,31.729-9.4,172.465,172.465,0,0,1,32.7-3.135,172.083,172.083,0,0,1,41.347,5.042,14.2,14.2,0,0,1,10.384,10.092,14.081,14.081,0,0,1-3.653,13.882l-88.43,88.431,13.451,80.722,80.722,13.452,57.592-57.592v147.283a167.8,167.8,0,0,1-52.391,30.543,170.4,170.4,0,0,1-28.7,7.6,172.869,172.869,0,0,1-29.429,2.526,173.711,173.711,0,0,1-55.054-8.942l-103.377,103.378Zm-285.957,0h-261.6a83.942,83.942,0,0,1-32.879-6.638,84.5,84.5,0,0,1-14.349-7.788,85.1,85.1,0,0,1-12.5-10.314,85.108,85.108,0,0,1-10.313-12.5,84.5,84.5,0,0,1-7.788-14.348,83.941,83.941,0,0,1-6.638-32.877v-506.8a83.942,83.942,0,0,1,6.638-32.878,84.544,84.544,0,0,1,7.788-14.347,85.13,85.13,0,0,1,10.313-12.5,85.093,85.093,0,0,1,12.5-10.314,84.469,84.469,0,0,1,14.349-7.788,83.943,83.943,0,0,1,32.879-6.638h281.551l112.623,112.62h337.86a83.952,83.952,0,0,1,32.88,6.638,84.507,84.507,0,0,1,14.348,7.788,85.119,85.119,0,0,1,12.5,10.314,85.14,85.14,0,0,1,10.314,12.5,84.617,84.617,0,0,1,7.787,14.348,83.949,83.949,0,0,1,6.638,32.879v125.943c-1.557,1.29-3.076,2.675-4.519,4.117l-70.235,70.235-20.112-3.349-3.35-20.112,70.236-70.236a64.341,64.341,0,0,0,16.475-62.617,64.5,64.5,0,0,0-46.536-45.246,222.109,222.109,0,0,0-53.371-6.509,219.819,219.819,0,0,0-156.432,64.794,219.327,219.327,0,0,0-32.966,42.183,218.037,218.037,0,0,0-21.4,47.976,220.227,220.227,0,0,0-9.341,51.661,224.46,224.46,0,0,0,3.206,53.239l-226.561,226.56Z" transform="translate(10943.595 1919.905)" fill="#00c4f5"/><path d="M603.8,129.741a14.26,14.26,0,0,0-23.927-6.553l-88.429,88.429-80.723-13.45-13.45-80.723L485.7,29.015a14.3,14.3,0,0,0-6.731-23.974A171.149,171.149,0,0,0,316.546,50.147c-47.14,47.14-60.114,115.472-40.492,175.051L22.289,478.964A76.1,76.1,0,0,0,129.912,586.587L383.463,333.036c59.6,19.872,127.8,6.755,175.253-40.695a171.179,171.179,0,0,0,45.083-162.6ZM76.112,561.3a28.541,28.541,0,1,1,28.541-28.541A28.548,28.548,0,0,1,76.112,561.3Z" transform="translate(383.53 327.219)" fill="#afafaf"/></g></svg>