<svg xmlns="http://www.w3.org/2000/svg" xmlns:xlink="http://www.w3.org/1999/xlink" width="32" height="32" viewBox="0 0 32 32"><defs><linearGradient id="a" x1="0.5" x2="0.5" y2="1" gradientUnits="objectBoundingBox"><stop offset="0" stop-color="#ffa100"/><stop offset="1" stop-color="#a96b00"/></linearGradient><clipPath id="c"><rect width="32" height="32"/></clipPath></defs><g id="b" clip-path="url(#c)"><rect width="21" height="19" transform="translate(6 11)" fill="#fff"/><path d="M22.5,41H1.5A1.5,1.5,0,0,1,0,39.5v-29A1.5,1.5,0,0,1,1.5,9H14v8.5A1.5,1.5,0,0,0,15.5,19H24V39.5A1.5,1.5,0,0,1,22.5,41ZM3.192,26.562V37.3a16.842,16.842,0,0,0,3.231.387,4.637,4.637,0,0,0,1.756-.268,1.1,1.1,0,0,0,.771-1.042,1.6,1.6,0,0,0-.5-.908,2.614,2.614,0,0,1-.79-1.719,1.82,1.82,0,0,1,2.049-1.816A1.8,1.8,0,0,1,11.7,33.7a2.29,2.29,0,0,1-.608,1.463,2.073,2.073,0,0,0-.562,1.309c0,.787.646,1.154,2.032,1.154a19.774,19.774,0,0,0,2.253-.186,14.86,14.86,0,0,1,1.556-.139l0-.007c-.071-.26-.672-2.567.014-3.48a.971.971,0,0,1,.822-.384,2.088,2.088,0,0,1,1.314.56,2.306,2.306,0,0,0,1.469.605,1.8,1.8,0,0,0,1.77-1.985,1.9,1.9,0,0,0-1.823-2.121,2.988,2.988,0,0,0-1.73.624,1.79,1.79,0,0,1-.915.395.719.719,0,0,1-.609-.3c-.854-1.158.414-5.31.435-5.379a.054.054,0,0,1-.016.007,15.561,15.561,0,0,1-4.594,1.108,2.344,2.344,0,0,1-1.224-.266,1.048,1.048,0,0,1-.493-.956,2.072,2.072,0,0,1,.562-1.308,2.291,2.291,0,0,0,.607-1.464,1.791,1.791,0,0,0-1.981-1.764A1.9,1.9,0,0,0,7.84,23a2.964,2.964,0,0,0,.626,1.723,1.777,1.777,0,0,1,.4.912c0,.869-.838,1.31-2.49,1.31A16.479,16.479,0,0,1,3.192,26.562ZM24,17H16V9h.379a1.493,1.493,0,0,1,1.06.439l6.121,6.122a1.507,1.507,0,0,1,.44,1.06V17Z" transform="translate(4.357 -9)" fill="url(#a)"/><path d="M22.5,40.35a.851.851,0,0,0,.85-.85V19.65H15.5A2.152,2.152,0,0,1,13.35,17.5V9.65H1.5a.851.851,0,0,0-.85.85v29a.851.851,0,0,0,.85.85h21M3.193,25.912a.65.65,0,0,1,.147.017,15.891,15.891,0,0,0,3.033.369,3.456,3.456,0,0,0,1.562-.254.412.412,0,0,0,.278-.405,1.629,1.629,0,0,0-.29-.556A3.6,3.6,0,0,1,7.19,23a2.528,2.528,0,0,1,2.789-2.467A2.432,2.432,0,0,1,12.61,22.95a2.9,2.9,0,0,1-.738,1.855,1.471,1.471,0,0,0-.431.917.4.4,0,0,0,.185.4,1.7,1.7,0,0,0,.882.168,14.316,14.316,0,0,0,4.337-1.055.65.65,0,0,1,.894.781,21.135,21.135,0,0,0-.527,2.2c-.357,2-.068,2.514-.006,2.6.02.027.028.038.086.038a1.634,1.634,0,0,0,.561-.29,3.626,3.626,0,0,1,2.084-.729,2.52,2.52,0,0,1,2.473,2.771,2.436,2.436,0,0,1-2.42,2.634,2.915,2.915,0,0,1-1.858-.735,1.486,1.486,0,0,0-.925-.431.327.327,0,0,0-.3.125c-.331.44-.2,1.81.086,2.888a.65.65,0,0,1-.616.858,14.564,14.564,0,0,0-1.478.135,20.248,20.248,0,0,1-2.331.19,3.782,3.782,0,0,1-1.857-.366,1.569,1.569,0,0,1-.825-1.437,2.7,2.7,0,0,1,.693-1.7,1.678,1.678,0,0,0,.477-1.072c0-1.06-1.118-1.114-1.342-1.114-.421,0-1.4.114-1.4,1.166a2.014,2.014,0,0,0,.64,1.3A2.1,2.1,0,0,1,9.6,36.381a1.737,1.737,0,0,1-1.167,1.64,5.253,5.253,0,0,1-2.01.32,17.384,17.384,0,0,1-3.37-.4.65.65,0,0,1-.512-.635V26.562a.65.65,0,0,1,.65-.65M23.305,16.35a.853.853,0,0,0-.2-.33L16.98,9.9a.853.853,0,0,0-.33-.205V16.35h6.655M22.5,41H1.5A1.5,1.5,0,0,1,0,39.5v-29A1.5,1.5,0,0,1,1.5,9H14v8.5A1.5,1.5,0,0,0,15.5,19H24V39.5A1.5,1.5,0,0,1,22.5,41ZM3.192,26.562V37.3a16.842,16.842,0,0,0,3.231.387,4.637,4.637,0,0,0,1.756-.268,1.1,1.1,0,0,0,.771-1.042,1.6,1.6,0,0,0-.5-.908,2.614,2.614,0,0,1-.79-1.719,1.82,1.82,0,0,1,2.049-1.816A1.8,1.8,0,0,1,11.7,33.7a2.29,2.29,0,0,1-.608,1.463,2.073,2.073,0,0,0-.562,1.309c0,.787.646,1.154,2.032,1.154a19.774,19.774,0,0,0,2.253-.186,14.86,14.86,0,0,1,1.556-.139l0-.007c-.071-.26-.672-2.567.014-3.48a.971.971,0,0,1,.822-.384,2.088,2.088,0,0,1,1.314.56,2.306,2.306,0,0,0,1.469.605,1.8,1.8,0,0,0,1.77-1.985,1.9,1.9,0,0,0-1.823-2.121,2.988,2.988,0,0,0-1.73.624,1.79,1.79,0,0,1-.915.395.719.719,0,0,1-.609-.3c-.854-1.158.414-5.31.435-5.379a.053.053,0,0,1-.016.007,15.561,15.561,0,0,1-4.594,1.108,2.344,2.344,0,0,1-1.224-.266,1.048,1.048,0,0,1-.493-.956,2.072,2.072,0,0,1,.562-1.308,2.291,2.291,0,0,0,.607-1.464,1.791,1.791,0,0,0-1.981-1.764A1.9,1.9,0,0,0,7.84,23a2.964,2.964,0,0,0,.626,1.723,1.777,1.777,0,0,1,.4.912c0,.869-.838,1.31-2.49,1.31A16.479,16.479,0,0,1,3.192,26.562ZM24,17H16V9h.379a1.493,1.493,0,0,1,1.06.439l6.121,6.122a1.507,1.507,0,0,1,.44,1.06Z" transform="translate(4.357 -9)" fill="#553600"/></g></svg>