<svg xmlns="http://www.w3.org/2000/svg" xmlns:xlink="http://www.w3.org/1999/xlink" width="1024" height="1024" viewBox="0 0 1024 1024"><defs><clipPath id="b"><rect width="1024" height="1024"/></clipPath></defs><g id="a" clip-path="url(#b)"><path d="M746.5,55.3H539.138L522.9,22.983A41.472,41.472,0,0,0,485.743,0H288.232a40.988,40.988,0,0,0-36.979,22.982L235.009,55.3H27.648A27.648,27.648,0,0,0,0,82.945v55.3a27.648,27.648,0,0,0,27.648,27.648H746.5a27.648,27.648,0,0,0,27.648-27.648v-55.3A27.648,27.648,0,0,0,746.5,55.3ZM91.93,806.98A82.944,82.944,0,0,0,174.7,884.74H599.446a82.942,82.942,0,0,0,82.771-77.75l36.634-585.805H55.3Z" transform="translate(124.926 69.63)" fill="#db0056"/></g></svg>