<svg xmlns="http://www.w3.org/2000/svg" xmlns:xlink="http://www.w3.org/1999/xlink" width="1024" height="1024" viewBox="0 0 1024 1024"><defs><clipPath id="b"><rect width="1024" height="1024"/></clipPath></defs><g id="a" clip-path="url(#b)"><path d="M-10463.451-2137.14h-407.868a40.638,40.638,0,0,1-15.867-3.186,40.387,40.387,0,0,1-12.928-8.7,40.368,40.368,0,0,1-8.7-12.927,40.634,40.634,0,0,1-3.187-15.867v-751.5a40.635,40.635,0,0,1,3.187-15.867,40.365,40.365,0,0,1,8.7-12.927,40.38,40.38,0,0,1,12.928-8.7,40.638,40.638,0,0,1,15.867-3.186h339.662v230.526a40.728,40.728,0,0,0,40.682,40.681h33.446a63.888,63.888,0,0,0-4.388,12.932,64.188,64.188,0,0,0-1.537,13.977v47.391a63.6,63.6,0,0,0,18.961,45.471,65.056,65.056,0,0,0,46.144,18.865h.008l2.588-.014h.021c12.5,0,23.45,1.032,32.555,3.067,8.915,1.993,13.095,4.3,14.479,5.192v83.676a64.241,64.241,0,0,0-40.769,20.87,64.171,64.171,0,0,0-16.609,43.1v47.815a64.169,64.169,0,0,0,16.609,43.1,64.235,64.235,0,0,0,40.769,20.868v83.942c-1.738,1.018-5.824,2.974-13.672,4.636-9.415,1.994-21.393,3-35.6,3l-1.115,0a64.541,64.541,0,0,0-64.364,63.762Zm162.319,0h-112.31a14.248,14.248,0,0,1,4.389-9.755,14.323,14.323,0,0,1,9.969-4.006h1.131a265.415,265.415,0,0,0,29.712-1.486,138.018,138.018,0,0,0,32.54-7.254c24.551-9.164,37-25.511,37-48.587v-133.88h-43.031a14.254,14.254,0,0,1-10.143-4.2,14.245,14.245,0,0,1-4.2-10.141v-47.815a14.248,14.248,0,0,1,4.2-10.142,14.253,14.253,0,0,1,10.143-4.2h43.031V-2552.27c0-22.6-12.244-38.893-36.392-48.428a134.056,134.056,0,0,0-31.841-7.73,226.3,226.3,0,0,0-28.806-1.743c-1.053,0-2.128.007-3.2.019h-.166a14.264,14.264,0,0,1-10.145-4.2,14.247,14.247,0,0,1-4.206-10.148v-47.391a14.263,14.263,0,0,1,4.163-10.108,14.241,14.241,0,0,1,10.077-4.236c2.728-.018,4.963-.026,7.034-.026,20.551,0,42.661.832,65.1,6.869a154.76,154.76,0,0,1,16.921,5.6,145.147,145.147,0,0,1,16.853,7.988,146.416,146.416,0,0,1,16.624,10.793,159.189,159.189,0,0,1,16.23,14.014v463.168a40.633,40.633,0,0,1-3.187,15.867,40.368,40.368,0,0,1-8.7,12.927,40.378,40.378,0,0,1-12.928,8.7A40.638,40.638,0,0,1-10301.132-2137.141Zm40.682-615.895h-216.965V-2970h10.341a40.843,40.843,0,0,1,15.614,3.072,40.2,40.2,0,0,1,13.2,8.794l165.942,166.112a40.3,40.3,0,0,1,8.795,13.179,40.328,40.328,0,0,1,3.071,15.469v10.337Z" transform="translate(11021.724 3034.176)" fill="#00c4f5"/><path d="M306.006,62.214V14.421A14.336,14.336,0,0,0,291.851.078C252.958-.412,198.986.012,153,45.373,107.9.879,56.156-.137,14.24.136A14.338,14.338,0,0,0,0,14.48V61.869A14.339,14.339,0,0,0,14.517,76.21c31.038-.371,100.235,4.167,100.235,57.884v133.66H71.72A14.345,14.345,0,0,0,57.376,282.1v47.813A14.345,14.345,0,0,0,71.72,344.256h43.032V478.134c0,53.709-67.028,57.413-100.349,57.327A14.347,14.347,0,0,0,0,549.8V597.59a14.336,14.336,0,0,0,14.155,14.343c38.893.489,92.865.065,138.848-45.3,45.1,44.494,96.847,45.51,138.763,45.238a14.338,14.338,0,0,0,14.24-14.344V550.141A14.339,14.339,0,0,0,291.489,535.8c-31.038.372-100.235-3.948-100.235-57.665V344.256h43.032a14.345,14.345,0,0,0,14.344-14.344V282.1a14.345,14.345,0,0,0-14.344-14.344H191.254V134.095c0-53.709,67.029-57.631,100.349-57.546A14.345,14.345,0,0,0,306.006,62.214Z" transform="translate(608.27 347.813)" fill="#afafaf"/></g></svg>