<svg xmlns="http://www.w3.org/2000/svg" xmlns:xlink="http://www.w3.org/1999/xlink" width="1024" height="1024" viewBox="0 0 1024 1024"><defs><clipPath id="b"><rect width="1024" height="1024"/></clipPath></defs><g id="a" clip-path="url(#b)"><path d="M845.712,163.34,712.022,29.65a93.548,93.548,0,0,0-66.148-27.4H93.548A93.547,93.547,0,0,0,0,95.8V781.814a93.547,93.547,0,0,0,93.548,93.548H779.564a93.547,93.547,0,0,0,93.548-93.548V229.488a93.547,93.547,0,0,0-27.4-66.148ZM436.556,769.5a124.73,124.73,0,1,1,124.73-124.73A124.731,124.731,0,0,1,436.556,769.5Zm187.1-612.348v82.709a23.388,23.388,0,0,1-23.387,23.387H148.117a23.388,23.388,0,0,1-23.387-23.387V150.367a23.388,23.388,0,0,1,23.387-23.387H593.482a23.379,23.379,0,0,1,16.537,6.85l6.782,6.782a23.379,23.379,0,0,1,6.85,16.536Z" transform="translate(75.444 73.194)" fill="#00c4f5"/></g></svg>