<svg xmlns="http://www.w3.org/2000/svg" xmlns:xlink="http://www.w3.org/1999/xlink" width="32" height="32" viewBox="0 0 32 32"><defs><linearGradient id="a" x1="0.5" x2="0.5" y2="1" gradientUnits="objectBoundingBox"><stop offset="0" stop-color="#f33"/><stop offset="1" stop-color="#890000"/></linearGradient><clipPath id="c"><rect width="32" height="32"/></clipPath></defs><g id="b" clip-path="url(#c)"><rect width="21" height="19" transform="translate(6 12)" fill="#fff"/><path d="M22.5,41H1.5A1.5,1.5,0,0,1,0,39.5v-29A1.5,1.5,0,0,1,1.5,9H14v8.5A1.5,1.5,0,0,0,15.5,19H24V39.5A1.5,1.5,0,0,1,22.5,41ZM12,22.713a7.965,7.965,0,1,0,7.965,7.965A7.974,7.974,0,0,0,12,22.713ZM12,35.24a1.477,1.477,0,1,1,1.478-1.478A1.479,1.479,0,0,1,12,35.24Zm.78-3.533H11.22a.385.385,0,0,1-.384-.365L10.6,26.974a.385.385,0,0,1,.384-.406h2.036a.385.385,0,0,1,.385.406l-.239,4.368A.385.385,0,0,1,12.78,31.706ZM24,17H16V9h.379a1.493,1.493,0,0,1,1.06.439l6.121,6.122a1.507,1.507,0,0,1,.44,1.06V17Z" transform="translate(4.357 -9)" fill="url(#a)"/><path d="M22.5,40.35a.851.851,0,0,0,.85-.85V19.65H15.5A2.152,2.152,0,0,1,13.35,17.5V9.65H1.5a.851.851,0,0,0-.85.85v29a.851.851,0,0,0,.85.85h21M12,22.063a8.615,8.615,0,1,1-8.615,8.615A8.625,8.625,0,0,1,12,22.063M12,34.59a.827.827,0,1,0-.827-.828A.829.829,0,0,0,12,34.59m.529-3.533.21-3.838H11.262l.21,3.838h1.058M23.305,16.35a.853.853,0,0,0-.2-.33L16.98,9.9a.853.853,0,0,0-.33-.205V16.35h6.655M22.5,41H1.5A1.5,1.5,0,0,1,0,39.5v-29A1.5,1.5,0,0,1,1.5,9H14v8.5A1.5,1.5,0,0,0,15.5,19H24V39.5A1.5,1.5,0,0,1,22.5,41ZM12,22.713a7.965,7.965,0,1,0,7.965,7.965A7.974,7.974,0,0,0,12,22.713ZM12,35.24a1.477,1.477,0,1,1,1.478-1.478A1.479,1.479,0,0,1,12,35.24Zm.78-3.533H11.22a.385.385,0,0,1-.384-.365L10.6,26.974a.385.385,0,0,1,.384-.406h2.036a.385.385,0,0,1,.385.406l-.238,4.368A.385.385,0,0,1,12.78,31.706ZM24,17H16V9h.379a1.493,1.493,0,0,1,1.06.439l6.121,6.122a1.507,1.507,0,0,1,.44,1.06Z" transform="translate(4.357 -9)" fill="#3b0b0b"/></g></svg>