<svg xmlns="http://www.w3.org/2000/svg" xmlns:xlink="http://www.w3.org/1999/xlink" width="32" height="32" viewBox="0 0 32 32"><defs><linearGradient id="a" x1="0.5" x2="0.5" y2="1" gradientUnits="objectBoundingBox"><stop offset="0" stop-color="#f33"/><stop offset="1" stop-color="#890000"/></linearGradient><clipPath id="c"><rect width="32" height="32"/></clipPath></defs><g id="b" clip-path="url(#c)"><rect width="21" height="19" transform="translate(6 12)" fill="#fff"/><path d="M22.5,41H1.5A1.5,1.5,0,0,1,0,39.5v-29A1.5,1.5,0,0,1,1.5,9H14v8.5A1.5,1.5,0,0,0,15.5,19H24V39.5A1.5,1.5,0,0,1,22.5,41Zm-9.974-19.2c-4.9,0-8.883,3.238-8.883,7.218a6.774,6.774,0,0,0,3.294,5.609,3.383,3.383,0,0,1,.037.5,3.541,3.541,0,0,1-2.22,2.857v.467c2.171-.05,4.449-.362,6.387-2.3a10.989,10.989,0,0,0,1.385.087c4.9,0,8.883-3.238,8.883-7.217S17.424,21.805,12.526,21.805ZM24,17H16V9h.379a1.493,1.493,0,0,1,1.06.439l6.121,6.122a1.507,1.507,0,0,1,.44,1.06V17Z" transform="translate(4.357 -9)" fill="url(#a)"/><path d="M22.5,40.35a.851.851,0,0,0,.85-.85V19.65H15.5A2.152,2.152,0,0,1,13.35,17.5V9.65H1.5a.851.851,0,0,0-.85.85v29a.851.851,0,0,0,.85.85h21M6.321,35a7.344,7.344,0,0,1-3.328-5.975c0-4.338,4.276-7.868,9.533-7.868s9.533,3.53,9.533,7.868-4.276,7.867-9.533,7.867c-.386,0-.773-.019-1.154-.057a9.3,9.3,0,0,1-6.6,2.27.65.65,0,0,1-.665-.65v-.467a.65.65,0,0,1,.364-.584c.856-.419,1.856-1.266,1.856-2.273q0-.066,0-.131M23.305,16.35a.853.853,0,0,0-.2-.33L16.98,9.9a.853.853,0,0,0-.33-.205V16.35h6.655M22.5,41H1.5A1.5,1.5,0,0,1,0,39.5v-29A1.5,1.5,0,0,1,1.5,9H14v8.5A1.5,1.5,0,0,0,15.5,19H24V39.5A1.5,1.5,0,0,1,22.5,41Zm-9.974-19.2c-4.9,0-8.883,3.238-8.883,7.218a6.774,6.774,0,0,0,3.294,5.609,3.383,3.383,0,0,1,.037.5,3.541,3.541,0,0,1-2.22,2.857v.467c2.171-.05,4.449-.362,6.387-2.3a10.989,10.989,0,0,0,1.385.087c4.9,0,8.883-3.238,8.883-7.217S17.424,21.805,12.526,21.805ZM24,17H16V9h.379a1.493,1.493,0,0,1,1.06.439l6.121,6.122a1.507,1.507,0,0,1,.44,1.06Z" transform="translate(4.357 -9)" fill="#3b0b0b"/></g></svg>