<svg xmlns="http://www.w3.org/2000/svg" xmlns:xlink="http://www.w3.org/1999/xlink" width="1024" height="1024" viewBox="0 0 1024 1024"><defs><clipPath id="b"><rect width="1024" height="1024"/></clipPath></defs><g id="a" clip-path="url(#b)"><path d="M532.847,3.772c-205.24,0-371.521,166.346-371.521,371.522A369.715,369.715,0,0,0,214.6,567.053L34.454,747.17l.613.613C15.846,766.2,4.042,792.32,4.042,821.829c0,57.05,45.44,101.652,102.426,101.62a102.52,102.52,0,0,0,73.724-30.605l.451.451L366.5,707.438A369.942,369.942,0,0,0,532.88,746.783c205.272,0,371.521-166.346,371.521-371.521S738.152,3.74,532.879,3.74Zm2.258,596.95c-128.291,0-232.2-103.942-232.2-232.2,0-128.226,103.91-232.2,232.2-232.2s232.2,103.974,232.2,232.2C767.306,496.78,663.4,600.722,535.1,600.722Z" transform="translate(57.778 48.405)" fill="#afafaf"/></g></svg>