<svg xmlns="http://www.w3.org/2000/svg" xmlns:xlink="http://www.w3.org/1999/xlink" width="32" height="32" viewBox="0 0 32 32"><defs><linearGradient id="a" x1="0.5" x2="0.5" y2="1" gradientUnits="objectBoundingBox"><stop offset="0" stop-color="#b400e1"/><stop offset="1" stop-color="#8000a0"/></linearGradient><clipPath id="c"><rect width="32" height="32"/></clipPath></defs><g id="b" clip-path="url(#c)"><rect width="21" height="20" transform="translate(6 11)" fill="#fff"/><path d="M22.5,41H1.5A1.5,1.5,0,0,1,0,39.5v-29A1.5,1.5,0,0,1,1.5,9H14v8.5A1.5,1.5,0,0,0,15.5,19H24V39.5A1.5,1.5,0,0,1,22.5,41ZM7.65,28.93l2.669,2.9-3.776.689L9.932,34.4,6.543,36.284l3.776.689L8.911,38.5H21.542V25.188l-1.259,1.289L19.629,22.5l-1.788,3.569L16.051,22.5,15.4,26.477l-2.75-2.812.545,4-3.44-1.78L11.444,29.5ZM24,17H16V9h.379a1.493,1.493,0,0,1,1.06.439l6.121,6.122a1.507,1.507,0,0,1,.44,1.06V17Z" transform="translate(4.357 -9)" fill="url(#a)"/><path d="M22.5,40.35a.851.851,0,0,0,.85-.85V19.65H15.5A2.152,2.152,0,0,1,13.35,17.5V9.65H1.5a.851.851,0,0,0-.85.85v29a.851.851,0,0,0,.85.85h21M9.041,37.4l-2.615-.477a.65.65,0,0,1-.2-1.208L8.595,34.4,6.227,33.082a.65.65,0,0,1,.2-1.208L9.041,31.4,7.172,29.37a.65.65,0,0,1,.575-1.083l2.594.393L9.163,26.155a.65.65,0,0,1,.888-.852l2.328,1.2L12,23.752a.65.65,0,0,1,1.109-.542L14.964,25.1l.445-2.71a.65.65,0,0,1,1.222-.186l1.209,2.41,1.207-2.41a.65.65,0,0,1,1.222.186l.446,2.71.362-.37a.65.65,0,0,1,1.115.454V38.5a.65.65,0,0,1-.65.65H8.911a.65.65,0,0,1-.478-1.091l.608-.659M23.305,16.35a.853.853,0,0,0-.2-.33L16.98,9.9a.853.853,0,0,0-.33-.205V16.35h6.655M22.5,41H1.5A1.5,1.5,0,0,1,0,39.5v-29A1.5,1.5,0,0,1,1.5,9H14v8.5A1.5,1.5,0,0,0,15.5,19H24V39.5A1.5,1.5,0,0,1,22.5,41ZM7.65,28.93l2.669,2.9-3.776.689L9.932,34.4,6.543,36.284l3.776.689L8.911,38.5H21.542V25.188l-1.259,1.289L19.629,22.5l-1.788,3.569L16.051,22.5,15.4,26.477l-2.75-2.812.545,4-3.44-1.78L11.444,29.5ZM24,17H16V9h.379a1.493,1.493,0,0,1,1.06.439l6.121,6.122a1.507,1.507,0,0,1,.44,1.06Z" transform="translate(4.357 -9)" fill="#470059"/></g></svg>