<svg xmlns="http://www.w3.org/2000/svg" xmlns:xlink="http://www.w3.org/1999/xlink" width="32" height="32" viewBox="0 0 32 32"><defs><linearGradient id="a" x1="0.5" x2="0.5" y2="1" gradientUnits="objectBoundingBox"><stop offset="0" stop-color="#25ba00"/><stop offset="1" stop-color="#296800"/></linearGradient><clipPath id="c"><rect width="32" height="32"/></clipPath></defs><g id="b" clip-path="url(#c)"><rect width="21" height="17" transform="translate(6 13)" fill="#fff"/><path d="M22.5,41H1.5A1.5,1.5,0,0,1,0,39.5v-29A1.5,1.5,0,0,1,1.5,9H14v8.5A1.5,1.5,0,0,0,15.5,19H24V39.5A1.5,1.5,0,0,1,22.5,41Zm-3.346-4.576v1.617a1.752,1.752,0,0,0,1.616-1.617Zm-3.234,0v1.617h1.616V36.425ZM2.985,29.957v6.467A1.619,1.619,0,0,0,4.6,38.042h9.7V29.957Zm16.168,3.234v1.617H20.77V33.191Zm0-3.234v1.617H20.77V29.957Zm0-3.233v1.616H20.77V26.725Zm-16.168,0v1.616H4.6V26.725Zm16.168-3.234v1.616H20.77a1.727,1.727,0,0,0-1.616-1.616Zm-3.234,0v1.616h1.616V23.491Zm-3.234,0v1.616H14.3V23.491Zm-3.234,0v1.616h1.616V23.491Zm-3.234,0v1.616H7.836V23.491Zm-1.616,0a1.751,1.751,0,0,0-1.617,1.616H4.6Zm8.084,12.934H4.6l2.02-2.595L8.07,35.568l2.021-2.6,2.594,3.458ZM24,17H16V9h.379a1.493,1.493,0,0,1,1.06.439l6.121,6.122a1.507,1.507,0,0,1,.44,1.06V17Z" transform="translate(4.357 -9)" fill="url(#a)"/><path d="M22.5,40.35a.851.851,0,0,0,.85-.85V19.65H15.5A2.152,2.152,0,0,1,13.35,17.5V9.65H1.5a.851.851,0,0,0-.85.85v29a.851.851,0,0,0,.85.85h21m-3.346-4.576H20.77a.65.65,0,0,1,.65.65,2.39,2.39,0,0,1-2.266,2.267.65.65,0,0,1-.651-.65V36.425a.65.65,0,0,1,.65-.65m-3.234,0h1.616a.65.65,0,0,1,.65.65v1.617a.65.65,0,0,1-.65.65H15.92a.65.65,0,0,1-.65-.65V36.425a.65.65,0,0,1,.65-.65M2.985,29.307H14.3a.65.65,0,0,1,.65.65v8.085a.65.65,0,0,1-.65.65H4.6a2.27,2.27,0,0,1-2.267-2.267V29.957a.65.65,0,0,1,.65-.65m16.168,3.234H20.77a.65.65,0,0,1,.65.65v1.617a.65.65,0,0,1-.65.65H19.154a.65.65,0,0,1-.65-.65V33.191a.65.65,0,0,1,.65-.65m0-3.234H20.77a.65.65,0,0,1,.65.65v1.617a.65.65,0,0,1-.65.65H19.154a.65.65,0,0,1-.65-.65V29.957a.65.65,0,0,1,.65-.65m0-3.233H20.77a.65.65,0,0,1,.65.65v1.616a.65.65,0,0,1-.65.65H19.154a.65.65,0,0,1-.65-.65V26.725a.65.65,0,0,1,.65-.65m-16.168,0H4.6a.65.65,0,0,1,.65.65v1.616a.65.65,0,0,1-.65.65H2.985a.65.65,0,0,1-.65-.65V26.725a.65.65,0,0,1,.65-.65m16.168-3.234a2.373,2.373,0,0,1,2.266,2.266.65.65,0,0,1-.65.651H19.154a.65.65,0,0,1-.65-.65V23.491a.65.65,0,0,1,.65-.65m-3.234,0h1.616a.65.65,0,0,1,.65.65v1.616a.65.65,0,0,1-.65.65H15.92a.65.65,0,0,1-.65-.65V23.491a.65.65,0,0,1,.65-.65m-3.234,0H14.3a.65.65,0,0,1,.65.65v1.616a.65.65,0,0,1-.65.65H12.686a.65.65,0,0,1-.65-.65V23.491a.65.65,0,0,1,.65-.65m-3.234,0h1.616a.65.65,0,0,1,.65.65v1.616a.65.65,0,0,1-.65.65H9.453a.65.65,0,0,1-.65-.65V23.491a.65.65,0,0,1,.65-.65m-3.234,0H7.836a.65.65,0,0,1,.65.65v1.616a.65.65,0,0,1-.65.65H6.219a.65.65,0,0,1-.65-.65V23.491a.65.65,0,0,1,.65-.65m-1.616,0a.65.65,0,0,1,.65.65v1.616a.65.65,0,0,1-.65.65H2.985a.65.65,0,0,1-.65-.65A2.388,2.388,0,0,1,4.6,22.841m6.784,12.934-1.3-1.738-1.35,1.738h2.654m-3.99,0-.757-.909-.707.909H7.4M23.305,16.35a.853.853,0,0,0-.2-.33L16.98,9.9a.853.853,0,0,0-.33-.205V16.35h6.655M22.5,41H1.5A1.5,1.5,0,0,1,0,39.5v-29A1.5,1.5,0,0,1,1.5,9H14v8.5A1.5,1.5,0,0,0,15.5,19H24V39.5A1.5,1.5,0,0,1,22.5,41Zm-3.346-4.576v1.617a1.752,1.752,0,0,0,1.616-1.617Zm-3.234,0v1.617h1.616V36.425ZM2.985,29.957v6.467A1.619,1.619,0,0,0,4.6,38.042h9.7V29.957Zm16.168,3.234v1.617H20.77V33.191Zm0-3.234v1.617H20.77V29.957Zm0-3.233v1.616H20.77V26.725Zm-16.168,0v1.616H4.6V26.725Zm16.168-3.234v1.616H20.77a1.727,1.727,0,0,0-1.616-1.616Zm-3.234,0v1.616h1.616V23.491Zm-3.234,0v1.616H14.3V23.491Zm-3.234,0v1.616h1.616V23.491Zm-3.234,0v1.616H7.836V23.491Zm-1.616,0a1.751,1.751,0,0,0-1.617,1.616H4.6Zm8.084,12.934H4.6L6.623,33.83,8.07,35.568l2.021-2.6ZM24,17H16V9h.379a1.493,1.493,0,0,1,1.06.439l6.121,6.122a1.507,1.507,0,0,1,.44,1.06Z" transform="translate(4.357 -9)" fill="#1f5300"/></g></svg>