<svg xmlns="http://www.w3.org/2000/svg" xmlns:xlink="http://www.w3.org/1999/xlink" width="1024" height="1024" viewBox="0 0 1024 1024"><defs><clipPath id="b"><rect width="1024" height="1024"/></clipPath></defs><g id="a" clip-path="url(#b)"><path d="M381.409,231.57V0H40.865A40.767,40.767,0,0,0,0,40.865V830.927a40.767,40.767,0,0,0,40.865,40.865H612.979a40.767,40.767,0,0,0,40.865-40.865V272.435H422.274A40.985,40.985,0,0,1,381.409,231.57Zm272.435-24.008v10.387H435.9V0h10.387a40.835,40.835,0,0,1,28.946,11.919l166.7,166.866A40.735,40.735,0,0,1,653.844,207.561Z" transform="translate(185.078 76.104)" fill="#88c224"/><g transform="translate(7 5)"><rect width="268" height="185" rx="49" transform="translate(514 448)" fill="#fff"/><rect width="251" height="64" rx="32" transform="translate(229 448)" fill="#fff"/><rect width="251" height="64" rx="32" transform="translate(229 560)" fill="#fff"/><rect width="251" height="64" rx="32" transform="translate(229 672)" fill="#fff"/><rect width="251" height="64" rx="32" transform="translate(229 784)" fill="#fff"/><rect width="268" height="185" rx="49" transform="translate(514 663)" fill="#fff"/></g></g></svg>