<svg xmlns="http://www.w3.org/2000/svg" xmlns:xlink="http://www.w3.org/1999/xlink" width="1024" height="512" viewBox="0 0 1024 512"><defs><clipPath id="b"><rect width="1024" height="512"/></clipPath></defs><g id="a" clip-path="url(#b)"><rect width="927" height="368" transform="translate(48.971 72)" fill="#fff"/><path d="M1,1V367H926V1H1M0,0H927V368H0Z" transform="translate(48.971 72)" fill="#707070"/><path d="M64.01,461.15q-26,0-44.987-19.051T.031,395.263V65.858Q.031,39.1,19.022,19.55T64.01,0H960.024q26,0,44.987,19.549T1024,65.858v329.4q0,27.785-18.991,46.836T960.024,461.15ZM704,98.773a32.052,32.052,0,0,0-9.51-23.154q-9.51-9.76-22.494-9.789H351.985q-13.012,0-22.494,9.789a32.271,32.271,0,0,0-9.51,23.154V362.29a32.052,32.052,0,0,0,9.51,23.154q9.51,9.76,22.494,9.789H671.992q13.012,0,22.494-9.789A32.271,32.271,0,0,0,704,362.29V98.8Z" transform="translate(-0.031 25.425)" fill="#88c224"/></g></svg>