<svg xmlns="http://www.w3.org/2000/svg" xmlns:xlink="http://www.w3.org/1999/xlink" width="32" height="32" viewBox="0 0 32 32"><defs><linearGradient id="a" x1="0.5" x2="0.5" y2="1" gradientUnits="objectBoundingBox"><stop offset="0" stop-color="#feff00"/><stop offset="1" stop-color="#e3cd00"/></linearGradient><clipPath id="c"><rect width="32" height="32"/></clipPath></defs><g id="b" clip-path="url(#c)"><rect width="21" height="20" transform="translate(6 11)" fill="#fff"/><path d="M22.5,41H1.5A1.5,1.5,0,0,1,0,39.5v-29A1.5,1.5,0,0,1,1.5,9H14v8.5A1.5,1.5,0,0,0,15.5,19H24V39.5A1.5,1.5,0,0,1,22.5,41ZM12,21.038h0a1.035,1.035,0,0,0-.945.588L8.9,26l-4.824.7a1.057,1.057,0,0,0-.584,1.8l3.49,3.4-.826,4.8a1.033,1.033,0,0,0,.229.854,1.079,1.079,0,0,0,.814.382,1.037,1.037,0,0,0,.49-.124L12,35.554l4.315,2.268a1.041,1.041,0,0,0,.488.122,1.08,1.08,0,0,0,.815-.382,1.031,1.031,0,0,0,.228-.852l-.825-4.8,3.49-3.4a1.057,1.057,0,0,0-.585-1.8L15.1,26l-2.156-4.371a1.053,1.053,0,0,0-.95-.588ZM24,17H16V9h.379a1.493,1.493,0,0,1,1.06.439l6.121,6.122a1.507,1.507,0,0,1,.44,1.06V17Z" transform="translate(4.357 -9)" fill="url(#a)"/><path d="M22.5,40.35a.851.851,0,0,0,.85-.85V19.65H15.5A2.152,2.152,0,0,1,13.35,17.5V9.65H1.5a.851.851,0,0,0-.85.85v29a.851.851,0,0,0,.85.85h21M6.28,32.132,3.035,28.97a1.707,1.707,0,0,1,.944-2.912L8.465,25.4l2-4.065a1.694,1.694,0,0,1,1.5-.95.653.653,0,0,1,.065,0,1.7,1.7,0,0,1,1.5.95L15.536,25.4l4.485.654a1.707,1.707,0,0,1,.945,2.911L17.72,32.132l.767,4.468a1.671,1.671,0,0,1-.372,1.381,1.738,1.738,0,0,1-1.312.613,1.685,1.685,0,0,1-.791-.2L12,36.288,7.989,38.4a1.68,1.68,0,0,1-.794.2,1.737,1.737,0,0,1-1.311-.613A1.673,1.673,0,0,1,5.512,36.6l.768-4.467M23.305,16.35a.853.853,0,0,0-.2-.33L16.98,9.9a.853.853,0,0,0-.33-.205V16.35h6.655M22.5,41H1.5A1.5,1.5,0,0,1,0,39.5v-29A1.5,1.5,0,0,1,1.5,9H14v8.5A1.5,1.5,0,0,0,15.5,19H24V39.5A1.5,1.5,0,0,1,22.5,41ZM12,21.038h0a1.035,1.035,0,0,0-.945.588L8.9,26l-4.824.7a1.057,1.057,0,0,0-.584,1.8l3.49,3.4-.826,4.8a1.033,1.033,0,0,0,.229.854,1.079,1.079,0,0,0,.814.382,1.037,1.037,0,0,0,.49-.124L12,35.554l4.315,2.268a1.041,1.041,0,0,0,.488.122,1.08,1.08,0,0,0,.815-.382,1.031,1.031,0,0,0,.228-.852l-.825-4.8,3.49-3.4a1.057,1.057,0,0,0-.585-1.8L15.1,26l-2.156-4.371a1.053,1.053,0,0,0-.95-.588ZM24,17H16V9h.379a1.493,1.493,0,0,1,1.06.439l6.121,6.122a1.507,1.507,0,0,1,.44,1.06Z" transform="translate(4.357 -9)" fill="#8c7f00"/></g></svg>