<svg xmlns="http://www.w3.org/2000/svg" xmlns:xlink="http://www.w3.org/1999/xlink" width="32" height="32" viewBox="0 0 32 32"><defs><linearGradient id="a" x1="0.5" x2="0.5" y2="1" gradientUnits="objectBoundingBox"><stop offset="0" stop-color="#004dff"/><stop offset="1" stop-color="#0031a2"/></linearGradient><clipPath id="c"><rect width="32" height="32"/></clipPath></defs><g id="b" clip-path="url(#c)"><rect width="21" height="17" transform="translate(6 14)" fill="#fff"/><path d="M22.5,41H1.5A1.5,1.5,0,0,1,0,39.5v-29A1.5,1.5,0,0,1,1.5,9H14v8.5A1.5,1.5,0,0,0,15.5,19H24V39.5A1.5,1.5,0,0,1,22.5,41ZM19.162,25a1,1,0,0,0-1,1V37a1,1,0,0,0,1,1h1a1,1,0,0,0,1-1V26a1,1,0,0,0-1-1ZM3.121,30.172a1,1,0,0,0-1,1v.664a1,1,0,0,0,1,1H10.74v1.993a.991.991,0,0,0,1,1,.981.981,0,0,0,.7-.293L15.763,32.2a1,1,0,0,0,0-1.409l-3.322-3.322a.98.98,0,0,0-.7-.293.992.992,0,0,0-1,1v1.993ZM24,17H16V9h.379a1.493,1.493,0,0,1,1.06.439l6.121,6.122a1.507,1.507,0,0,1,.44,1.06V17Z" transform="translate(4.357 -9)" fill="url(#a)"/><path d="M22.5,40.35a.851.851,0,0,0,.85-.85V19.65H15.5A2.152,2.152,0,0,1,13.35,17.5V9.65H1.5a.851.851,0,0,0-.85.85v29a.851.851,0,0,0,.85.85h21m-3.338-16h1A1.652,1.652,0,0,1,21.812,26V37a1.652,1.652,0,0,1-1.65,1.65h-1A1.652,1.652,0,0,1,17.511,37V26a1.652,1.652,0,0,1,1.651-1.65M10.09,33.479H3.121a1.649,1.649,0,0,1-1.646-1.647v-.664a1.648,1.648,0,0,1,1.646-1.646H10.09V28.178A1.646,1.646,0,0,1,12.9,27.014l3.322,3.322a1.646,1.646,0,0,1,0,2.329L12.9,35.986a1.646,1.646,0,0,1-2.811-1.164V33.479M23.305,16.35a.853.853,0,0,0-.2-.33L16.98,9.9a.853.853,0,0,0-.33-.205V16.35h6.655M22.5,41H1.5A1.5,1.5,0,0,1,0,39.5v-29A1.5,1.5,0,0,1,1.5,9H14v8.5A1.5,1.5,0,0,0,15.5,19H24V39.5A1.5,1.5,0,0,1,22.5,41ZM19.162,25a1,1,0,0,0-1,1V37a1,1,0,0,0,1,1h1a1,1,0,0,0,1-1V26a1,1,0,0,0-1-1ZM3.121,30.172a1,1,0,0,0-1,1v.664a1,1,0,0,0,1,1H10.74v1.993a.991.991,0,0,0,1,1,.981.981,0,0,0,.7-.293L15.763,32.2a1,1,0,0,0,0-1.409l-3.322-3.322a.98.98,0,0,0-.7-.293.992.992,0,0,0-1,1v1.993ZM24,17H16V9h.379a1.493,1.493,0,0,1,1.06.439l6.121,6.122a1.507,1.507,0,0,1,.44,1.06Z" transform="translate(4.357 -9)" fill="#00133f"/></g></svg>