<svg xmlns="http://www.w3.org/2000/svg" xmlns:xlink="http://www.w3.org/1999/xlink" width="32" height="32" viewBox="0 0 32 32"><defs><linearGradient id="a" x1="0.5" x2="0.5" y2="1" gradientUnits="objectBoundingBox"><stop offset="0" stop-color="#c2c2c2"/><stop offset="1" stop-color="#585858"/></linearGradient><clipPath id="c"><rect width="32" height="32"/></clipPath></defs><g id="b" clip-path="url(#c)"><rect width="21" height="19" transform="translate(6 12)" fill="#fff"/><path d="M22.5,41H1.5A1.5,1.5,0,0,1,0,39.5v-29A1.5,1.5,0,0,1,1.5,9H14v8.5A1.5,1.5,0,0,0,15.5,19H24V39.5A1.5,1.5,0,0,1,22.5,41ZM12,21.5a8.572,8.572,0,1,0,8.572,8.572A8.581,8.581,0,0,0,12,21.5Zm0,14.585a1.59,1.59,0,1,1,1.59-1.59A1.592,1.592,0,0,1,12,36.085Zm.968-4.079H11.032a.415.415,0,0,1-.415-.414v-.139c0-1.384,1.014-1.952,1.828-2.408l.061-.034c.7-.39,1.124-.656,1.124-1.174,0-.652-.834-1.139-1.58-1.139-.956,0-1.375.47-1.98,1.238a.414.414,0,0,1-.576.073L8.3,27.1a.417.417,0,0,1-.094-.562,4.463,4.463,0,0,1,4.028-2.2,4.392,4.392,0,0,1,2.744,1.011,3.271,3.271,0,0,1,1.283,2.514A3.073,3.073,0,0,1,14.3,30.642c-.515.3-.922.532-.922.9v.047A.414.414,0,0,1,12.968,32.007ZM24,17H16V9h.379a1.493,1.493,0,0,1,1.06.439l6.121,6.122a1.507,1.507,0,0,1,.44,1.06V17Z" transform="translate(4.357 -9)" fill="url(#a)"/><path d="M22.5,40.35a.851.851,0,0,0,.85-.85V19.65H15.5A2.152,2.152,0,0,1,13.35,17.5V9.65H1.5a.851.851,0,0,0-.85.85v29a.851.851,0,0,0,.85.85h21M12,20.85a9.222,9.222,0,1,1-9.222,9.222A9.232,9.232,0,0,1,12,20.85m0,14.585a.94.94,0,1,0-.939-.94.941.941,0,0,0,.939.94m.747-4.079c.1-.623.674-.955,1.233-1.278.8-.462,1.628-.939,1.628-2.219a2.635,2.635,0,0,0-1.047-2.013,3.731,3.731,0,0,0-2.33-.862,3.775,3.775,0,0,0-3.363,1.734l.837.634a2.792,2.792,0,0,1,2.347-1.3c1.077,0,2.229.719,2.229,1.789,0,.925-.774,1.358-1.456,1.741l-.061.034c-.871.488-1.453.879-1.494,1.744h1.477M23.305,16.35a.853.853,0,0,0-.2-.33L16.98,9.9a.853.853,0,0,0-.33-.205V16.35h6.655M22.5,41H1.5A1.5,1.5,0,0,1,0,39.5v-29A1.5,1.5,0,0,1,1.5,9H14v8.5A1.5,1.5,0,0,0,15.5,19H24V39.5A1.5,1.5,0,0,1,22.5,41ZM12,21.5a8.572,8.572,0,1,0,8.572,8.572A8.581,8.581,0,0,0,12,21.5Zm0,14.585a1.59,1.59,0,1,1,1.59-1.59A1.592,1.592,0,0,1,12,36.085Zm.968-4.079H11.032a.415.415,0,0,1-.415-.414v-.139c0-1.384,1.014-1.952,1.828-2.408l.061-.034c.7-.39,1.124-.656,1.124-1.174,0-.652-.834-1.139-1.58-1.139-.956,0-1.375.47-1.98,1.238a.414.414,0,0,1-.576.073L8.3,27.1a.417.417,0,0,1-.094-.562,4.463,4.463,0,0,1,4.028-2.2,4.392,4.392,0,0,1,2.744,1.011,3.271,3.271,0,0,1,1.283,2.514A3.073,3.073,0,0,1,14.3,30.642c-.515.3-.922.532-.922.9v.047A.414.414,0,0,1,12.968,32.007ZM24,17H16V9h.379a1.493,1.493,0,0,1,1.06.439l6.121,6.122a1.507,1.507,0,0,1,.44,1.06Z" transform="translate(4.357 -9)" fill="#313131"/></g></svg>