<svg xmlns="http://www.w3.org/2000/svg" xmlns:xlink="http://www.w3.org/1999/xlink" width="1024" height="1024" viewBox="0 0 1024 1024"><defs><clipPath id="b"><rect width="1024" height="1024"/></clipPath></defs><g id="a" clip-path="url(#b)"><circle cx="454" cy="454" r="454" transform="translate(58 58)" fill="#00c4f5"/><path d="M42.128,369.687,10.455,338.015a34.1,34.1,0,0,1,0-48.364L287.659,12.3a34.1,34.1,0,0,1,48.364,0l277.2,277.2a34.1,34.1,0,0,1,0,48.364l-31.672,31.672a34.279,34.279,0,0,1-48.935-.571L368.979,197.2V607.229a34.158,34.158,0,0,1-34.24,34.24H289.085a34.158,34.158,0,0,1-34.24-34.24V197.2L91.063,369.117a34.032,34.032,0,0,1-48.935.571Z" transform="translate(200.159 190.142)" fill="#fff"/></g></svg>