<svg xmlns="http://www.w3.org/2000/svg" xmlns:xlink="http://www.w3.org/1999/xlink" width="32" height="32" viewBox="0 0 32 32"><defs><linearGradient id="a" x1="0.5" x2="0.5" y2="1" gradientUnits="objectBoundingBox"><stop offset="0" stop-color="#b400e1"/><stop offset="1" stop-color="#8000a0"/></linearGradient><clipPath id="c"><rect width="32" height="32"/></clipPath></defs><g id="b" clip-path="url(#c)"><rect width="21" height="20" transform="translate(6 11)" fill="#fff"/><path d="M22.5,41H1.5A1.5,1.5,0,0,1,0,39.5v-29A1.5,1.5,0,0,1,1.5,9H14v8.5A1.5,1.5,0,0,0,15.5,19H24V39.5A1.5,1.5,0,0,1,22.5,41ZM9.237,36.892a.553.553,0,0,0-.553.553V38a.553.553,0,0,0,.553.553h5.527A.553.553,0,0,0,15.316,38v-.553a.553.553,0,0,0-.553-.553H12.83V35.726a6.1,6.1,0,0,0,5.251-6.019V28.049a.553.553,0,0,0-.553-.553h-.553a.554.554,0,0,0-.553.553v1.658A4.427,4.427,0,0,1,12,34.128c-.147,0-.3-.007-.442-.022a4.285,4.285,0,0,1-2.851-1.517,4.759,4.759,0,0,1-1.129-3.08V28.049a.553.553,0,0,0-.553-.553H6.473a.553.553,0,0,0-.553.553v1.387a6.255,6.255,0,0,0,5.251,6.277v1.18ZM12,20.863a3.32,3.32,0,0,0-3.316,3.317v5.527a3.316,3.316,0,1,0,6.632,0H12.369c-.2,0-.369-.124-.369-.276v-.553c0-.152.166-.276.369-.276h2.948V27.5H12.369c-.2,0-.369-.124-.369-.276v-.553c0-.152.166-.276.369-.276h2.948V25.285H12.369c-.2,0-.369-.124-.369-.276v-.553c0-.152.166-.276.369-.276h2.948A3.321,3.321,0,0,0,12,20.863ZM24,17H16V9h.379a1.493,1.493,0,0,1,1.06.439l6.121,6.122a1.507,1.507,0,0,1,.44,1.06V17Z" transform="translate(4.357 -9)" fill="url(#a)"/><path d="M22.5,40.35a.851.851,0,0,0,.85-.85V19.65H15.5A2.152,2.152,0,0,1,13.35,17.5V9.65H1.5a.851.851,0,0,0-.85.85v29a.851.851,0,0,0,.85.85h21M9.237,36.242h1.237a6.946,6.946,0,0,1-5.2-6.807V28.049a1.2,1.2,0,0,1,1.2-1.2h.553a1.2,1.2,0,0,1,1.009.548V24.179a3.966,3.966,0,0,1,7.932,0,.65.65,0,0,1-.308.553.65.65,0,0,1,.308.553V26.39a.65.65,0,0,1-.308.553.65.65,0,0,1,.3.46,1.2,1.2,0,0,1,1.015-.557h.553a1.2,1.2,0,0,1,1.2,1.2v1.658a6.757,6.757,0,0,1-5.14,6.536h1.174a1.2,1.2,0,0,1,1.2,1.2V38a1.2,1.2,0,0,1-1.2,1.2H9.237a1.2,1.2,0,0,1-1.2-1.2v-.553a1.2,1.2,0,0,1,1.2-1.2M23.305,16.35a.853.853,0,0,0-.2-.33L16.98,9.9a.853.853,0,0,0-.33-.205V16.35h6.655M22.5,41H1.5A1.5,1.5,0,0,1,0,39.5v-29A1.5,1.5,0,0,1,1.5,9H14v8.5A1.5,1.5,0,0,0,15.5,19H24V39.5A1.5,1.5,0,0,1,22.5,41ZM9.237,36.892a.553.553,0,0,0-.553.553V38a.553.553,0,0,0,.553.553h5.527A.553.553,0,0,0,15.316,38v-.553a.553.553,0,0,0-.553-.553H12.83V35.726a6.1,6.1,0,0,0,5.251-6.019V28.049a.553.553,0,0,0-.553-.553h-.553a.554.554,0,0,0-.553.553v1.658A4.427,4.427,0,0,1,12,34.128c-.147,0-.3-.007-.442-.022a4.285,4.285,0,0,1-2.851-1.517,4.759,4.759,0,0,1-1.129-3.08V28.049a.553.553,0,0,0-.553-.553H6.473a.553.553,0,0,0-.553.553v1.387a6.255,6.255,0,0,0,5.251,6.277v1.18ZM12,20.863a3.32,3.32,0,0,0-3.316,3.316v5.527a3.316,3.316,0,1,0,6.632,0H12.369c-.2,0-.369-.124-.369-.276v-.553c0-.152.166-.276.369-.276h2.947V27.5H12.369c-.2,0-.369-.124-.369-.276v-.554c0-.152.166-.276.369-.276h2.947V25.285H12.369c-.2,0-.369-.124-.369-.276v-.553c0-.152.166-.276.369-.276h2.947A3.321,3.321,0,0,0,12,20.863ZM24,17H16V9h.379a1.493,1.493,0,0,1,1.06.439l6.121,6.122a1.507,1.507,0,0,1,.44,1.06Z" transform="translate(4.357 -9)" fill="#470059"/></g></svg>