<svg xmlns="http://www.w3.org/2000/svg" xmlns:xlink="http://www.w3.org/1999/xlink" width="1024" height="1024" viewBox="0 0 1024 1024"><defs><clipPath id="b"><rect width="1024" height="1024"/></clipPath></defs><g id="a" clip-path="url(#b)"><path d="M485.6,79.545c20.4-35.345,71.412-35.345,91.809,0l439.722,761.964c20.391,35.333-5.11,79.491-45.9,79.491H91.778c-40.795,0-66.3-44.158-45.9-79.491Z" transform="translate(-19 20)" fill="#ffc527"/><path d="M109.244-179.724a31.378,31.378,0,0,1-22.465-8.81q-9.25-8.81-11.012-25.549l-32.6-342.709-.881-8.81q0-27.311,18.941-43.609t48.014-16.3q30.835,0,50.217,18.942t15.858,50.657l-32.6,341.828q-1.762,16.739-11.012,25.549A31.378,31.378,0,0,1,109.244-179.724Zm0,185.01q-28.192,0-46.693-18.941T44.05-60.789q0-28.192,18.5-47.134t46.693-18.941q28.192,0,46.693,18.941t18.5,47.134q0,28.192-18.5,47.133T109.244,5.286Z" transform="translate(403 852)" fill="#fff"/></g></svg>